<svg width="184" height="183" viewBox="0 0 184 183" fill="none" xmlns="http://www.w3.org/2000/svg">
<path d="M160.793 71.5244C154.284 62.3844 146.472 54.2461 137.606 47.3679L143.206 47.4891C134.527 37.7993 122.611 31.6103 109.692 30.0838C111.48 30.1332 113.257 29.7984 114.904 29.102C102.297 26.6932 89.2655 27.9208 77.3302 32.6412C73.8758 33.9987 44.9559 46.9073 46.1437 50.8222C45.7195 49.4526 45.3074 48.0951 44.9316 46.7255C35.4533 50.3617 30.2899 60.4582 27.1021 70.0699C24.23 78.7344 22.2482 87.6691 21.1872 96.7354C21.0434 96.1594 20.6804 95.6623 20.1756 95.3499C19.6708 95.0375 19.064 94.9345 18.4843 95.0627C20.2717 115.717 27.3699 135.559 39.0895 152.66H33.514C45.4995 166.439 61.5509 176.057 79.3543 180.126C79.179 180.141 79.0084 180.191 78.8524 180.272C78.6963 180.354 78.558 180.465 78.4453 180.6C78.3326 180.736 78.2478 180.892 78.1958 181.06C78.1438 181.228 78.1256 181.405 78.1423 181.58C83.3905 184.247 89.669 181.216 94.2991 177.677C98.9292 174.138 103.584 174.247 109.426 173.714L110.977 177.265C120.262 170.538 128.831 168.781 136.431 160.223C136.758 161.811 137.073 163.411 137.388 164.999C146.252 154.827 153.197 143.131 157.884 130.479L162.732 131.449C165.569 120.262 165.338 97.8505 162.066 86.7722L165.981 87.0994C167.108 81.5845 164.054 76.1181 160.793 71.5244Z" fill="#F2643E" fill-opacity="0.1"/>
<path d="M46.4831 71.1607C46.855 71.6879 47.3744 72.0935 47.976 72.3264C48.5777 72.5593 49.2348 72.6092 49.8648 72.4697C52.0101 71.8395 52.2889 70.2153 51.8647 68.4093L50.5678 69.0032C49.6708 69.4396 48.0951 70.4092 46.4831 71.1607Z" fill="#65B4FF"/>
<path d="M38.9077 52.3736C39.8997 53.2912 40.6955 54.4004 41.247 55.6341C42.3621 55.028 43.4044 54.422 44.1923 53.9978C43.4893 52.4221 42.8954 50.7979 42.1802 49.2222C41.4651 47.6465 40.7379 46.3254 38.9925 46.9799C35.8775 48.1556 37.332 50.7252 38.9077 52.3736Z" fill="#FFFEFC"/>
<path d="M38.6774 45.1377C38.0108 43.4044 37.3926 41.6711 36.8957 39.8894C36.4108 40.0591 35.9381 40.2288 35.4775 40.4227C35.017 40.6166 34.6048 40.7985 34.1927 41.0166L33.9867 41.15C35.0654 42.7378 36.1321 44.3498 37.1623 45.9982C37.6333 45.6721 38.137 45.3958 38.6653 45.174L38.6774 45.1377Z" fill="#FFFEFC"/>
<path d="M26.4234 17.4056C18.254 21.8296 13.7573 29.3202 16.7268 38.447C17.6054 41.347 19.178 43.9889 21.3084 46.1437C23.9386 48.7254 27.49 49.7799 30.3383 52.0828C31.4487 52.9588 32.4425 53.973 33.2958 55.1009C33.7774 55.9911 34.3159 56.8494 34.9078 57.6704C35.8896 58.0947 37.7804 57.3917 39.7561 56.4584C38.8592 53.7433 35.4775 52.5313 35.2957 49.4284C35.2352 48.6709 35.4316 47.9152 35.8532 47.283C34.1806 44.6528 32.4837 42.0469 30.6535 39.5258C29.9747 38.6046 31.2959 37.3804 31.9746 38.3137C32.3019 38.7622 32.6049 39.2228 32.92 39.6834C34.0147 39.0214 35.1983 38.5194 36.435 38.1925C36.2896 37.5501 36.1441 36.9077 36.0351 36.2532C35.8411 35.1139 37.5986 34.7381 37.7926 35.8896C38.3752 39.0068 39.2852 42.0539 40.5076 44.9801C43.3681 45.5498 44.7741 50.6889 45.8286 53.3312C47.2467 52.7979 49.1617 52.1192 49.6951 51.1132C50.2284 50.1071 49.5254 49.0648 49.3678 47.986C49.1533 46.545 49.182 45.0783 49.4526 43.6468C50.4102 38.4107 52.301 33.8897 50.6647 28.4596C47.2467 17.3207 37.1744 12.933 26.4234 17.4056ZM48.6163 35.7926C48.2891 37.0047 48.6163 38.2168 47.8285 39.3561C47.1497 40.2773 45.6346 39.3561 46.3255 38.3864C47.0164 37.4168 46.6285 36.2532 46.9073 35.2472C47.1861 34.2412 48.9072 34.6775 48.6163 35.7926ZM45.8164 26.6051C46.8675 28.0284 47.5353 29.6979 47.7557 31.4534C47.9133 32.5928 46.1558 32.9685 45.9861 31.817C45.8708 30.3885 45.3954 29.0124 44.6044 27.8172C43.865 26.896 45.1862 25.684 45.8164 26.6051ZM42.1802 24.4598C40.047 21.5023 35.6836 19.3812 32.1807 21.2357C31.1625 21.7811 30.3505 20.1812 31.3686 19.6358C35.526 17.4298 40.9076 19.6358 43.4893 23.272C44.265 24.181 42.9438 25.3931 42.2772 24.4598H42.1802Z" fill="#FFF250"/>
<path d="M39.4652 65.464C39.9864 66.2882 41.8893 70.1425 42.8468 70.4334C43.8044 70.7243 48.3375 68.1426 49.7556 67.4517C50.7617 66.9548 53.1131 66.2397 53.7555 65.2579C54.1918 64.6155 53.8888 63.7913 53.7555 62.8338C53.0098 59.4553 52.0379 56.1308 50.8465 52.8827L36.1199 59.7188C37.2107 61.6459 38.3016 63.5489 39.4652 65.464ZM51.3677 64.2519C49.3857 65.753 47.2483 67.0371 44.9922 68.082C43.9377 68.5547 43.1256 66.9548 44.1801 66.4821C46.2926 65.5143 48.2958 64.3238 50.1556 62.9307C51.0647 62.252 52.2889 63.5731 51.3677 64.2519ZM50.8465 61.8278C47.9448 62.6256 45.2383 64.0118 42.8953 65.9003C41.9984 66.6275 40.7863 65.3064 41.6833 64.5791C44.2755 62.4876 47.2711 60.9527 50.4829 60.0703C51.598 59.7672 51.9495 61.5369 50.8465 61.8278ZM39.6227 60.2642C42.4191 58.693 45.2956 57.2689 48.2405 55.9977C49.3072 55.5371 50.1193 57.137 49.0648 57.5976C46.1166 58.8568 43.2361 60.2688 40.4348 61.8278C39.4288 62.4459 38.6167 60.846 39.6227 60.2763V60.2642Z" fill="#9BE9ED"/>
<path d="M25.6355 15.7692C18.0722 19.8418 12.7997 26.5687 14.1694 35.4532C14.6857 38.8952 15.9971 42.1695 17.9995 45.0164C22.5326 51.2707 30.5929 52.2888 33.8655 59.8036C33.9199 59.9169 33.9996 60.0161 34.0983 60.0939C34.1971 60.1716 34.3123 60.2257 34.4351 60.2521C35.9017 63.0035 37.4895 65.6943 39.2107 68.2881C39.8288 69.2214 40.9076 71.5728 42.0227 72.0334C42.9302 72.2714 43.8917 72.1945 44.7498 71.8152C45.3835 72.8406 46.3537 73.614 47.4945 74.0031C48.6353 74.3922 49.8759 74.3729 51.0041 73.9485C53.9131 72.8212 54.2161 70.1668 53.4282 67.573C54.0868 67.3169 54.6565 66.8744 55.0677 66.2996C55.4788 65.7249 55.7136 65.0428 55.7433 64.3368C55.6221 60.1188 53.5858 55.2826 52.1071 51.3434C51.2707 48.5799 50.6162 45.9861 51.3071 43.1013C51.9097 41.1078 52.4114 39.0851 52.8101 37.041C53.6392 31.3105 52.271 25.4784 48.9799 20.7144C43.5135 13.1148 33.6958 12.436 25.6355 15.7692ZM49.8769 72.4334C49.2469 72.5728 48.5898 72.523 47.9882 72.2901C47.3865 72.0571 46.8671 71.6516 46.4952 71.1243C48.1073 70.3729 49.6829 69.4032 50.5799 68.9669L51.8768 68.4093C52.3374 70.2153 52.0101 71.8395 49.8648 72.4697L49.8769 72.4334ZM53.707 62.7368C53.9009 63.658 54.204 64.4822 53.707 65.161C53.0646 66.0943 50.7132 66.8579 49.7072 67.3548C48.2891 68.0457 43.7559 70.6153 42.7984 70.3365C41.8409 70.0577 39.9379 66.1912 39.4167 65.367C38.2047 63.5004 37.1623 61.5975 36.1199 59.6703L50.7859 52.8706C51.9774 56.1187 52.9492 59.4432 53.6949 62.8217L53.707 62.7368ZM42.1802 49.2223C42.8954 50.798 43.4893 52.4221 44.1923 53.9978C43.4044 54.422 42.3621 55.0281 41.247 55.6341C40.6955 54.4004 39.8997 53.2912 38.9077 52.3737C37.2956 50.7252 35.8775 48.1557 38.9925 46.9799C40.7379 46.3254 41.5378 47.7799 42.1802 49.2223ZM37.1623 45.9739C36.132 44.3498 35.0654 42.7377 33.9867 41.1257L34.1927 40.9923C34.6048 40.7742 35.0412 40.5802 35.4775 40.3984C35.9139 40.2166 36.4108 40.0348 36.8956 39.8651C37.3926 41.6469 38.0107 43.3801 38.6774 45.1134C38.1434 45.346 37.6355 45.6344 37.1623 45.9739ZM50.6647 28.399C52.301 33.829 50.4102 38.35 49.4526 43.5862C49.2101 45.0224 49.2101 46.4891 49.4526 47.9254C49.6102 49.0041 50.289 50.1192 49.7799 51.0525C49.2708 51.9858 47.3558 52.7373 45.9134 53.2706C44.8589 50.6283 43.4893 45.4891 40.5924 44.9194C39.3701 41.9932 38.46 38.9462 37.8774 35.8289C37.6835 34.6775 35.926 35.0532 36.1199 36.1926C36.229 36.8471 36.3744 37.4895 36.5199 38.1319C35.2831 38.4587 34.0995 38.9607 33.0049 39.6227C32.6898 39.1621 32.3867 38.7015 32.0595 38.2531C31.3807 37.3198 30.0596 38.544 30.7383 39.4651C32.4837 41.9862 34.1806 44.5922 35.8533 47.283C35.3909 47.9175 35.1638 48.6931 35.2109 49.4768C35.3927 52.5797 38.7743 53.7918 39.6713 56.5068C37.7441 57.4522 35.8533 58.1552 34.823 57.7189C34.2435 56.8968 33.7172 56.0386 33.2473 55.1493C32.409 54.0244 31.4316 53.0103 30.3383 52.1312C27.49 49.8768 23.9386 48.7738 21.3084 46.1921C19.1713 44.0236 17.5982 41.3643 16.7268 38.447C13.7573 29.3201 18.254 21.8295 26.4234 17.4055C37.1744 12.933 47.2467 17.3207 50.6647 28.399Z" fill="#1D2228"/>
<path d="M31.4656 19.6358C30.4474 20.1813 31.2595 21.7812 32.2776 21.2358C35.7805 19.3813 40.144 21.5024 42.2772 24.4599C42.9438 25.3932 44.265 24.1811 43.5984 23.2478C40.9682 19.648 35.6229 17.4299 31.4656 19.6358Z" fill="#1D2228"/>
<path d="M44.6044 27.8172C45.4361 29.0051 45.9493 30.3864 46.0953 31.8291C46.265 32.9806 48.0225 32.6048 47.8649 31.4655C47.6445 29.71 46.9767 28.0405 45.9256 26.6172C45.1862 25.6839 43.8651 26.896 44.6044 27.8172Z" fill="#1D2228"/>
<path d="M46.9073 35.2472C46.6286 36.2532 46.9679 37.5137 46.3255 38.3864C45.6831 39.2591 47.1498 40.2772 47.8285 39.3561C48.6527 38.2531 48.2891 37.0168 48.6164 35.7926C48.9436 34.5684 47.2104 34.1199 46.9073 35.2472Z" fill="#1D2228"/>
<path d="M40.4348 61.8276C43.239 60.2518 46.1236 58.8236 49.0769 57.549C50.1314 57.0884 49.3193 55.4885 48.2527 55.9491C45.3034 57.2238 42.4228 58.652 39.6228 60.2277C38.6167 60.8458 39.4288 62.4458 40.4348 61.8276Z" fill="#1D2228"/>
<path d="M41.6833 64.5913C40.7864 65.3185 41.9985 66.6397 42.8954 65.9124C45.2374 64.0196 47.9439 62.6292 50.8466 61.8278C51.9495 61.5248 51.598 59.7551 50.4829 60.0703C47.2701 60.9564 44.2746 62.4954 41.6833 64.5913Z" fill="#1D2228"/>
<path d="M50.1557 62.9429C48.2959 64.3359 46.2927 65.5264 44.1802 66.4942C43.1257 66.9669 43.9378 68.5669 44.9923 68.0942C47.2489 67.0454 49.3863 65.7572 51.3678 64.2519C52.2889 63.5732 51.0647 62.252 50.1557 62.9429Z" fill="#1D2228"/>
<path d="M22.7872 57.1249L20.2297 63.961C19.8176 65.0518 21.5266 65.5973 21.9266 64.5185C22.7912 62.2398 23.6477 59.9612 24.4962 57.6825C24.9447 56.5916 23.2356 56.0462 22.7872 57.1249Z" fill="#282F39"/>
<path d="M11.9513 55.2583C12.729 53.6269 13.7553 52.1263 14.9936 50.81C15.7814 49.9736 14.5694 48.6404 13.7815 49.4767C12.4229 50.9105 11.2944 52.5459 10.4362 54.325C9.93925 55.3189 11.4422 56.3006 11.9513 55.2583Z" fill="#1D2228"/>
<path d="M8.78781 40.1681C9.92716 40.1681 9.99988 38.3378 8.88478 38.3742C6.46064 38.459 4.25468 39.3317 1.89115 39.4044C0.739683 39.4044 0.67908 41.2347 1.78206 41.1983C4.15771 41.1256 6.41216 40.2529 8.78781 40.1681Z" fill="#1D2228"/>
<path d="M9.04235 27.0051C7.03032 25.9021 4.60618 25.4657 2.58203 24.2537C1.57601 23.7082 0.59424 25.2112 1.61238 25.7566C3.67289 26.8717 6.01218 27.3687 8.0727 28.4717C9.07871 29.1019 10.0605 27.5626 9.04235 27.0051Z" fill="#1D2228"/>
<path d="M14.5693 15.2116C13.0373 13.8025 11.3731 12.5443 9.59985 11.4542C8.59384 10.8845 7.61206 12.3996 8.6302 12.9572C10.278 13.9607 11.8245 15.1216 13.2482 16.4237C14.1209 17.1509 15.5147 15.951 14.5693 15.2116Z" fill="#1D2228"/>
<path d="M24.8598 9.4058C24.1053 7.47987 23.5687 5.47557 23.2599 3.43031C23.0781 2.27884 21.3206 2.65458 21.5024 3.79393C21.8442 5.99596 22.438 8.15142 23.272 10.2179C23.6962 11.2845 25.284 10.4603 24.8598 9.4058Z" fill="#1D2228"/>
<path d="M36.7866 7.59979L38.5441 1.22432C38.8956 0.01225 37.1987 -0.496818 36.8836 0.618284C36.2775 2.76364 35.6715 4.909 35.0776 7.04224C34.7746 8.15734 36.4714 8.7149 36.7866 7.59979Z" fill="#1D2228"/>
<path d="M52.2404 6.07248C50.5794 7.56818 49.0356 9.18902 47.6224 10.9207C46.8225 11.745 48.0224 13.0782 48.8345 12.2419C50.244 10.507 51.7881 8.88585 53.4525 7.39363C54.3615 6.69063 53.1495 5.36948 52.2404 6.07248Z" fill="#1D2228"/>
<path d="M55.113 18.6295C54.9976 18.6534 54.888 18.6997 54.7906 18.7659C54.6931 18.8322 54.6096 18.9169 54.5449 19.0154C54.4142 19.2143 54.3679 19.457 54.4161 19.69C54.4643 19.9231 54.6031 20.1275 54.802 20.2582C55.0009 20.3889 55.2436 20.4352 55.4766 20.387C57.622 19.9506 59.5734 18.9083 61.7188 18.4719C61.9518 18.4237 62.1562 18.2849 62.2869 18.086C62.4176 17.8871 62.4639 17.6444 62.4157 17.4114C62.3675 17.1783 62.2287 16.9739 62.0298 16.8432C61.8309 16.7125 61.5882 16.6662 61.3552 16.7144C59.2098 17.1508 57.2584 18.1931 55.113 18.6295Z" fill="#1D2228"/>
<path d="M59.0643 29.4656C58.8265 29.4512 58.5926 29.5318 58.4141 29.6898C58.2357 29.8478 58.1273 30.0702 58.1129 30.308C58.0984 30.5459 58.179 30.7798 58.337 30.9582C58.495 31.1367 58.7174 31.245 58.9553 31.2595C60.9552 31.3928 62.8945 32.108 64.8944 32.2413C65.1323 32.2541 65.3655 32.172 65.5428 32.0129C65.7201 31.8537 65.8269 31.6307 65.8398 31.3928C65.8527 31.155 65.7705 30.9217 65.6114 30.7444C65.4523 30.5671 65.2292 30.4603 64.9913 30.4474C62.9914 30.3141 61.0642 29.599 59.0643 29.4656Z" fill="#1D2228"/>
<path d="M57.9371 41.9379C59.5613 42.6045 61.2339 43.1499 62.8581 43.8651C63.9247 44.3135 64.4702 42.653 63.4157 42.1561C61.7915 41.4773 60.1188 40.944 58.4947 40.2289C57.4523 39.7804 56.9069 41.4894 57.9371 41.9379Z" fill="#1D2228"/>
<path d="M118.322 155.387C117.825 155.509 118.165 155.63 118.322 155.387V155.387Z" fill="#94BF0C"/>
<path d="M176.611 129.631C161.666 135.958 146.842 142.624 132.031 149.266L123.546 153.084C122.092 153.739 120.165 155.096 118.565 155.339H118.541C118.993 156.693 119.531 158.017 120.153 159.302L121.765 163.12C140.94 154.03 160.624 146.091 179.835 137.061C178.683 134.612 177.58 132.128 176.611 129.631ZM173.084 135.764C156.89 143.121 140.552 150.188 124.225 157.266C124.06 157.314 123.883 157.299 123.728 157.225C123.573 157.151 123.45 157.023 123.383 156.865C123.316 156.707 123.309 156.53 123.364 156.367C123.418 156.204 123.531 156.067 123.68 155.981C140.006 148.903 156.345 141.836 172.55 134.479C173.411 134.079 173.956 135.364 173.084 135.764Z" fill="#9BE9ED"/>
<path d="M122.262 164.417C123.001 166.138 123.764 167.835 124.54 169.532L126.334 168.684C125.74 167.569 125.207 166.417 124.71 165.242C124.639 165.071 124.639 164.88 124.71 164.709C124.78 164.539 124.915 164.403 125.086 164.332C125.256 164.262 125.448 164.262 125.618 164.332C125.788 164.403 125.924 164.538 125.995 164.708C126.48 165.848 127.013 166.987 127.583 168.09L129.122 167.363L128.431 165.726C128.383 165.561 128.398 165.384 128.472 165.229C128.546 165.074 128.674 164.952 128.832 164.884C128.99 164.817 129.167 164.81 129.33 164.865C129.493 164.92 129.63 165.032 129.716 165.181C129.934 165.714 130.152 166.235 130.382 166.769L131.934 166.041C131.716 165.532 131.497 165.023 131.291 164.514C131.244 164.349 131.258 164.172 131.332 164.017C131.406 163.862 131.534 163.739 131.692 163.672C131.85 163.605 132.028 163.598 132.19 163.653C132.353 163.708 132.491 163.82 132.576 163.969C132.782 164.466 132.988 164.963 133.207 165.46L135.4 164.442C134.794 163.229 134.188 162.09 133.728 160.89C133.68 160.725 133.695 160.548 133.768 160.393C133.842 160.238 133.97 160.115 134.128 160.048C134.287 159.981 134.464 159.974 134.627 160.029C134.79 160.083 134.927 160.196 135.012 160.345C135.522 161.557 136.067 162.708 136.661 163.86L138.2 163.157C137.946 162.563 137.691 161.945 137.449 161.363C137.413 161.279 137.394 161.19 137.393 161.099C137.392 161.008 137.409 160.917 137.442 160.833C137.476 160.749 137.526 160.672 137.59 160.607C137.653 160.542 137.729 160.49 137.812 160.454C137.896 160.418 137.986 160.399 138.077 160.398C138.168 160.397 138.258 160.414 138.342 160.447C138.427 160.481 138.504 160.531 138.569 160.595C138.634 160.658 138.686 160.734 138.721 160.817C138.976 161.411 139.218 162.03 139.473 162.575L141.036 161.872L140.309 160.151C140.262 159.986 140.276 159.809 140.35 159.654C140.424 159.499 140.552 159.376 140.71 159.309C140.868 159.242 141.045 159.235 141.208 159.29C141.371 159.344 141.508 159.456 141.594 159.605C141.824 160.175 142.067 160.733 142.309 161.302L144.406 160.357C143.788 159.145 143.194 157.933 142.685 156.721C142.614 156.55 142.614 156.359 142.684 156.188C142.755 156.018 142.89 155.882 143.061 155.812C143.231 155.741 143.422 155.741 143.593 155.811C143.763 155.882 143.899 156.017 143.97 156.187C144.491 157.399 145.061 158.612 145.679 159.824L147.242 159.133C147.242 159.133 147.182 159.072 147.17 159.024C146.915 158.418 146.66 157.812 146.394 157.206C146.346 157.04 146.361 156.864 146.435 156.709C146.508 156.553 146.636 156.431 146.795 156.364C146.953 156.296 147.13 156.29 147.293 156.344C147.456 156.399 147.593 156.511 147.679 156.66L148.454 158.478C148.46 158.514 148.46 158.551 148.454 158.587L150.054 157.872L149.291 156.054C149.255 155.97 149.236 155.881 149.235 155.79C149.234 155.699 149.25 155.609 149.284 155.524C149.318 155.44 149.368 155.363 149.432 155.298C149.495 155.233 149.571 155.181 149.654 155.145C149.738 155.109 149.828 155.09 149.919 155.089C150.009 155.088 150.1 155.105 150.184 155.139C150.269 155.172 150.345 155.222 150.411 155.286C150.476 155.349 150.527 155.425 150.563 155.509C150.83 156.115 151.085 156.721 151.339 157.327L153.375 156.418C152.781 155.206 152.163 154.078 151.715 152.878C151.667 152.713 151.682 152.537 151.755 152.381C151.829 152.226 151.957 152.104 152.116 152.036C152.274 151.969 152.451 151.962 152.614 152.017C152.777 152.072 152.914 152.184 153 152.333C153.509 153.545 154.054 154.697 154.648 155.848L156.199 155.169L155.436 153.363C155.388 153.198 155.403 153.021 155.477 152.866C155.55 152.711 155.678 152.588 155.837 152.521C155.995 152.454 156.172 152.447 156.335 152.502C156.498 152.557 156.635 152.669 156.721 152.818L157.472 154.6L159.036 153.909C158.793 153.315 158.539 152.697 158.296 152.151C158.249 151.986 158.263 151.809 158.337 151.654C158.411 151.499 158.539 151.376 158.697 151.309C158.855 151.242 159.032 151.235 159.195 151.29C159.358 151.344 159.495 151.457 159.581 151.606L160.308 153.339L162.454 152.394C161.884 151.291 161.351 150.163 160.866 149.012C160.795 148.842 160.795 148.65 160.865 148.48C160.936 148.309 161.071 148.174 161.242 148.103C161.412 148.032 161.603 148.032 161.774 148.102C161.944 148.173 162.08 148.308 162.151 148.479C162.636 149.606 163.157 150.733 163.726 151.824L165.278 151.145L164.587 149.497C164.539 149.332 164.554 149.155 164.628 149C164.701 148.845 164.83 148.722 164.988 148.655C165.146 148.588 165.323 148.581 165.486 148.635C165.649 148.69 165.786 148.802 165.872 148.951C166.09 149.497 166.32 150.03 166.55 150.575L168.114 149.872C167.896 149.351 167.666 148.818 167.447 148.285C167.4 148.12 167.414 147.943 167.488 147.788C167.562 147.633 167.69 147.51 167.848 147.443C168.006 147.376 168.184 147.369 168.346 147.423C168.509 147.478 168.647 147.59 168.732 147.739L169.387 149.303L171.059 148.563C170.502 147.533 170.017 146.467 169.556 145.388C169.486 145.217 169.486 145.026 169.556 144.855C169.626 144.685 169.762 144.55 169.932 144.479C170.103 144.408 170.294 144.408 170.464 144.478C170.635 144.549 170.77 144.684 170.841 144.855C171.302 145.921 171.775 146.964 172.332 147.994L173.883 147.291L173.277 145.873C173.23 145.708 173.244 145.531 173.318 145.376C173.392 145.221 173.52 145.098 173.678 145.031C173.836 144.964 174.014 144.957 174.176 145.011C174.339 145.066 174.477 145.178 174.562 145.327L175.144 146.721L176.708 146.018C176.514 145.57 176.332 145.109 176.138 144.661C176.09 144.496 176.105 144.319 176.179 144.164C176.252 144.009 176.381 143.886 176.539 143.819C176.697 143.752 176.874 143.745 177.037 143.799C177.2 143.854 177.337 143.966 177.423 144.115L177.98 145.436L179.58 144.709C179.059 143.715 178.598 142.709 178.162 141.679C178.114 141.514 178.129 141.337 178.203 141.182C178.277 141.027 178.405 140.904 178.563 140.837C178.721 140.77 178.898 140.763 179.061 140.818C179.224 140.872 179.361 140.985 179.447 141.133C179.871 142.152 180.332 143.158 180.853 144.127L182.441 143.4C181.798 141.715 181.095 140.067 180.356 138.418C161.133 147.376 141.436 155.327 122.262 164.417Z" fill="#FFD464"/>
<path d="M183.992 143.424C182.089 138.346 179.556 133.521 177.665 128.431C177.629 128.319 177.559 128.222 177.466 128.15C177.373 128.079 177.261 128.037 177.144 128.031C177.014 127.99 176.874 127.99 176.744 128.031C156.83 136.455 137.109 145.388 117.413 154.296C117.246 154.371 117.114 154.507 117.044 154.676C116.974 154.845 116.972 155.035 117.038 155.205C118.912 160.497 121.097 165.674 123.583 170.708C123.621 170.786 123.675 170.856 123.74 170.914C123.83 171.013 123.951 171.079 124.083 171.101C124.215 171.123 124.35 171.1 124.468 171.035C143.97 161.654 163.957 153.339 183.604 144.273C183.75 144.202 183.867 144.082 183.932 143.933C183.932 143.933 183.932 143.86 183.932 143.824C183.992 143.7 184.013 143.56 183.992 143.424ZM118.347 155.387C118.189 155.63 117.85 155.508 118.347 155.387V155.387ZM120.128 159.314C119.515 158.028 118.985 156.704 118.541 155.351C120.14 155.108 122.068 153.751 123.522 153.096L132.007 149.278C146.818 142.636 161.642 135.946 176.586 129.643C177.556 132.152 178.659 134.624 179.762 137.085C160.551 146.115 140.867 154.054 121.692 163.144L120.128 159.314ZM180.865 144.066C180.344 143.097 179.883 142.091 179.459 141.073C179.373 140.924 179.236 140.811 179.073 140.757C178.91 140.702 178.733 140.709 178.575 140.776C178.417 140.843 178.289 140.966 178.215 141.121C178.141 141.276 178.127 141.453 178.174 141.618C178.611 142.648 179.071 143.654 179.592 144.648L177.992 145.376L177.435 144.054C177.349 143.905 177.212 143.793 177.049 143.738C176.886 143.684 176.709 143.691 176.551 143.758C176.393 143.825 176.265 143.948 176.191 144.103C176.117 144.258 176.103 144.435 176.15 144.6C176.344 145.048 176.526 145.509 176.72 145.957L175.156 146.66L174.574 145.266C174.489 145.118 174.352 145.005 174.189 144.951C174.026 144.896 173.849 144.903 173.69 144.97C173.532 145.037 173.404 145.16 173.33 145.315C173.257 145.47 173.242 145.647 173.29 145.812L173.896 147.23L172.344 147.933C171.787 146.903 171.314 145.86 170.853 144.794C170.783 144.623 170.647 144.488 170.477 144.418C170.306 144.347 170.115 144.347 169.944 144.418C169.774 144.489 169.639 144.624 169.568 144.795C169.498 144.965 169.498 145.157 169.569 145.327C170.029 146.406 170.514 147.472 171.072 148.503L169.399 149.242L168.744 147.678C168.659 147.53 168.521 147.417 168.359 147.363C168.196 147.308 168.018 147.315 167.86 147.382C167.702 147.449 167.574 147.572 167.5 147.727C167.426 147.882 167.412 148.059 167.46 148.224C167.678 148.757 167.908 149.29 168.126 149.812L166.563 150.515C166.332 149.969 166.102 149.436 165.884 148.891C165.798 148.742 165.661 148.629 165.498 148.575C165.335 148.52 165.158 148.527 165 148.594C164.842 148.661 164.714 148.784 164.64 148.939C164.566 149.094 164.552 149.271 164.599 149.436L165.29 151.084L163.739 151.763C163.169 150.672 162.648 149.545 162.163 148.418C162.092 148.247 161.957 148.112 161.786 148.042C161.616 147.971 161.424 147.971 161.254 148.042C161.083 148.113 160.948 148.248 160.878 148.419C160.807 148.589 160.807 148.781 160.878 148.951C161.363 150.163 161.896 151.23 162.466 152.333L160.321 153.278L159.593 151.545C159.508 151.396 159.37 151.284 159.207 151.229C159.045 151.174 158.867 151.181 158.709 151.248C158.551 151.316 158.423 151.438 158.349 151.593C158.275 151.749 158.261 151.925 158.308 152.09C158.551 152.672 158.805 153.302 159.048 153.848L157.484 154.539L156.733 152.757C156.647 152.608 156.51 152.496 156.347 152.441C156.184 152.386 156.007 152.393 155.849 152.461C155.691 152.528 155.563 152.65 155.489 152.805C155.415 152.961 155.4 153.137 155.448 153.302L156.212 155.108L154.66 155.787C154.066 154.575 153.521 153.472 153.012 152.272C152.926 152.123 152.789 152.011 152.626 151.956C152.463 151.902 152.286 151.909 152.128 151.976C151.97 152.043 151.842 152.166 151.768 152.321C151.694 152.476 151.679 152.653 151.727 152.818C152.236 154.03 152.794 155.242 153.387 156.357L151.351 157.266C151.097 156.66 150.842 156.054 150.576 155.448C150.503 155.279 150.367 155.146 150.196 155.078C150.026 155.01 149.835 155.012 149.666 155.084C149.498 155.157 149.365 155.293 149.296 155.463C149.228 155.634 149.23 155.824 149.303 155.993L150.066 157.811L148.467 158.526C148.472 158.49 148.472 158.453 148.467 158.417L147.691 156.599C147.605 156.45 147.468 156.338 147.305 156.283C147.142 156.229 146.965 156.236 146.807 156.303C146.649 156.37 146.521 156.493 146.447 156.648C146.373 156.803 146.358 156.98 146.406 157.145C146.673 157.751 146.927 158.357 147.182 158.963C147.182 158.963 147.182 159.036 147.254 159.072L145.691 159.763C145.073 158.551 144.479 157.339 143.982 156.127C143.911 155.956 143.776 155.821 143.605 155.75C143.435 155.68 143.243 155.68 143.073 155.751C142.902 155.822 142.767 155.957 142.697 156.128C142.626 156.298 142.626 156.489 142.697 156.66C143.23 157.872 143.8 159.145 144.418 160.296L142.321 161.241C142.079 160.672 141.836 160.114 141.606 159.545C141.521 159.396 141.383 159.283 141.22 159.229C141.058 159.174 140.88 159.181 140.722 159.248C140.564 159.315 140.436 159.438 140.362 159.593C140.288 159.748 140.274 159.925 140.321 160.09L141.049 161.811L139.485 162.514C139.231 161.932 138.988 161.302 138.734 160.757C138.661 160.588 138.525 160.455 138.354 160.387C138.184 160.318 137.993 160.321 137.825 160.393C137.656 160.465 137.523 160.602 137.454 160.772C137.386 160.943 137.389 161.133 137.461 161.302C137.703 161.896 137.958 162.514 138.212 163.096L136.673 163.799C136.079 162.587 135.534 161.472 135.025 160.284C134.939 160.135 134.802 160.023 134.639 159.968C134.476 159.913 134.299 159.92 134.141 159.987C133.983 160.055 133.854 160.177 133.781 160.332C133.707 160.488 133.692 160.664 133.74 160.829C134.249 162.041 134.806 163.254 135.413 164.381L133.219 165.399C133.001 164.902 132.794 164.405 132.588 163.908C132.503 163.759 132.365 163.647 132.203 163.592C132.04 163.537 131.863 163.544 131.704 163.612C131.546 163.679 131.418 163.801 131.344 163.957C131.27 164.112 131.256 164.288 131.304 164.453C131.51 164.963 131.728 165.472 131.946 165.981L130.395 166.708C130.164 166.175 129.946 165.653 129.728 165.12C129.642 164.971 129.505 164.859 129.342 164.804C129.179 164.75 129.002 164.756 128.844 164.824C128.686 164.891 128.558 165.013 128.484 165.169C128.41 165.324 128.396 165.5 128.443 165.666L129.134 167.302L127.595 168.029C127.025 166.926 126.492 165.787 126.007 164.647C125.936 164.477 125.801 164.342 125.63 164.271C125.46 164.201 125.268 164.201 125.098 164.272C124.927 164.342 124.792 164.478 124.722 164.648C124.651 164.819 124.651 165.01 124.722 165.181C125.219 166.393 125.752 167.508 126.346 168.623L124.552 169.471C123.777 167.775 123.013 166.078 122.274 164.356C141.449 155.266 161.145 147.315 180.356 138.297C181.095 139.945 181.798 141.594 182.441 143.279L180.865 144.066Z" fill="#1D2228"/>
<path d="M172.599 134.455C156.393 141.812 140.055 148.879 123.728 155.957C123.579 156.043 123.467 156.18 123.412 156.343C123.358 156.506 123.365 156.683 123.432 156.841C123.499 156.999 123.622 157.127 123.777 157.201C123.932 157.275 124.109 157.289 124.274 157.242C140.6 150.163 156.999 143.097 173.132 135.74C173.956 135.364 173.411 134.079 172.599 134.455Z" fill="#1D2228"/>
<path d="M13.8542 138.758C12.5334 139.141 11.3691 139.935 10.53 141.025C9.69095 142.115 9.2208 143.443 9.18774 144.818C9.15033 146.249 9.03705 147.678 8.84837 149.097C8.61553 150.691 7.9441 152.189 6.90906 153.424C9.17562 153.618 12.2422 151.727 12.8967 149.788C13.1633 148.988 14.3512 149.448 14.2542 150.212C14.1467 151.12 13.956 152.017 13.6845 152.891C14.7814 152.316 15.7434 151.515 16.5068 150.54C17.2701 149.565 17.8173 148.439 18.1119 147.236C18.4065 146.034 18.4419 144.782 18.2156 143.565C17.9893 142.348 17.5066 141.192 16.7995 140.176C16.2307 140.194 15.6661 140.074 15.1533 139.827C14.6406 139.58 14.195 139.214 13.8542 138.758ZM11.7694 147.388C11.927 148.297 10.5574 148.418 10.3513 147.521C10.1774 146.403 10.2546 145.261 10.5775 144.177C10.9004 143.093 11.4608 142.095 12.2179 141.255C12.8239 140.564 13.9148 141.485 13.3088 142.176C12.6797 142.875 12.2149 143.706 11.9485 144.607C11.6822 145.509 11.621 146.459 11.7694 147.388ZM16.5086 143.242C16.2541 144.576 15.9026 145.897 15.6359 147.23C15.5928 147.406 15.4846 147.559 15.3332 147.658C15.1817 147.757 14.9983 147.795 14.8199 147.764C14.6416 147.734 14.4815 147.636 14.372 147.492C14.2625 147.348 14.2117 147.168 14.2299 146.988C14.4966 145.654 14.836 144.345 15.1026 143.012C15.2844 142.103 16.7268 142.333 16.5086 143.242Z" fill="#EFCA0F"/>
<path d="M14.6542 137.497C16.9207 140.164 18.8479 134.31 19.5024 133.061C20.157 131.813 20.8842 130.273 21.5751 128.892L19.2722 127.825C17.7086 131.049 16.1935 134.285 14.6542 137.497Z" fill="#9BE9ED"/>
<path d="M37.235 90.5296C31.1746 102.384 25.5022 114.468 19.8418 126.528L22.169 127.607L22.4599 127.013C24.3749 123.134 26.2698 119.243 28.1445 115.341C30.0191 111.438 31.8938 107.507 33.7685 103.547C34.7502 101.487 35.7199 99.414 36.6895 97.3535L38.1319 94.2749C38.3258 93.8628 38.5076 93.4507 38.7016 93.0628C39.9015 90.5296 38.6773 89.463 37.235 90.5296Z" fill="#FC354D"/>
<path d="M36.338 89.3175L36.2532 89.4266C36.2177 89.4567 36.1889 89.4939 36.1684 89.5357C28.1081 105.159 20.8963 121.183 13.3209 137.049C13.2666 137.157 13.2455 137.28 13.2603 137.4C10.8361 138.358 8.89683 139.582 8.14535 142.321C7.16358 145.957 8.69078 150.442 5.13942 153.048C5.04472 153.123 4.97016 153.22 4.92248 153.331C4.8748 153.442 4.85551 153.563 4.86633 153.684C4.87716 153.804 4.91776 153.92 4.98449 154.02C5.05121 154.121 5.14195 154.203 5.24851 154.26C7.21206 155.302 10.0968 154.503 12.1452 152.939C12.0482 153.181 11.9634 153.424 11.8422 153.666C11.789 153.795 11.7738 153.936 11.7983 154.072C11.8227 154.209 11.8859 154.336 11.9803 154.438C12.0746 154.54 12.1963 154.613 12.3307 154.648C12.4652 154.683 12.6069 154.679 12.7391 154.636C14.2591 154.168 15.6475 153.348 16.7915 152.243C17.9355 151.138 18.803 149.779 19.3237 148.276C19.8443 146.773 20.0034 145.169 19.7881 143.593C19.5727 142.017 18.989 140.514 18.0843 139.206C19.1146 137.994 19.6721 135.897 20.2418 134.758C21.2236 132.806 22.1811 130.843 23.1507 128.892C23.1983 128.81 23.2389 128.725 23.272 128.637C25.7688 123.562 28.2495 118.472 30.7141 113.365C32.4029 109.85 34.0755 106.331 35.732 102.808C37.2956 99.4989 38.7985 96.396 40.6409 92.3234C40.9026 91.7555 40.9563 91.1137 40.7928 90.5101C40.6292 89.9066 40.2588 89.3797 39.7461 89.0216C39.2335 88.6635 38.6114 88.4969 37.9884 88.551C37.3654 88.6051 36.7813 88.8764 36.338 89.3175ZM13.6845 152.733C13.956 151.859 14.1467 150.963 14.2542 150.054C14.3511 149.291 13.1633 148.842 12.8967 149.63C12.2421 151.618 9.17561 153.509 6.90904 153.266C7.91813 152.076 8.58802 150.635 8.84835 149.097C9.03365 147.71 9.14693 146.314 9.18773 144.915C9.22079 143.54 9.69094 142.212 10.53 141.122C11.3691 140.032 12.5334 139.238 13.8542 138.855C14.2065 139.29 14.6571 139.636 15.1692 139.864C15.6812 140.092 16.24 140.194 16.7995 140.164C17.4815 141.176 17.9436 142.319 18.1561 143.521C18.3686 144.723 18.3268 145.956 18.0332 147.14C17.7397 148.325 17.201 149.434 16.4519 150.398C15.7029 151.361 14.7601 152.157 13.6845 152.733ZM19.4661 133.013C18.8479 134.225 16.9207 140.115 14.6178 137.449C16.1571 134.237 17.6722 131.001 19.1994 127.752L21.5023 128.819C20.8478 130.273 20.1691 131.667 19.4661 133.061V133.013ZM38.7016 93.0143C38.5076 93.4143 38.3258 93.8264 38.1319 94.2264L36.6895 97.305C35.7199 99.3655 34.7502 101.438 33.7685 103.499C31.918 107.442 30.0434 111.373 28.1445 115.292C26.2456 119.211 24.3507 123.102 22.4599 126.964L22.169 127.558L19.8418 126.479C25.5022 114.419 31.1262 102.335 37.235 90.4811C38.6773 89.463 39.9015 90.5296 38.7016 93.0507V93.0143Z" fill="#1D2228"/>
<path d="M12.2179 141.254C11.4608 142.095 10.9004 143.093 10.5775 144.177C10.2546 145.261 10.1774 146.403 10.3513 147.521C10.5089 148.418 11.927 148.297 11.7694 147.387C11.621 146.459 11.6822 145.509 11.9485 144.607C12.2149 143.705 12.6797 142.875 13.3088 142.176C13.9148 141.485 12.8239 140.612 12.2179 141.254Z" fill="#1D2228"/>
<path d="M15.1026 143.036C14.836 144.369 14.4966 145.678 14.2299 147.012C14.2117 147.192 14.2625 147.372 14.372 147.516C14.4815 147.66 14.6416 147.758 14.8199 147.788C14.9983 147.819 15.1817 147.781 15.3332 147.682C15.4846 147.583 15.5928 147.43 15.6359 147.254C15.9026 145.921 16.2541 144.6 16.5086 143.266C16.7268 142.333 15.2844 142.103 15.1026 143.036Z" fill="#1D2228"/>
<path d="M153.145 116.019C154.975 114.601 156.781 113.134 158.563 111.656C158.06 111.244 157.59 110.795 157.157 110.31C155.763 112.153 154.418 114.068 153.145 116.019Z" fill="#9BE9ED"/>
<path d="M165.532 96.723C164.32 97.4624 165.702 99.0744 166.26 99.8502C166.975 100.844 169.459 103.486 170.902 102.468C172.344 101.45 169.896 99.1714 169.193 98.4442C168.49 97.7169 166.744 95.9473 165.532 96.723Z" fill="#FC354D"/>
<path d="M165.29 101.244C164.635 100.465 164.111 99.5851 163.738 98.6382C162.139 101.414 162.284 105.644 158.89 106.092C158.066 106.201 157.242 106.238 156.466 106.311C156.701 106.651 156.904 107.012 157.072 107.389C158.284 109.268 160.139 111.304 162.405 111.886C162.284 109.923 162.405 107.995 164.187 106.844C165.751 105.838 167.653 105.135 169.253 104.08C167.698 103.514 166.327 102.534 165.29 101.244Z" fill="#FE4577"/>
<path d="M164.49 95.487L164.393 95.5839C162.429 96.9051 161.217 99.7413 160.49 101.911C160.126 102.965 159.981 104.008 158.83 104.468C158.16 104.605 157.476 104.661 156.793 104.638C156.224 104.638 155.157 104.638 154.733 105.099C153.896 106.105 155.278 107.971 156.09 109.002C153.697 112.162 151.479 115.451 149.448 118.856C149.072 119.51 149.885 120.443 150.563 119.971C153.8 117.656 156.878 115.122 159.933 112.614C160.916 113.208 162.024 113.569 163.169 113.668C163.384 113.668 163.591 113.582 163.743 113.43C163.895 113.278 163.981 113.071 163.981 112.856C163.86 111.147 163.738 109.377 165.12 108.141C165.878 107.608 166.691 107.157 167.544 106.796C169.289 106.066 170.865 104.985 172.174 103.62C174.344 101.729 171.762 98.7717 170.368 97.3536C168.975 95.9354 166.49 93.9234 164.49 95.487ZM153.145 116.019C154.357 114.068 155.763 112.153 157.157 110.286C157.581 110.778 158.043 111.236 158.539 111.656C156.769 113.135 154.975 114.601 153.145 116.019ZM164.054 106.844C162.235 108.056 162.151 109.923 162.272 111.886C160.005 111.304 158.163 109.268 156.939 107.389C156.771 107.012 156.568 106.651 156.333 106.311C157.157 106.238 157.981 106.202 158.757 106.093C162.211 105.644 162.066 101.414 163.605 98.6384C163.978 99.5853 164.502 100.465 165.157 101.244C166.164 102.518 167.495 103.497 169.011 104.081C167.544 105.135 165.641 105.838 164.078 106.844H164.054ZM170.878 102.468C169.435 103.475 166.95 100.844 166.235 99.8504C165.678 99.0747 164.357 97.4263 165.508 96.7233C166.66 96.0203 168.417 97.7293 169.144 98.4444C169.872 99.1595 172.344 101.487 170.902 102.468H170.878Z" fill="#1D2228"/>
<path d="M36.229 140.612C33.8048 143.036 31.3807 145.46 28.9565 147.884L26.1567 150.672C25.9264 150.903 25.6718 151.121 25.4537 151.363L25.6476 151.678C25.6498 151.711 25.6498 151.743 25.6476 151.775C25.9596 152.205 26.304 152.61 26.6779 152.987C26.7076 152.847 26.7746 152.717 26.8718 152.612L35.5987 143.885C35.7477 143.764 35.9359 143.703 36.1271 143.714C36.3184 143.724 36.4991 143.804 36.6345 143.94C36.7699 144.075 36.8504 144.256 36.8606 144.447C36.8708 144.638 36.8098 144.827 36.6895 144.976L27.9627 153.702C27.8767 153.81 27.7638 153.894 27.6354 153.945C28.6657 154.89 29.7929 155.775 30.5807 156.527C32.4715 158.345 34.3624 160.163 36.2411 161.981C36.3595 161.944 36.4862 161.944 36.6047 161.981C39.9864 158.211 43.5135 154.611 47.0891 151.072C43.6839 147.369 40.0572 143.876 36.229 140.612ZM36.4229 154.575L35.8775 154.03C35.7572 153.881 35.6962 153.692 35.7064 153.501C35.7165 153.31 35.7971 153.129 35.9325 152.994C36.0679 152.858 36.2486 152.778 36.4399 152.768C36.6311 152.758 36.8193 152.818 36.9683 152.939L37.5137 153.484C37.6616 153.629 37.746 153.826 37.7482 154.033C37.7505 154.24 37.6705 154.439 37.5259 154.587C37.3812 154.735 37.1837 154.819 36.9769 154.822C36.77 154.824 36.5708 154.744 36.4229 154.599V154.575ZM40.7742 152.405C39.5486 150.992 38.1427 149.745 36.5926 148.697C35.7805 148.139 36.5926 146.794 37.3562 147.351C39.0202 148.477 40.5352 149.809 41.8651 151.315C42.5196 152.078 41.4408 153.169 40.7742 152.43V152.405Z" fill="#FC354D"/>
<path d="M24.8962 153.351C24.2659 154.054 23.4417 154.999 23.2357 155.181C23.5955 155.505 23.9242 155.862 24.2174 156.248C25.4295 157.642 26.7749 158.987 28.0839 160.332C29.393 161.678 30.799 163.132 32.2171 164.465C32.3868 164.623 32.6655 165.023 32.8958 165.096L33.1382 165.181C33.1382 165.181 33.1382 165.181 33.1989 165.181C33.8291 164.962 34.5564 163.969 35.1624 163.144C32.7383 160.841 30.3141 158.551 27.987 156.236C27.1749 155.411 25.878 154.417 24.8962 153.351Z" fill="#FFF250"/>
<path d="M48.2406 141.618C46.8309 140.006 45.2815 138.521 43.6105 137.182C42.3984 136.309 42.2894 136.261 41.0167 137.279C39.9591 138.177 38.9668 139.149 38.0471 140.188C41.4493 143.113 44.6865 146.225 47.7437 149.509C49.0285 148.297 51.4768 146.066 51.3799 145.206C51.2829 144.345 48.8588 142.273 48.2406 141.618Z" fill="#FFF250"/>
<path d="M49.1133 140.297C47.5497 138.649 45.4771 135.825 43.1741 135.049C40.8712 134.273 38.3259 137.473 36.8835 139.158L36.7381 139.024C36.6677 138.96 36.5853 138.911 36.4956 138.879H36.4108C36.2826 138.831 36.1432 138.822 36.0097 138.852C35.8763 138.882 35.7545 138.95 35.6593 139.049C31.7645 142.992 27.8496 146.907 23.9144 150.794C23.8189 150.888 23.7505 151.007 23.7164 151.137C23.6823 151.267 23.6837 151.404 23.7205 151.533C23.7837 151.718 23.8649 151.897 23.9629 152.066C22.7508 153.218 21.2721 154.624 22.0599 156.127C23.0902 158.09 25.4901 159.884 27.0052 161.448C28.5202 163.011 30.2899 165.557 32.217 166.55C33.9382 167.447 35.2109 165.532 36.3502 164.126C36.4704 164.157 36.5965 164.155 36.7157 164.121C36.8349 164.087 36.943 164.022 37.029 163.932C40.7621 159.714 44.7135 155.702 48.7012 151.727C48.8276 151.598 48.9033 151.428 48.9144 151.247C48.9255 151.067 48.8714 150.889 48.7618 150.745C50.3132 149.375 53.2707 146.842 52.9313 144.903C52.6646 143.303 50.095 141.339 49.1133 140.297ZM33.1988 165.157C33.1988 165.157 33.1988 165.157 33.1382 165.157L32.8958 165.072C32.6655 164.999 32.3867 164.599 32.217 164.441C30.7989 163.108 29.4414 161.702 28.0839 160.308C26.7264 158.914 25.478 157.617 24.2174 156.224C23.9242 155.838 23.5955 155.481 23.2356 155.157C23.4417 154.975 24.2659 154.03 24.8962 153.327C25.8779 154.393 27.1748 155.387 27.9869 156.187C30.4111 158.502 32.7746 160.793 35.1624 163.096C34.5563 163.944 33.8291 164.938 33.1988 165.157ZM36.5926 162.029C36.4741 161.993 36.3475 161.993 36.229 162.029C34.3503 160.199 32.4595 158.393 30.5686 156.575C29.7808 155.824 28.6536 154.939 27.6233 153.993C27.7553 153.96 27.8764 153.893 27.9748 153.799L36.7017 145.073C36.822 144.924 36.8829 144.735 36.8728 144.544C36.8626 144.353 36.7821 144.172 36.6467 144.037C36.5112 143.901 36.3305 143.821 36.1393 143.811C35.9481 143.8 35.7598 143.861 35.6108 143.982L26.8839 152.709C26.7868 152.814 26.7198 152.944 26.69 153.084C26.3162 152.707 25.9718 152.302 25.6598 151.872C25.662 151.84 25.662 151.808 25.6598 151.775L25.4658 151.46C25.684 151.218 25.9385 151 26.1688 150.769L28.9687 147.982C31.3928 145.557 33.817 143.133 36.2411 140.709C40.0857 143.968 43.7286 147.457 47.1497 151.157C43.5014 154.66 39.9743 158.26 36.5926 162.029ZM47.7315 149.509C44.6743 146.225 41.4372 143.113 38.035 140.188C38.9546 139.149 39.947 138.177 41.0045 137.279C42.2772 136.261 42.4227 136.309 43.5984 137.182C45.2736 138.521 46.827 140.005 48.2406 141.618C48.8587 142.273 51.3071 144.248 51.392 145.254C51.4768 146.26 49.0163 148.333 47.7315 149.509Z" fill="#1D2228"/>
<path d="M37.332 147.376C36.5199 146.818 35.7563 148.163 36.5684 148.721C38.1185 149.769 39.5244 151.016 40.75 152.43C41.4166 153.169 42.4954 152.078 41.8409 151.339C40.511 149.833 38.996 148.501 37.332 147.376Z" fill="#1D2228"/>
<path d="M36.9683 152.963C36.8194 152.843 36.6311 152.782 36.4399 152.792C36.2487 152.802 36.0679 152.883 35.9325 153.018C35.7971 153.154 35.7166 153.334 35.7064 153.526C35.6963 153.717 35.7572 153.905 35.8775 154.054L36.4229 154.599C36.5719 154.72 36.7601 154.781 36.9514 154.771C37.1426 154.76 37.3233 154.68 37.4587 154.544C37.5942 154.409 37.6747 154.228 37.6849 154.037C37.695 153.846 37.6341 153.658 37.5138 153.509L36.9683 152.963Z" fill="#1D2228"/>
<path d="M61.4642 159.448L60.2522 157.399C59.0444 158.079 57.9621 158.96 57.0523 160.005L58.2644 161.884C58.7109 161.455 59.1803 161.05 59.6704 160.672C60.2474 160.234 60.8461 159.825 61.4642 159.448Z" fill="#FFFEFC"/>
<path d="M86.5904 137.291C84.349 138.598 82.263 140.156 80.3725 141.933C81.1826 142.85 81.8935 143.849 82.4936 144.915C83.2029 145.894 83.8274 146.932 84.3602 148.018C86.6645 146.698 88.8793 145.229 90.9902 143.618C89.8932 141.275 88.4054 139.135 86.5904 137.291ZM82.5057 141.133L85.2329 139.4C85.3686 139.334 85.5238 139.32 85.6692 139.361C85.8145 139.401 85.9401 139.493 86.0221 139.62C86.104 139.747 86.1368 139.899 86.1143 140.048C86.0917 140.198 86.0153 140.333 85.8995 140.43L83.1724 142.212C83.0293 142.3 82.857 142.328 82.6933 142.29C82.5297 142.251 82.3881 142.149 82.2997 142.006C82.2113 141.863 82.1833 141.691 82.222 141.527C82.2606 141.363 82.3627 141.222 82.5057 141.133ZM84.0208 143.194C84.8087 142.66 85.4874 141.982 86.2753 141.448C86.4117 141.371 86.5726 141.348 86.7254 141.384C86.8781 141.421 87.0112 141.514 87.0977 141.645C87.1841 141.776 87.2173 141.936 87.1906 142.09C87.1639 142.245 87.0794 142.384 86.954 142.479C86.1541 143.012 85.4753 143.691 84.6875 144.212C84.6206 144.256 84.5458 144.286 84.4673 144.301C84.3888 144.316 84.3081 144.315 84.2299 144.299C84.0719 144.266 83.9335 144.171 83.8451 144.036C83.7567 143.901 83.7255 143.737 83.7585 143.579C83.7914 143.421 83.8858 143.282 84.0208 143.194ZM87.7782 144.248L85.5723 145.691C85.4373 145.779 85.2727 145.81 85.1147 145.777C84.9567 145.744 84.8183 145.65 84.7299 145.515C84.6415 145.38 84.6103 145.215 84.6433 145.057C84.6762 144.899 84.7706 144.761 84.9056 144.673L87.1116 143.23C87.2466 143.142 87.4112 143.111 87.5692 143.144C87.7272 143.177 87.8656 143.271 87.954 143.406C88.0424 143.541 88.0735 143.706 88.0406 143.863C88.0076 144.021 87.9132 144.16 87.7782 144.248Z" fill="#FFF250"/>
<path d="M60.9673 165.993C61.2582 166.417 61.537 166.853 61.84 167.278C62.8096 168.647 62.5672 168.162 63.852 166.89C64.3126 166.441 64.7853 165.993 65.2701 165.557L63.9975 163.484C63.0399 164.381 61.8642 165.047 60.9673 165.993Z" fill="#FFFEFC"/>
<path d="M59.5491 156.369L58.3371 154.43C57.125 154.963 55.9129 155.569 54.7009 156.163C54.8867 156.527 55.0806 156.878 55.2827 157.217C55.6463 157.799 56.0099 158.43 56.3856 158.963C57.2989 157.939 58.3662 157.064 59.5491 156.369Z" fill="#FFFEFC"/>
<path d="M62.3854 149.096C61.4885 149.557 60.5916 150.018 59.6825 150.466C59.125 150.757 58.4705 151.024 57.8281 151.302C60.6158 155.795 63.4076 160.28 66.2035 164.756C67.561 163.544 68.9791 162.466 70.4336 161.363C67.8882 157.181 64.9187 153.266 62.3854 149.096Z" fill="#9BE9ED"/>
<path d="M56.7251 151.775C55.4948 152.258 54.3302 152.893 53.2585 153.666C53.3554 153.921 53.4858 154.161 53.6464 154.381C53.8259 154.607 53.988 154.846 54.1312 155.096C55.3433 154.527 56.5554 153.884 57.7674 153.387L56.7251 151.775Z" fill="#FFFEFC"/>
<path d="M62.1187 160.502C61.5616 160.874 61.0274 161.279 60.5188 161.714C59.9583 162.106 59.4312 162.544 58.9431 163.023L59.9734 164.599L60.2643 165.023C61.2218 164.114 62.4096 163.435 63.3187 162.466L62.1187 160.502Z" fill="#FFFEFC"/>
<path d="M72.482 143.642C71.5608 144.163 70.6517 144.709 69.7306 145.218C67.6458 146.345 65.5489 147.436 63.4399 148.527C65.9489 152.648 68.8579 156.502 71.379 160.648C72.991 159.435 74.6152 158.223 76.1545 157.108C77.209 156.32 78.4211 155.605 79.5604 154.83C77.6305 150.845 75.2559 147.092 72.482 143.642ZM71.4153 157.581C70.276 154.805 67.9731 152.26 66.2762 149.8C66.2102 149.664 66.1962 149.509 66.2367 149.363C66.2773 149.218 66.3696 149.092 66.4963 149.01C66.6231 148.928 66.7754 148.896 66.9246 148.918C67.0738 148.941 67.2096 149.017 67.3064 149.133C69.0639 151.69 71.3911 154.321 72.5789 157.205C72.8698 157.945 71.7062 158.32 71.4153 157.581ZM75.6939 153.945C74.4811 151.411 73.0665 148.979 71.4638 146.672C71.0154 146.018 72.0456 145.351 72.4941 145.994C74.1463 148.4 75.6053 150.933 76.8575 153.569C77.1848 154.26 76.0212 154.624 75.6939 153.945Z" fill="#039FED"/>
<path d="M77.6695 141.982C76.466 141.937 75.2725 142.217 74.2151 142.794L73.6212 143.073C76.337 146.482 78.6739 150.176 80.5906 154.09C81.0168 153.796 81.4218 153.472 81.8027 153.121C84.445 150.527 83.1966 148.188 81.5239 145.594C80.4936 144.018 79.8997 142.309 77.6695 141.982Z" fill="#9BE9ED"/>
<path d="M87.0268 136.055C86.9186 135.979 86.7894 135.938 86.6571 135.938C86.5248 135.938 86.3957 135.979 86.2874 136.055C83.771 137.508 81.4321 139.249 79.318 141.242C78.1725 140.731 76.8803 140.654 75.6818 141.024C72.6638 141.679 69.9003 143.764 67.1974 145.194C62.2036 147.86 57.1493 150.406 52.0586 152.89C51.9628 152.942 51.8855 153.022 51.8377 153.12C51.7899 153.218 51.7739 153.328 51.792 153.436C52.6768 155.981 55.1737 159.629 56.713 162.005C57.8685 163.799 59.0482 165.577 60.2522 167.338C60.6643 167.944 61.2097 169.132 61.9127 169.471C62.0056 169.522 62.1098 169.549 62.2158 169.549C62.3217 169.549 62.4259 169.522 62.5188 169.471C68.7003 164.72 74.5546 159.557 81.0271 155.169C82.5379 154.229 83.6933 152.813 84.3118 151.145C84.525 150.568 84.6118 149.952 84.5663 149.339C87.1539 147.875 89.6329 146.226 91.9841 144.406C92.115 144.313 92.2063 144.174 92.2399 144.017C92.2736 143.86 92.2472 143.696 92.1659 143.557C90.9558 140.747 89.2103 138.199 87.0268 136.055ZM53.6101 154.381C53.4495 154.161 53.319 153.921 53.2222 153.666C54.3052 152.89 55.4822 152.255 56.7251 151.775L57.7311 153.387C56.519 153.921 55.307 154.527 54.0949 155.096C53.9516 154.846 53.7896 154.607 53.6101 154.381ZM55.2706 157.217C55.0686 156.878 54.8747 156.527 54.6888 156.163C55.9009 155.569 57.113 154.951 58.325 154.43L59.5371 156.369C58.3499 157.063 57.2784 157.938 56.3615 158.963C55.9979 158.381 55.6342 157.799 55.2706 157.217ZM57.0524 160.005C57.941 158.952 59.0026 158.059 60.1916 157.363L61.4037 159.411C60.7792 159.82 60.1764 160.261 59.5977 160.732C59.1076 161.111 58.6382 161.516 58.1917 161.945L57.0524 160.005ZM60.2643 164.926L59.9734 164.502L58.9432 162.926C59.4313 162.447 59.9583 162.009 60.5189 161.617C61.0274 161.182 61.5617 160.777 62.1188 160.405L63.3309 162.308C62.4097 163.375 61.2219 164.054 60.2643 164.963V164.926ZM63.9005 166.853C62.6157 168.065 62.8582 168.611 61.8885 167.241C61.5855 166.817 61.3067 166.381 61.0158 165.956C61.9127 165.011 63.0884 164.344 64.0339 163.447L65.3187 165.52C64.7853 165.993 64.3126 166.441 63.8521 166.89L63.9005 166.853ZM66.2519 164.708C63.4642 160.223 60.6724 155.739 57.8766 151.254C58.5432 150.975 59.1735 150.709 59.731 150.418C60.6401 149.969 61.537 149.509 62.4339 149.048C64.9672 153.23 67.9367 157.145 70.4821 161.314C68.9791 162.429 67.561 163.641 66.2035 164.744L66.2519 164.708ZM76.2394 157.048C74.7001 158.26 73.0759 159.375 71.4638 160.587C68.9427 156.466 66.0338 152.612 63.5248 148.466C65.6338 147.375 67.7307 146.285 69.8154 145.157C70.7366 144.648 71.6456 144.103 72.5668 143.582C75.3392 147.024 77.7138 150.769 79.6453 154.745C78.4575 155.581 77.2454 156.296 76.1909 157.084L76.2394 157.048ZM81.7907 153.084C81.4098 153.436 81.0048 153.76 80.5786 154.054C78.6657 150.14 76.3329 146.446 73.6213 143.036L74.2152 142.758C75.2726 142.181 76.4661 141.9 77.6696 141.945C79.8998 142.273 80.4937 143.982 81.4634 145.582C83.1361 148.188 84.3845 150.527 81.7422 153.121L81.7907 153.084ZM84.4087 147.982C83.8759 146.896 83.2514 145.858 82.5421 144.879C81.9421 143.813 81.2311 142.813 80.421 141.897C82.3115 140.119 84.3975 138.562 86.6389 137.255C88.4539 139.099 89.9418 141.238 91.0387 143.582C88.9132 145.207 86.6821 146.689 84.3602 148.018L84.4087 147.982Z" fill="#1D2228"/>
<path d="M85.2329 139.4L82.5058 141.194C82.3707 141.282 82.2764 141.421 82.2434 141.579C82.2105 141.737 82.2416 141.901 82.33 142.036C82.4184 142.171 82.5568 142.266 82.7148 142.299C82.8728 142.331 83.0374 142.3 83.1724 142.212L85.8995 140.43C86.0153 140.333 86.0917 140.198 86.1143 140.048C86.1369 139.899 86.1041 139.747 86.0221 139.62C85.9401 139.493 85.8146 139.401 85.6692 139.361C85.5238 139.32 85.3687 139.334 85.2329 139.4Z" fill="#1D2228"/>
<path d="M86.2753 141.448C85.4874 141.982 84.8087 142.66 84.0208 143.194C83.8858 143.282 83.7915 143.421 83.7585 143.579C83.7255 143.737 83.7567 143.901 83.8451 144.036C83.9335 144.171 84.0719 144.266 84.2299 144.298C84.3879 144.331 84.5525 144.3 84.6875 144.212C85.4753 143.679 86.1541 143 86.954 142.479C87.0794 142.384 87.164 142.245 87.1906 142.09C87.2173 141.936 87.1841 141.776 87.0977 141.645C87.0113 141.514 86.8782 141.421 86.7254 141.384C86.5727 141.348 86.4117 141.371 86.2753 141.448Z" fill="#1D2228"/>
<path d="M87.1116 143.23L84.9057 144.673C84.7706 144.761 84.6763 144.899 84.6433 145.057C84.6104 145.215 84.6415 145.38 84.7299 145.515C84.8183 145.65 84.9567 145.744 85.1147 145.777C85.2727 145.81 85.4373 145.779 85.5723 145.691L87.7783 144.248C87.9133 144.16 88.0076 144.022 88.0406 143.864C88.0736 143.706 88.0424 143.541 87.954 143.406C87.8656 143.271 87.7272 143.177 87.5692 143.144C87.4112 143.111 87.2466 143.142 87.1116 143.23Z" fill="#1D2228"/>
<path d="M67.3064 149.097C67.2096 148.981 67.0738 148.904 66.9246 148.882C66.7754 148.859 66.623 148.892 66.4963 148.974C66.3696 149.056 66.2773 149.182 66.2367 149.327C66.1962 149.472 66.2102 149.627 66.2762 149.763C67.9731 152.187 70.276 154.769 71.4153 157.545C71.7062 158.272 72.8698 157.896 72.6274 157.169C71.3911 154.333 69.0639 151.703 67.3064 149.097Z" fill="#1D2228"/>
<path d="M72.4819 145.982C72.0334 145.339 71.0032 145.982 71.4517 146.66C73.0543 148.967 74.4689 151.399 75.6818 153.933C76.009 154.624 77.1726 154.26 76.8938 153.557C75.626 150.919 74.1508 148.386 72.4819 145.982Z" fill="#1D2228"/>
<path d="M69.1 120.394C68.5 120.394 67.98 120.234 67.54 119.914C67.14 119.554 66.94 119.114 66.94 118.594V118.354C67.74 117.394 68.54 115.794 69.34 113.554C69.7 112.474 70 111.694 70.24 111.214C72.6 105.974 74.32 101.254 75.4 97.0539C76.48 92.8539 77.02 88.4139 77.02 83.7339C77.02 78.7339 76.06 76.1739 74.14 76.0539C73.5 76.3739 73.06 77.3139 72.82 78.8739C72.74 79.5139 72.54 80.0539 72.22 80.4939C71.9 80.8939 71.5 81.0939 71.02 81.0939C70.06 81.0939 69.58 80.4739 69.58 79.2339C69.58 77.3539 70.14 75.7739 71.26 74.4939C71.86 73.8539 72.58 73.5339 73.42 73.5339V73.4739C74.78 73.4739 75.92 73.7739 76.84 74.3739C77.52 74.7739 78.16 75.5339 78.76 76.6539C79.08 77.2939 79.38 78.3539 79.66 79.8339C79.74 80.5539 79.78 81.2339 79.78 81.8739C79.82 82.4739 79.86 82.9139 79.9 83.1939V84.8139C79.9 87.5339 79.56 90.4939 78.88 93.6939C78.24 96.8539 77.46 99.6739 76.54 102.154C75.5 104.994 74.46 107.694 73.42 110.254C72.18 113.374 71.28 115.774 70.72 117.454C73 117.054 75.36 116.854 77.8 116.854C78.64 117.454 79.06 118.014 79.06 118.534C79.06 119.014 78.8 119.454 78.28 119.854C77.52 119.854 76.44 119.914 75.04 120.034L73.72 120.094C72.04 120.294 70.5 120.394 69.1 120.394ZM91.3464 100.774C90.8264 100.774 90.3664 100.614 89.9664 100.294C89.5664 99.9339 89.3664 99.5139 89.3664 99.0339C89.3664 98.5539 89.8464 98.1339 90.8064 97.7739C92.1664 97.2539 94.5264 96.8939 97.8864 96.6939C99.1664 96.6139 99.9864 96.5739 100.346 96.5739C100.866 96.5739 101.326 96.7539 101.726 97.1139C102.126 97.4339 102.326 97.8339 102.326 98.3139C102.326 98.7939 101.846 99.2139 100.886 99.5739C99.5264 100.094 97.1664 100.454 93.8064 100.654C92.5264 100.734 91.7064 100.774 91.3464 100.774ZM119.304 121.114C118.744 121.114 118.284 120.814 117.924 120.214C117.564 119.614 117.384 118.954 117.384 118.234V118.054C117.584 117.254 117.684 116.534 117.684 115.894C117.684 115.174 117.624 114.194 117.504 112.954C117.344 111.794 117.264 110.814 117.264 110.014V108.694C117.304 108.334 117.324 107.914 117.324 107.434C117.324 106.994 117.284 106.374 117.204 105.574L115.644 105.754C114.844 105.874 114.264 105.934 113.904 105.934C113.144 105.934 112.364 105.614 111.564 104.974C111.564 104.134 111.664 103.354 111.864 102.634C111.664 101.634 111.564 100.514 111.564 99.2739C111.564 98.1139 111.724 96.0539 112.044 93.0939C112.324 90.5339 112.464 88.5139 112.464 87.0339V75.9339C112.464 75.4139 112.604 75.0939 112.884 74.9739C113.084 74.8539 113.324 74.7939 113.604 74.7939C114.124 74.7939 114.544 74.9339 114.864 75.2139C115.224 75.4539 115.404 75.7939 115.404 76.2339C115.404 77.1139 115.364 77.8939 115.284 78.5739L115.164 80.9139V81.4539C115.124 81.6139 115.104 81.7939 115.104 81.9939C115.104 82.3139 115.144 82.6739 115.224 83.0739V83.3139C115.344 84.3139 115.404 85.3739 115.404 86.4939C115.404 88.4539 115.264 90.9939 114.984 94.1139C114.704 97.2339 114.564 99.7739 114.564 101.734C114.564 102.014 114.604 102.474 114.684 103.114C115.604 103.034 116.324 102.914 116.844 102.754C116.844 101.314 116.944 98.4939 117.144 94.2939C117.304 90.9339 117.384 88.1739 117.384 86.0139C117.384 85.6139 117.544 85.2939 117.864 85.0539C118.224 84.7739 118.584 84.6339 118.944 84.6339L119.904 85.7139V88.5939C119.904 93.7939 119.864 98.4339 119.784 102.514C119.824 102.514 119.884 102.514 119.964 102.514C120.084 102.474 120.264 102.454 120.504 102.454C120.784 102.414 121.124 102.394 121.524 102.394C122.724 102.394 123.324 102.814 123.324 103.654C123.324 104.614 122.524 105.094 120.924 105.094C120.244 105.094 119.904 105.274 119.904 105.634C119.904 107.314 119.964 109.274 120.084 111.514C120.204 113.714 120.364 115.014 120.564 115.414C120.484 115.734 120.444 116.114 120.444 116.554C120.444 117.074 120.524 117.474 120.684 117.754V118.834C120.684 119.474 120.564 120.014 120.324 120.454C120.124 120.894 119.784 121.114 119.304 121.114Z" fill="black"/>
<path d="M147.064 35.9225C145.194 38.0625 143.204 40.0925 141.334 42.2225C145.334 45.9325 149.334 49.5425 153.264 53.3025C155.264 51.2525 157.264 49.1525 159.034 46.9225C155.004 43.2825 151.114 39.5325 147.064 35.9225ZM148.004 39.3325C150.664 41.7725 153.324 44.2025 156.004 46.6125C156.734 47.2725 155.704 48.3925 155.004 47.7425C152.314 45.3325 149.654 42.8925 147.004 40.4525C146.89 40.3123 146.829 40.1359 146.833 39.9549C146.837 39.7738 146.905 39.6002 147.026 39.4651C147.146 39.3301 147.311 39.2425 147.49 39.2182C147.67 39.1939 147.852 39.2344 148.004 39.3325ZM153.144 50.2225C150.384 47.7425 147.524 45.3525 144.974 42.6425C144.304 41.9325 145.324 40.8125 145.974 41.5225C148.524 44.2325 151.384 46.6225 154.144 49.1025C154.914 49.7525 153.874 50.8825 153.144 50.2225Z" fill="#FFFEFC"/>
<path d="M172.464 43.8425C172.644 43.6025 173.314 43.1525 173.364 42.8425C173.254 43.5225 169.674 40.2825 169.194 39.8425L148.534 20.8425C147.924 21.5625 147.304 22.2725 146.694 22.9825C147.164 23.3925 147.634 23.8025 148.094 24.2225C148.209 24.3627 148.27 24.5391 148.266 24.7202C148.262 24.9012 148.193 25.0748 148.073 25.2099C147.952 25.345 147.787 25.4325 147.608 25.4568C147.429 25.4812 147.246 25.4406 147.094 25.3425C146.644 24.9325 146.184 24.5425 145.724 24.1425C145.064 24.9125 144.394 25.6725 143.724 26.4425C144.164 26.8225 144.604 27.2025 145.034 27.5925C145.149 27.7327 145.21 27.9091 145.206 28.0902C145.202 28.2712 145.133 28.4448 145.013 28.5799C144.892 28.715 144.727 28.8025 144.548 28.8268C144.369 28.8512 144.186 28.8106 144.034 28.7125C143.614 28.3325 143.174 27.9525 142.744 27.5825L140.744 29.8725L141.914 31.0225C142.634 31.6825 141.604 32.8025 140.914 32.1425C140.514 31.7725 140.104 31.4225 139.694 31.0625L137.694 33.3325C138.104 33.6825 138.504 34.0325 138.894 34.3925C139.624 35.0525 138.584 36.1725 137.894 35.5125C137.504 35.1525 137.114 34.8125 136.714 34.5125L134.654 36.7625C135.054 37.1125 135.454 37.4525 135.834 37.7625C135.941 37.9044 135.995 38.0787 135.988 38.2561C135.981 38.4334 135.913 38.6029 135.796 38.7359C135.678 38.8688 135.518 38.957 135.343 38.9855C135.168 39.0141 134.988 38.9812 134.834 38.8925C134.454 38.5325 134.054 38.1925 133.664 37.8925L131.604 40.1425C131.994 40.4825 132.394 40.8225 132.774 41.1425C132.889 41.2827 132.95 41.4591 132.946 41.6402C132.942 41.8212 132.873 41.9948 132.753 42.1299C132.632 42.265 132.467 42.3525 132.288 42.3768C132.109 42.4012 131.926 42.3606 131.774 42.2625C131.394 41.9125 130.994 41.5725 130.604 41.2625L128.544 43.5025L129.714 44.5025C129.829 44.6427 129.89 44.8191 129.886 45.0002C129.882 45.1812 129.813 45.3548 129.693 45.4899C129.572 45.625 129.407 45.7125 129.228 45.7368C129.049 45.7612 128.866 45.7206 128.714 45.6225C128.324 45.2725 127.934 44.9225 127.534 44.6225L125.464 46.8625C125.864 47.2025 126.264 47.5525 126.654 47.9125C126.769 48.0527 126.83 48.2291 126.826 48.4102C126.822 48.5912 126.753 48.7648 126.633 48.8999C126.512 49.035 126.347 49.1225 126.168 49.1468C125.989 49.1712 125.806 49.1306 125.654 49.0325C125.264 48.6725 124.864 48.3225 124.464 47.9825C123.774 48.7225 123.084 49.4725 122.384 50.2125C122.794 50.5625 123.194 50.9125 123.584 51.2825C124.314 51.9425 123.274 53.0625 122.584 52.4025C122.194 52.0425 121.784 51.6825 121.384 51.3325L119.054 53.5025C119.464 53.8525 119.874 54.2125 120.264 54.5725C120.371 54.7144 120.425 54.8887 120.418 55.0661C120.411 55.2434 120.343 55.4129 120.226 55.5459C120.108 55.6788 119.948 55.767 119.773 55.7955C119.598 55.8241 119.418 55.7912 119.264 55.7025C118.864 55.3325 118.464 54.9825 118.054 54.6225L115.834 57.0225C123.834 64.5625 131.904 72.0225 140.144 79.3325C149.638 68.9725 159.101 58.5859 168.534 48.1725C169.917 46.7968 171.228 45.3516 172.464 43.8425ZM145.594 67.4625C146.394 68.0325 145.354 69.1525 144.594 68.5825C143.436 67.7635 142.384 66.8027 141.464 65.7225C140.834 64.9825 141.864 63.8525 142.464 64.6025C143.389 65.6778 144.44 66.6381 145.594 67.4625ZM139.754 42.8425C139.661 42.7603 139.592 42.655 139.554 42.5373C139.515 42.4195 139.508 42.2937 139.534 42.1725C139.549 42.0221 139.608 41.8795 139.704 41.7625C141.874 39.2125 144.274 36.8725 146.444 34.3325C146.527 34.2268 146.641 34.1491 146.77 34.1098C146.898 34.0705 147.036 34.0714 147.164 34.1125C147.296 34.1395 147.42 34.1978 147.524 34.2825C151.954 38.2025 156.204 42.2825 160.594 46.2825C160.704 46.3736 160.783 46.497 160.819 46.6352C160.854 46.7734 160.846 46.9194 160.794 47.0525V47.1425C160.771 47.2138 160.737 47.2812 160.694 47.3425C158.572 49.9728 156.305 52.4833 153.904 54.8625C153.829 54.9351 153.741 54.9927 153.644 55.0325H153.574C153.45 55.0897 153.311 55.107 153.177 55.0819C153.043 55.0568 152.919 54.9906 152.824 54.8925C148.504 50.8225 144.064 46.8925 139.754 42.8425ZM139.214 74.4125C137.694 72.8525 135.934 71.5525 134.414 70.0025C133.724 69.3025 134.754 68.1725 135.414 68.8725C136.934 70.4325 138.694 71.7325 140.214 73.2925C140.934 74.0225 139.904 75.1125 139.214 74.4125ZM141.984 71.4125C140.724 70.3425 139.434 69.3125 138.154 68.2725C137.394 67.6525 138.424 66.5325 139.154 67.1525C140.434 68.1525 141.734 69.2225 142.984 70.2925C143.764 70.9025 142.734 72.0225 142.004 71.3925L141.984 71.4125Z" fill="#ED6E6E"/>
<path d="M174.544 42.6925L149.004 19.2225C148.892 19.1137 148.749 19.0436 148.594 19.0225C148.469 18.989 148.337 18.993 148.215 19.0339C148.092 19.0748 147.984 19.1508 147.904 19.2525C147.134 20.1725 146.344 21.0825 145.554 21.9925C145.214 21.6825 144.884 21.3625 144.554 20.9925C143.894 20.2625 142.874 21.3925 143.554 22.1125C143.884 22.4625 144.224 22.7925 144.554 23.1125L142.554 25.4025C142.184 25.0625 141.824 24.7225 141.484 24.3425C140.824 23.6225 139.804 24.7525 140.484 25.4725C140.834 25.8525 141.204 26.2025 141.574 26.5525L139.574 28.8325C139.184 28.4725 138.794 28.1125 138.434 27.7125C137.774 26.9925 136.744 28.1125 137.434 28.8325C137.794 29.2325 138.184 29.6025 138.584 29.9725L136.584 32.2425C136.184 31.8625 135.784 31.4925 135.414 31.0825C134.754 30.3625 133.724 31.4825 134.414 32.2025C134.791 32.6124 135.188 33.0029 135.604 33.3725L133.404 35.6825C132.988 35.3129 132.591 34.9224 132.214 34.5125C131.554 33.7825 130.524 34.9125 131.214 35.6325C131.594 36.0457 131.995 36.4396 132.414 36.8125L130.324 39.0225C129.904 38.6425 129.504 38.2525 129.124 37.8425C128.454 37.1125 127.434 38.2425 128.124 38.9625C128.504 39.3725 128.914 39.7625 129.334 40.1425L127.224 42.4225C126.814 42.0425 126.404 41.6625 126.024 41.2425C125.364 40.5225 124.344 41.6525 125.024 42.3725C125.404 42.7825 125.814 43.1625 126.224 43.5425L124.154 45.7825C123.744 45.4025 123.344 45.0225 122.964 44.6125C122.304 43.8925 121.274 45.0125 121.964 45.7325C122.334 46.1425 122.744 46.5225 123.154 46.9025C122.454 47.6425 121.764 48.3925 121.074 49.1325C120.674 48.7625 120.274 48.3925 119.904 47.9825C119.244 47.2525 118.214 48.3825 118.904 49.1025C119.274 49.5125 119.674 49.8825 120.074 50.2525L117.914 52.4925C117.514 52.1225 117.114 51.7525 116.754 51.3525C116.094 50.6225 115.064 51.7525 115.754 52.4725C116.114 52.8725 116.514 53.2425 116.914 53.6125L114.194 56.5225C114.13 56.5887 114.081 56.6671 114.048 56.753C114.015 56.839 114 56.9306 114.004 57.0225C113.999 57.0656 113.999 57.1093 114.004 57.1525C114.024 57.3146 114.102 57.464 114.224 57.5725C122.604 65.5025 131.054 73.3325 139.674 80.9525C139.795 81.0555 139.946 81.1154 140.104 81.1225C140.222 81.1467 140.345 81.1392 140.459 81.1005C140.573 81.0618 140.675 80.9935 140.754 80.9025C152.087 68.5625 163.367 56.1858 174.594 43.7725C174.727 43.6209 174.796 43.4238 174.787 43.2224C174.777 43.0211 174.69 42.8312 174.544 42.6925ZM115.834 57.0225L118.004 54.6225C118.414 54.9825 118.814 55.3325 119.214 55.7025C119.368 55.7912 119.548 55.824 119.723 55.7955C119.898 55.7669 120.058 55.6787 120.176 55.5458C120.293 55.4129 120.361 55.2434 120.368 55.066C120.375 54.8887 120.321 54.7143 120.214 54.5725C119.824 54.2125 119.414 53.8525 119.004 53.5025L121.074 51.2625C121.474 51.6125 121.884 51.9725 122.274 52.3325C122.994 52.9925 124.034 51.8725 123.274 51.2125C122.884 50.8425 122.484 50.4925 122.074 50.1425C122.774 49.4025 123.464 48.6525 124.154 47.9125C124.554 48.2525 124.954 48.6025 125.344 48.9625C125.496 49.0606 125.679 49.1011 125.858 49.0768C126.037 49.0525 126.202 48.9649 126.323 48.8299C126.443 48.6948 126.512 48.5211 126.516 48.3401C126.52 48.1591 126.459 47.9826 126.344 47.8425C125.954 47.4825 125.554 47.1325 125.154 46.7925L127.224 44.5525C127.624 44.8925 128.014 45.2425 128.404 45.5525C128.556 45.6506 128.739 45.6911 128.918 45.6668C129.097 45.6425 129.262 45.5549 129.383 45.4199C129.503 45.2848 129.572 45.1111 129.576 44.9301C129.58 44.7491 129.519 44.5726 129.404 44.4325L128.234 43.4325L130.294 41.1925C130.684 41.5325 131.084 41.8725 131.464 42.1925C131.616 42.2906 131.799 42.3311 131.978 42.3068C132.157 42.2825 132.322 42.1949 132.443 42.0599C132.563 41.9248 132.632 41.7511 132.636 41.5701C132.64 41.3891 132.579 41.2126 132.464 41.0725C132.084 40.7225 131.684 40.3825 131.294 40.0725L133.354 37.8225C133.744 38.1625 134.144 38.5025 134.524 38.8225C134.678 38.9112 134.858 38.944 135.033 38.9155C135.208 38.8869 135.368 38.7987 135.486 38.6658C135.603 38.5329 135.671 38.3634 135.678 38.186C135.685 38.0087 135.631 37.8343 135.524 37.6925C135.144 37.3425 134.744 37.0025 134.344 36.6925L136.404 34.4425C136.804 34.7925 137.194 35.1325 137.584 35.4425C138.304 36.1025 139.344 34.9825 138.584 34.3225C138.194 33.9625 137.794 33.6125 137.384 33.2625L139.384 30.9925C139.794 31.3525 140.204 31.7025 140.604 32.0725C141.334 32.7325 142.364 31.6125 141.604 30.9525L140.364 29.8625L142.364 27.5725C142.794 27.9425 143.234 28.3225 143.654 28.7025C143.806 28.8006 143.989 28.8411 144.168 28.8168C144.347 28.7925 144.512 28.7049 144.633 28.5699C144.753 28.4348 144.822 28.2611 144.826 28.0801C144.83 27.8991 144.769 27.7226 144.654 27.5825C144.224 27.1925 143.784 26.8125 143.344 26.4325C144.014 25.6625 144.684 24.9025 145.344 24.1325C145.804 24.5325 146.264 24.9225 146.714 25.3325C146.866 25.4306 147.049 25.4711 147.228 25.4468C147.407 25.4225 147.572 25.3349 147.693 25.1999C147.813 25.0648 147.882 24.8911 147.886 24.7101C147.89 24.5291 147.829 24.3526 147.714 24.2125C147.254 23.7925 146.784 23.3825 146.314 22.9725C146.924 22.2625 147.544 21.5525 148.154 20.8325L168.814 39.8325C169.294 40.2825 172.874 43.5225 172.984 42.8325C172.984 43.1325 172.264 43.5825 172.084 43.8325C170.848 45.3416 169.537 46.7868 168.154 48.1625C158.967 58.5692 149.631 68.9525 140.144 79.3125C131.904 72.0225 123.824 64.5425 115.834 57.0225Z" fill="#1D2228"/>
<path d="M153.524 55.0725H153.594C153.691 55.0327 153.779 54.975 153.854 54.9025C156.255 52.5233 158.522 50.0128 160.644 47.3825C160.687 47.3212 160.721 47.2538 160.744 47.1825V47.0925C160.796 46.9594 160.804 46.8134 160.769 46.6752C160.733 46.537 160.654 46.4136 160.544 46.3225C156.154 42.3225 151.904 38.2325 147.474 34.3225C147.37 34.2378 147.246 34.1795 147.114 34.1525C146.986 34.1114 146.848 34.1105 146.72 34.1498C146.591 34.1891 146.477 34.2668 146.394 34.3725C144.224 36.9125 141.824 39.2525 139.654 41.8025C139.558 41.9195 139.499 42.0621 139.484 42.2125C139.458 42.3337 139.465 42.4595 139.504 42.5772C139.542 42.6949 139.611 42.8003 139.704 42.8825C144.014 46.9325 148.454 50.8825 152.704 54.9725C152.809 55.08 152.947 55.1485 153.097 55.1667C153.246 55.1848 153.396 55.1516 153.524 55.0725ZM153.264 53.3025C149.344 49.5425 145.264 45.9325 141.334 42.2225C143.204 40.0925 145.194 38.0625 147.064 35.9225C151.064 39.5325 155.064 43.2825 159.064 46.9225C157.224 49.1525 155.284 51.2525 153.264 53.3025Z" fill="#1D2228"/>
<path d="M147.004 40.4525C149.664 42.8925 152.324 45.3325 155.004 47.7425C155.734 48.3925 156.764 47.2725 156.004 46.6125C153.314 44.2025 150.654 41.7725 148.004 39.3325C147.852 39.2344 147.67 39.1939 147.49 39.2182C147.311 39.2425 147.146 39.3301 147.025 39.4651C146.905 39.6002 146.836 39.7739 146.833 39.9549C146.829 40.1359 146.89 40.3124 147.004 40.4525Z" fill="#1D2228"/>
<path d="M154.174 49.1025C151.414 46.6225 148.554 44.2325 146.004 41.5225C145.324 40.8125 144.304 41.9325 145.004 42.6425C147.554 45.3525 150.414 47.7425 153.174 50.2225C153.874 50.8825 154.914 49.7525 154.174 49.1025Z" fill="#1D2228"/>
<path d="M141.434 65.7225C142.354 66.8027 143.406 67.7635 144.564 68.5825C145.354 69.1525 146.394 68.0325 145.564 67.4625C144.41 66.638 143.359 65.6778 142.434 64.6025C141.834 63.8525 140.804 65.0225 141.434 65.7225Z" fill="#1D2228"/>
<path d="M143.004 70.2725C141.754 69.2025 140.454 68.1725 139.174 67.1325C138.414 66.5125 137.384 67.6325 138.174 68.2525C139.454 69.2525 140.744 70.3225 142.004 71.3925C142.734 72.0225 143.764 70.9025 143.004 70.2725Z" fill="#1D2228"/>
<path d="M140.244 73.2925C138.724 71.7325 136.964 70.4325 135.444 68.8725C134.754 68.1725 133.724 69.3025 134.444 70.0025C135.964 71.5525 137.724 72.8525 139.244 74.4125C139.904 75.1125 140.934 74.0225 140.244 73.2925Z" fill="#1D2228"/>
</svg>
