<svg width="174" height="168" viewBox="0 0 174 168" fill="none" xmlns="http://www.w3.org/2000/svg">
<path d="M16.9718 51.5552C15.1534 54.0462 13.5467 57.6831 15.5644 60.0371C16.6854 61.2826 18.6284 61.7932 19.4878 63.2754C20.6585 65.2682 19.1639 67.7218 17.744 69.5029L9.02553 80.7124C7.19162 82.746 5.80796 85.144 4.9652 87.7495C4.31753 90.4024 5.05238 93.6033 7.4562 94.9983C7.85239 95.1995 8.23146 95.4328 8.58961 95.6958C10.5575 97.3399 8.58961 100.441 6.65908 102.123C3.88161 104.526 0.979588 107.217 0.518753 110.854C0.0579167 114.49 4.08089 118.327 7.13237 116.446C9.73547 121.253 3.88161 128.714 8.22841 132.04C9.18021 132.673 10.2773 133.055 11.4169 133.148C22.9378 134.643 33.811 127.045 45.3568 127.045C43.5758 129.474 45.1326 133.185 47.7482 134.643C50.3638 136.1 53.5771 135.888 56.5539 135.502C63.4109 134.527 70.0798 132.515 76.3325 129.536C75.3465 131.903 75.1585 134.526 75.7969 137.009C85.1854 134.848 94.4253 132.085 103.46 128.739C101.865 130.532 103.198 133.634 105.402 134.605C107.607 135.577 110.135 135.054 112.44 134.406C117.469 133.022 122.353 131.158 127.024 128.839C126.501 131.006 125.991 133.16 125.468 135.328C134.494 134.891 143.334 132.604 151.439 128.608C159.545 124.612 166.742 118.993 172.585 112.099C170.829 113.158 168.512 111.302 168.275 109.272C168.039 107.242 169.122 105.324 170.069 103.518C171.016 101.712 171.887 99.6191 171.314 97.6761C170.069 94.0268 164.838 93.8026 162.272 90.938C159.706 88.0733 160.616 83.5397 162.272 80.1021C163.929 76.6645 166.345 73.3017 166.357 69.4655C163.406 70.3498 160.566 67.0741 160.566 63.9853C160.566 60.8965 162.347 58.1314 163.891 55.4661C165.436 52.8007 166.843 49.6745 166.009 46.7475L154.675 45.502C155.771 40.9684 156.858 36.4348 157.938 31.9012C158.493 30.4238 158.493 28.7951 157.938 27.3177C156.842 25.3125 154.102 25.0634 151.81 25.1007C144.042 25.2377 136.288 25.799 128.581 26.7822C128.282 23.735 128.42 20.6606 128.992 17.6526C123.126 15.3858 116.612 17.9142 110.833 20.4052L90.7056 29.1237L93.6948 22.1364C89.4725 20.6294 84.9015 22.7716 80.9284 24.8516L64.0394 33.6324C65.0109 33.1218 65.7457 27.0935 65.8952 26.0099C46.3408 25.6487 28.2935 35.9117 16.9718 51.5552Z" fill="#F2643E" fill-opacity="0.1"/>
<path d="M124.16 1.77244C118.044 2.35782 114.594 6.04451 110.97 10.491C107.345 14.9374 101.143 15.3858 97.1697 19.6703C94.6106 22.4137 92.9255 25.8564 92.3289 29.5603C91.7323 33.2643 92.2511 37.062 93.8193 40.4702C97.1323 47.6941 103.621 50.7456 111.256 51.331C117.731 51.8323 124.188 50.1576 129.603 46.5723C135.018 42.9871 139.082 37.6966 141.148 31.5399C143.066 25.7733 144.885 18.0512 142.22 12.2845C139.068 5.37194 131.483 1.64788 124.16 1.77244ZM107.968 40.1713C107.656 40.881 107.19 41.5125 106.603 42.0204C106.017 42.5282 105.326 42.8998 104.579 43.1082C103.832 43.3167 103.048 43.3569 102.284 43.226C101.52 43.095 100.794 42.7961 100.159 42.3509C99.0129 41.5465 98.2295 40.3234 97.9778 38.9461C97.7261 37.5688 98.0264 36.1477 98.8138 34.99C99.1225 34.3306 99.5696 33.7454 100.125 33.2743C100.68 32.8032 101.33 32.4571 102.031 32.2598C102.732 32.0624 103.467 32.0183 104.186 32.1305C104.905 32.2427 105.592 32.5086 106.2 32.91C108.753 34.3299 109.176 37.6429 108.018 40.1713H107.968ZM106.997 20.8535C107.345 18.3625 110.023 17.4533 111.804 16.295C114.47 14.5762 114.719 11.2383 116.786 8.97144C116.851 8.82852 116.96 8.71048 117.098 8.63515C120.834 6.46798 124.384 8.07468 124.185 12.7827C123.985 17.4907 119.875 22.6221 115.541 24.0669C113.025 24.9139 106.386 25.2875 107.047 20.8535H106.997ZM121.208 43.5217C120.888 44.2317 120.415 44.8621 119.823 45.3674C119.23 45.8728 118.533 46.2405 117.782 46.4442C117.03 46.6479 116.243 46.6824 115.476 46.5453C114.71 46.4083 113.983 46.103 113.349 45.6515C112.203 44.847 111.419 43.624 111.168 42.2467C110.916 40.8694 111.216 39.4483 112.004 38.2906C112.312 37.6312 112.759 37.046 113.315 36.5749C113.87 36.1037 114.52 35.7577 115.221 35.5604C115.921 35.363 116.656 35.3189 117.376 35.4311C118.095 35.5433 118.782 35.8092 119.389 36.2106C121.93 37.6678 122.354 40.9933 121.208 43.5217ZM134.124 35.5505C133.807 36.2618 133.336 36.8937 132.745 37.4003C132.154 37.907 131.458 38.2757 130.706 38.4796C129.955 38.6836 129.168 38.7176 128.402 38.5794C127.635 38.4411 126.91 38.134 126.277 37.6803C125.127 36.8821 124.339 35.662 124.085 34.2856C123.831 32.9092 124.131 31.4881 124.919 30.3318C125.228 29.6724 125.675 29.0872 126.23 28.6161C126.786 28.145 127.436 27.799 128.136 27.6016C128.837 27.4042 129.572 27.3602 130.292 27.4724C131.011 27.5846 131.698 27.8504 132.305 28.2518C134.846 29.7091 135.27 33.0345 134.124 35.5505ZM138.259 20.8784C137.941 21.5901 137.469 22.2221 136.877 22.7288C136.284 23.2354 135.587 23.6041 134.835 23.8079C134.082 24.0118 133.294 24.0458 132.527 23.9075C131.76 23.7692 131.033 23.462 130.4 23.0082C129.255 22.2061 128.471 20.9853 128.22 19.61C127.968 18.2347 128.268 16.8156 129.055 15.6598C129.36 14.9979 129.806 14.41 130.36 13.9363C130.915 13.4627 131.565 13.1146 132.266 12.9158C132.968 12.7171 133.704 12.6724 134.425 12.7848C135.145 12.8973 135.833 13.1642 136.44 13.5673C138.981 15.037 139.405 18.3501 138.259 20.8784Z" fill="#F97D70"/>
<path d="M131.62 29.8961C131.229 29.587 130.773 29.3696 130.286 29.2599C129.8 29.1501 129.295 29.1509 128.809 29.262C128.322 29.3731 127.867 29.5918 127.476 29.902C127.086 30.2122 126.77 30.606 126.551 31.0544C125.617 32.5988 125.306 34.7162 126.9 35.9617C127.305 36.353 127.799 36.6411 128.338 36.8017C128.878 36.9623 129.449 36.9907 130.002 36.8845C130.555 36.7782 131.075 36.5405 131.517 36.1913C131.959 35.8421 132.311 35.3917 132.542 34.8781C133.227 33.2465 133.202 30.9672 131.62 29.8961ZM129.615 35.5756C129.382 35.5409 129.173 35.4151 129.033 35.2259C128.892 35.0367 128.833 34.7996 128.868 34.5667C128.902 34.3339 129.028 34.1243 129.217 33.9841C129.407 33.844 129.644 33.7847 129.877 33.8194C130.11 33.8541 130.319 33.9799 130.459 34.1691C130.599 34.3583 130.659 34.5954 130.624 34.8283C130.589 35.0612 130.463 35.2707 130.274 35.4109C130.085 35.551 129.848 35.6103 129.615 35.5756ZM130.412 33.1842L129.279 32.549C128.282 32.001 128.992 30.3694 130.001 30.9299L131.147 31.5526C132.143 32.1006 131.421 33.7322 130.412 33.1842Z" fill="#FE4577"/>
<path d="M105.515 34.5168C105.126 34.2032 104.671 33.9818 104.184 33.8695C103.698 33.7571 103.192 33.7567 102.705 33.8682C102.218 33.9798 101.763 34.2003 101.374 34.5133C100.984 34.8263 100.671 35.2236 100.458 35.6752C99.5238 37.2071 99.2124 39.3245 100.807 40.5824C101.216 40.9565 101.709 41.2286 102.244 41.3764C102.779 41.5243 103.341 41.5438 103.885 41.4333C104.428 41.3228 104.938 41.0856 105.373 40.7408C105.808 40.396 106.155 39.9534 106.386 39.449C107.134 37.8548 107.096 35.5755 105.515 34.5168ZM102.65 40.0469C102.417 40.0105 102.208 39.8832 102.069 39.6928C101.93 39.5024 101.873 39.2647 101.909 39.0318C101.945 38.7989 102.073 38.59 102.263 38.451C102.453 38.312 102.691 38.2544 102.924 38.2907C103.157 38.3271 103.366 38.4544 103.505 38.6448C103.644 38.8351 103.701 39.0729 103.665 39.3058C103.629 39.5387 103.501 39.7476 103.311 39.8866C103.121 40.0255 102.883 40.0832 102.65 40.0469ZM102.949 36.9954C102.799 36.7954 102.608 36.6298 102.388 36.5096C101.417 35.9118 102.55 34.5293 103.509 35.1271C103.846 35.3432 104.141 35.6174 104.381 35.9367C105.054 36.8335 103.609 37.8922 102.899 36.9954H102.949Z" fill="#C5E507"/>
<path d="M118.704 37.8546C118.314 37.5432 117.858 37.3239 117.371 37.2128C116.884 37.1018 116.378 37.1019 115.891 37.2132C115.404 37.3245 114.948 37.5441 114.558 37.8556C114.167 38.1672 113.852 38.5628 113.635 39.0129C112.701 40.5573 112.39 42.6747 113.984 43.9202C114.393 44.2995 114.886 44.576 115.423 44.7269C115.959 44.8779 116.524 44.8988 117.071 44.788C117.617 44.6773 118.13 44.438 118.565 44.09C119.001 43.742 119.348 43.2953 119.576 42.7868C120.311 41.205 120.286 38.9257 118.704 37.8546ZM116.052 43.4344C115.817 43.3948 115.608 43.2636 115.47 43.0698C115.332 42.8759 115.277 42.6352 115.317 42.4007C115.356 42.1662 115.488 41.957 115.681 41.8192C115.875 41.6813 116.116 41.6262 116.35 41.6658C116.585 41.7055 116.794 41.8367 116.932 42.0305C117.07 42.2244 117.125 42.4651 117.085 42.6996C117.046 42.9341 116.914 43.1433 116.721 43.2811C116.527 43.4189 116.286 43.4741 116.052 43.4344ZM116.45 40.657L115.603 40.2958C115.497 40.2483 115.401 40.1804 115.321 40.0959C115.241 40.0114 115.178 39.912 115.137 39.8033C115.052 39.5837 115.059 39.3397 115.155 39.125C115.251 38.9103 115.428 38.7424 115.647 38.6583C115.867 38.5743 116.111 38.5808 116.326 38.6766L117.173 39.0378C117.387 39.1336 117.555 39.3108 117.639 39.5303C117.723 39.7499 117.717 39.9939 117.621 40.2086C117.525 40.4233 117.348 40.5912 117.128 40.6753C116.909 40.7594 116.665 40.7528 116.45 40.657Z" fill="#FFF250"/>
<path d="M135.755 15.2241C135.366 14.9104 134.91 14.6891 134.422 14.5767C133.935 14.4643 133.428 14.4639 132.94 14.5753C132.452 14.6868 131.996 14.9073 131.606 15.2202C131.215 15.5332 130.901 15.9306 130.686 16.3824C129.752 17.9144 129.441 20.0317 131.035 21.2897C131.445 21.6664 131.938 21.9406 132.474 22.0899C133.011 22.2393 133.575 22.2595 134.12 22.1489C134.666 22.0383 135.177 21.8001 135.613 21.4538C136.049 21.1074 136.396 20.6628 136.627 20.1563C137.362 18.562 137.337 16.2828 135.755 15.2241ZM133.787 20.779H133.675C133.443 20.7427 133.234 20.6153 133.095 20.425C132.956 20.2346 132.898 19.9968 132.934 19.764C132.971 19.5311 133.098 19.3222 133.288 19.1832C133.479 19.0442 133.717 18.9865 133.949 19.0229H134.061C134.294 19.0592 134.503 19.1866 134.642 19.3769C134.781 19.5673 134.839 19.8051 134.803 20.038C134.766 20.2708 134.639 20.4798 134.448 20.6187C134.258 20.7577 134.02 20.8154 133.787 20.779ZM133.974 17.9518L133.339 17.74C132.256 17.3788 132.99 15.7472 134.061 16.1084L134.709 16.3326C135.768 16.6938 135.033 18.3254 133.949 17.9518H133.974Z" fill="#039FED"/>
<path d="M123.948 0.00395606C119.192 0.52115 114.827 2.88209 111.792 6.58021C110.592 8.25251 109.195 9.77462 107.632 11.1138C104.556 13.3059 100.844 14.103 97.8672 16.5691C95.7089 18.3724 93.9372 20.5932 92.6585 23.0983C91.3798 25.6033 90.6206 28.3409 90.4263 31.1467C90.2321 33.9525 90.6068 36.7686 91.528 39.426C92.4493 42.0834 93.898 44.5271 95.7872 46.6106C103.634 55.2046 118.306 54.694 127.959 49.712C138.558 44.2442 143.976 33.3461 145.059 21.7878C146.243 9.10858 136.602 -0.220234 123.948 0.00395606ZM141.161 31.5401C139.094 37.6968 135.031 42.9872 129.616 46.5725C124.201 50.1577 117.744 51.8324 111.269 51.3311C103.684 50.7457 97.1946 47.6942 93.8318 40.4703C92.2636 37.0621 91.7447 33.2644 92.3414 29.5605C92.938 25.8565 94.6231 22.4138 97.1822 19.6704C101.155 15.3859 107.345 14.9375 110.982 10.4911C114.619 6.04464 118.057 2.35796 124.172 1.77257C131.496 1.64802 139.118 5.37207 142.244 12.2846C144.872 18.0513 143.079 25.7734 141.161 31.5401Z" fill="#1D2228"/>
<path d="M136.44 13.5674C135.833 13.1643 135.145 12.8973 134.425 12.7849C133.704 12.6724 132.968 12.7171 132.266 12.9158C131.565 13.1146 130.915 13.4627 130.36 13.9364C129.806 14.41 129.36 14.9979 129.055 15.6598C128.268 16.8156 127.968 18.2347 128.22 19.61C128.471 20.9853 129.255 22.2061 130.4 23.0083C131.033 23.462 131.76 23.7692 132.527 23.9075C133.294 24.0458 134.082 24.0118 134.835 23.8079C135.587 23.6041 136.284 23.2355 136.877 22.7288C137.469 22.2221 137.941 21.5901 138.259 20.8785C139.405 18.3501 138.981 15.0371 136.44 13.5674ZM136.627 20.1561C136.396 20.6626 136.049 21.1072 135.613 21.4536C135.177 21.7999 134.666 22.0381 134.12 22.1487C133.574 22.2593 133.011 22.239 132.474 22.0897C131.938 21.9404 131.445 21.6661 131.035 21.2895C129.49 20.044 129.789 17.9142 130.686 16.3822C130.901 15.9303 131.215 15.533 131.606 15.22C131.996 14.907 132.452 14.6866 132.94 14.5751C133.428 14.4636 133.935 14.4641 134.422 14.5765C134.91 14.6888 135.366 14.9102 135.755 15.2239C137.337 16.2826 137.362 18.5618 136.627 20.1561Z" fill="#1D2228"/>
<path d="M132.305 28.252C131.698 27.8506 131.011 27.5847 130.292 27.4725C129.572 27.3603 128.837 27.4044 128.136 27.6018C127.436 27.7991 126.786 28.1452 126.23 28.6163C125.675 29.0874 125.228 29.6726 124.92 30.332C124.131 31.4883 123.831 32.9094 124.085 34.2858C124.339 35.6621 125.127 36.8823 126.277 37.6805C126.91 38.1342 127.636 38.4413 128.402 38.5795C129.168 38.7178 129.955 38.6837 130.706 38.4798C131.458 38.2759 132.154 37.9072 132.745 37.4005C133.336 36.8939 133.807 36.262 134.124 35.5506C135.27 33.0347 134.846 29.7092 132.305 28.252ZM132.542 34.8781C132.313 35.3866 131.967 35.8333 131.531 36.1813C131.095 36.5293 130.583 36.7686 130.037 36.8793C129.49 36.9901 128.925 36.9691 128.388 36.8182C127.852 36.6673 127.358 36.3908 126.95 36.0115C125.405 34.766 125.704 32.6486 126.601 31.1042C126.819 30.6557 127.136 30.262 127.526 29.9518C127.917 29.6416 128.372 29.4229 128.858 29.3118C129.345 29.2006 129.85 29.1999 130.336 29.3097C130.823 29.4194 131.279 29.6368 131.67 29.9459C133.202 30.9672 133.227 33.2465 132.542 34.8781Z" fill="#1D2228"/>
<path d="M119.389 36.2106C118.782 35.8092 118.095 35.5434 117.376 35.4312C116.657 35.319 115.921 35.363 115.221 35.5604C114.52 35.7578 113.87 36.1038 113.315 36.5749C112.759 37.046 112.312 37.6312 112.004 38.2906C111.216 39.4484 110.916 40.8694 111.168 42.2467C111.419 43.6241 112.203 44.8471 113.349 45.6515C113.983 46.103 114.71 46.4083 115.476 46.5454C116.243 46.6825 117.03 46.6479 117.782 46.4442C118.533 46.2406 119.23 45.8728 119.823 45.3675C120.415 44.8622 120.888 44.2318 121.208 43.5217C122.354 40.9934 121.93 37.6679 119.389 36.2106ZM119.576 42.7869C119.348 43.2954 119.001 43.7421 118.565 44.0901C118.13 44.4381 117.617 44.6774 117.071 44.7881C116.524 44.8989 115.959 44.8779 115.423 44.727C114.886 44.5761 114.393 44.2996 113.984 43.9203C112.44 42.6748 112.739 40.5574 113.635 39.013C113.852 38.5629 114.167 38.1673 114.558 37.8557C114.948 37.5442 115.404 37.3246 115.891 37.2133C116.378 37.102 116.884 37.1019 117.371 37.2129C117.858 37.324 118.314 37.5433 118.704 37.8547C120.286 38.9258 120.311 41.2051 119.576 42.7869Z" fill="#1D2228"/>
<path d="M106.212 32.8603C105.605 32.4589 104.918 32.193 104.198 32.0808C103.479 31.9686 102.744 32.0127 102.043 32.2101C101.342 32.4074 100.692 32.7534 100.137 33.2246C99.582 33.6957 99.1349 34.2809 98.8262 34.9403C98.0219 36.1003 97.7106 37.5319 97.9604 38.9212C98.2102 40.3104 99.0009 41.5439 100.159 42.351C100.792 42.8047 101.517 43.1118 102.283 43.2501C103.05 43.3884 103.837 43.3543 104.588 43.1504C105.34 42.9464 106.036 42.5777 106.627 42.0711C107.218 41.5644 107.689 40.9325 108.006 40.2212C109.176 37.643 108.753 34.33 106.212 32.8603ZM106.386 39.449C106.156 39.9555 105.808 40.4001 105.372 40.7465C104.936 41.0928 104.425 41.331 103.879 41.4416C103.334 41.5522 102.77 41.532 102.233 41.3826C101.697 41.2333 101.204 40.9591 100.794 40.5824C99.2372 39.3369 99.5486 37.2071 100.445 35.6751C100.659 35.2235 100.972 34.8263 101.361 34.5133C101.75 34.2003 102.206 33.9797 102.693 33.8682C103.179 33.7567 103.685 33.7571 104.172 33.8695C104.659 33.9818 105.113 34.2031 105.502 34.5168C107.096 35.5755 107.134 37.8547 106.386 39.449Z" fill="#1D2228"/>
<path d="M124.222 12.7828C124.421 8.07478 120.921 6.46808 117.135 8.63525C116.998 8.71058 116.888 8.82862 116.824 8.97154C114.769 11.2384 114.52 14.5763 111.842 16.2951C110.061 17.4534 107.383 18.3751 107.034 20.8536C106.386 25.2876 113.025 24.914 115.578 24.067C119.913 22.6222 124.023 17.441 124.222 12.7828ZM109.276 20.1686C109.637 19.3341 111.082 18.7238 111.829 18.3253C112.737 17.9159 113.578 17.3699 114.32 16.7061C116.176 14.8254 116.463 11.9857 118.244 10.0427C121.233 8.3737 122.889 10.5533 122.341 13.5301C121.885 15.4224 121.003 17.1858 119.763 18.6865C118.83 20.0345 117.571 21.1242 116.103 21.8538C114.635 22.5834 113.006 22.9292 111.368 22.8589C110.123 22.7343 108.342 22.423 109.313 20.1686H109.276Z" fill="#1D2228"/>
<path d="M134.684 16.3326L134.037 16.1084C132.965 15.7472 132.231 17.3539 133.314 17.74L133.949 17.9518C135.033 18.3254 135.768 16.6938 134.684 16.3326Z" fill="#1D2228"/>
<path d="M134.037 19.0228H133.925C133.692 18.9865 133.454 19.0442 133.263 19.1831C133.073 19.3221 132.946 19.531 132.909 19.7639C132.873 19.9968 132.931 20.2346 133.07 20.4249C133.209 20.6153 133.418 20.7427 133.651 20.779H133.788C134.02 20.812 134.257 20.7512 134.445 20.6099C134.633 20.4686 134.757 20.2583 134.79 20.0255C134.823 19.7926 134.762 19.5561 134.621 19.3681C134.48 19.1801 134.269 19.0559 134.037 19.0228Z" fill="#1D2228"/>
<path d="M131.147 31.5526L130.001 30.9299C128.992 30.3694 128.282 32.001 129.279 32.549L130.412 33.1842C131.421 33.7323 132.143 32.1006 131.147 31.5526Z" fill="#1D2228"/>
<path d="M129.877 33.8195C129.644 33.7848 129.407 33.8441 129.217 33.9842C129.028 34.1244 128.902 34.3339 128.868 34.5668C128.833 34.7997 128.892 35.0368 129.032 35.226C129.173 35.4152 129.382 35.541 129.615 35.5757C129.848 35.6103 130.085 35.5511 130.274 35.411C130.463 35.2708 130.589 35.0612 130.624 34.8284C130.659 34.5955 130.599 34.3584 130.459 34.1692C130.319 33.98 130.11 33.8542 129.877 33.8195Z" fill="#1D2228"/>
<path d="M117.173 39.038L116.35 38.6768C116.244 38.6293 116.13 38.6033 116.013 38.6002C115.897 38.597 115.781 38.6169 115.672 38.6585C115.453 38.7426 115.275 38.9104 115.18 39.1252C115.084 39.3399 115.077 39.5838 115.161 39.8034C115.246 40.023 115.413 40.2001 115.628 40.2959L116.475 40.6571C116.686 40.7285 116.915 40.718 117.118 40.6276C117.322 40.5373 117.483 40.3737 117.571 40.1695C117.659 39.9653 117.667 39.7355 117.593 39.5258C117.519 39.3161 117.369 39.1419 117.173 39.038Z" fill="#1D2228"/>
<path d="M116.35 41.6661C116.125 41.6509 115.903 41.7211 115.727 41.8626C115.552 42.0041 115.436 42.2066 115.403 42.4296C115.37 42.6527 115.422 42.88 115.549 43.0663C115.677 43.2525 115.869 43.3841 116.089 43.4347C116.314 43.4499 116.536 43.3797 116.712 43.2382C116.887 43.0967 117.003 42.8942 117.036 42.6712C117.069 42.4481 117.017 42.2208 116.89 42.0345C116.763 41.8482 116.57 41.7167 116.35 41.6661Z" fill="#1D2228"/>
<path d="M103.46 35.127C102.501 34.5292 101.367 35.9117 102.339 36.5095C102.558 36.6297 102.749 36.7953 102.899 36.9953C103.609 37.892 105.054 36.8334 104.331 35.9366C104.091 35.6172 103.796 35.3431 103.46 35.127Z" fill="#1D2228"/>
<path d="M102.874 38.2908C102.641 38.2611 102.406 38.3251 102.22 38.4687C102.035 38.6124 101.914 38.8239 101.884 39.0568C101.854 39.2897 101.918 39.5248 102.062 39.7105C102.206 39.8962 102.417 40.0173 102.65 40.047C102.765 40.0617 102.882 40.0536 102.995 40.023C103.107 39.9925 103.212 39.9402 103.304 39.8691C103.396 39.7979 103.473 39.7094 103.53 39.6085C103.588 39.5076 103.625 39.3963 103.64 39.281C103.655 39.1657 103.647 39.0486 103.616 38.9364C103.586 38.8243 103.533 38.7192 103.462 38.6273C103.391 38.5353 103.303 38.4583 103.202 38.4006C103.101 38.3428 102.989 38.3055 102.874 38.2908Z" fill="#1D2228"/>
<path d="M152.545 55.7526C148.385 53.5605 143.191 51.8417 139.704 56.0515C136.727 59.6385 138.109 66.3393 140.102 70.1755C143.353 76.403 150.801 77.7357 157.34 77.0257C164.402 76.266 169.097 69.0172 168.973 62.279C168.973 59.24 167.902 55.8647 164.751 54.806C161.226 53.5605 156.717 54.806 153.329 55.9394C153.194 55.9771 153.05 55.9797 152.913 55.9471C152.776 55.9144 152.649 55.8475 152.545 55.7526ZM163.592 68.3197C162.957 69.2538 162.347 70.1755 161.674 71.0971C161.002 72.0188 159.383 71.0971 160.068 70.1506L161.986 67.3855C162.658 66.4016 164.277 67.3357 163.592 68.3197ZM159.457 56.9981C160.285 56.9749 161.106 57.1527 161.849 57.5164C162.593 57.8801 163.238 58.4188 163.727 59.0862C164.217 59.7537 164.538 60.5299 164.662 61.3485C164.786 62.1671 164.71 63.0035 164.439 63.786C163.978 64.8821 162.172 64.3963 162.633 63.2878C162.828 62.7859 162.894 62.2436 162.827 61.7096C162.76 61.1755 162.561 60.6665 162.249 60.2282C161.936 59.7899 161.52 59.4361 161.037 59.1983C160.554 58.9606 160.02 58.8465 159.482 58.8663C158.262 58.966 158.274 57.0977 159.457 56.9981Z" fill="#C5E507"/>
<path d="M171.252 40.7318C167.95 39.3379 164.309 38.9564 160.79 39.6358C157.153 40.5326 156.244 42.6997 155.447 45.4523C158.394 43.8212 161.601 42.7089 164.925 42.1642C166.096 41.9151 166.594 43.7086 165.423 43.9701C161.874 44.7548 158.797 45.39 155.895 47.3205C159.221 48.1301 162.783 48.8899 165.859 47.1586C168.398 45.7665 170.322 43.4733 171.252 40.7318Z" fill="#94BF0C"/>
<path d="M166.843 48.7778C168.433 47.9025 169.824 46.7067 170.929 45.266C172.033 43.8253 172.826 42.1711 173.257 40.4081C173.285 40.2621 173.278 40.1116 173.237 39.9688C173.196 39.826 173.122 39.6949 173.021 39.586C172.916 39.4396 172.774 39.3236 172.61 39.2497C168.288 37.506 162.945 36.547 158.486 38.4028C155.11 39.8227 154.376 42.1393 153.616 44.9915C153.266 44.2022 152.823 43.4578 152.296 42.7745C151.548 41.8279 150.241 43.1606 150.975 44.0947C153.018 46.6729 153.255 50.4468 152.482 53.6228C148.584 51.6799 144.486 50.3721 140.501 52.9004C136.515 55.4288 135.88 59.6137 136.44 64.11C137.001 68.6062 138.931 73.6007 142.905 76.3034C146.429 78.6948 151.623 79.0186 155.771 78.9937C164.576 78.9937 171.003 70.7983 170.854 62.2915C170.667 52.4272 162.222 51.4308 154.413 53.573C154.738 52.0469 154.822 50.4794 154.662 48.9273C158.698 49.8863 163.057 50.9326 166.843 48.7778ZM164.751 54.8061C167.902 55.927 168.923 59.3023 168.973 62.2791C169.097 69.0172 164.402 76.2661 157.34 77.0258C150.801 77.7358 143.353 76.4155 140.102 70.1756C138.109 66.3394 136.727 59.6386 139.704 56.0516C143.191 51.8418 148.422 53.5606 152.545 55.7526C152.655 55.837 152.784 55.8925 152.921 55.9143C153.058 55.936 153.199 55.9233 153.329 55.8772C156.717 54.7313 161.189 53.5606 164.751 54.8061ZM155.933 47.333C158.835 45.4025 161.911 44.7673 165.461 43.9827C166.631 43.7211 166.133 41.9276 164.962 42.1767C161.625 42.7173 158.406 43.8297 155.447 45.4648C156.244 42.7122 157.153 40.4828 160.79 39.6483C164.309 38.9689 167.95 39.3504 171.252 40.7443C170.331 43.4796 168.421 45.7718 165.897 47.1711C162.82 48.8899 159.258 48.1302 155.933 47.333Z" fill="#1D2228"/>
<path d="M159.457 58.8664C159.995 58.8466 160.529 58.9607 161.012 59.1984C161.495 59.4361 161.912 59.79 162.224 60.2283C162.536 60.6666 162.735 61.1756 162.802 61.7096C162.869 62.2436 162.803 62.7859 162.608 63.2879C162.148 64.3964 163.954 64.8821 164.414 63.7861C164.685 63.0035 164.761 62.1671 164.637 61.3486C164.513 60.53 164.192 59.7537 163.703 59.0863C163.213 58.4188 162.568 57.8802 161.825 57.5165C161.081 57.1528 160.26 56.9749 159.432 56.9981C158.274 57.0977 158.262 58.966 159.457 58.8664Z" fill="#1D2228"/>
<path d="M161.986 67.3856L160.068 70.1506C159.383 71.1471 161.002 72.0812 161.674 71.0972C162.347 70.1133 162.92 69.2539 163.592 68.3198C164.265 67.3856 162.658 66.4017 161.986 67.3856Z" fill="#1D2228"/>
<path d="M41.0225 135.378C43.5566 135.791 45.9878 136.688 48.1841 138.018C48.5417 138.246 48.9117 138.454 49.2926 138.641C49.4648 138.346 49.6562 138.063 49.8655 137.794C50.7363 136.483 51.6977 135.234 52.7426 134.057C50.421 132.081 48.5556 129.625 47.2749 126.858C46.2636 128.62 45.0964 130.287 43.7875 131.84C43.09 132.725 42.0936 134.257 41.0225 135.378Z" fill="#8BCFD2"/>
<path d="M51.5844 138.255C52.2473 138.912 52.9685 139.509 53.7391 140.036C54.5237 140.609 55.1465 141.281 55.981 140.522C56.8155 139.762 56.6909 139.102 55.8315 138.379C54.9721 137.657 53.9134 136.935 52.9419 136.225C52.4811 136.872 52.0452 137.57 51.5844 138.255Z" fill="#C5E507"/>
<path d="M17.0964 105.087C16.3491 104.614 15.2157 103.53 14.2566 103.605C13.4844 103.605 12.0646 105.386 11.6535 105.834C10.3333 107.291 8.4526 109.571 8.5896 111.638C16.1747 117.492 23.6726 123.483 31.2079 129.412C33.4374 131.155 35.9657 133.92 38.5688 135.104L38.793 135.203C39.3923 134.701 39.924 134.123 40.3748 133.484C41.8854 131.849 43.2835 130.114 44.5597 128.291C45.0579 127.568 46.4778 126.086 46.3906 125.239C46.1336 125.042 45.8959 124.821 45.6807 124.579C44.3836 123.493 43.0007 122.514 41.5456 121.652C37.4437 118.779 33.317 115.939 29.1653 113.133C25.1672 110.418 21.1443 107.715 17.0964 105.087ZM14.8171 111.551C19.2636 114.752 23.4609 118.289 27.7205 121.714C29.6137 123.246 31.457 124.778 33.4374 126.223C33.6989 126.41 34.7452 127.469 35.1313 127.469C36.3768 127.394 37.7593 124.205 37.8589 123.383C37.8899 123.189 37.9952 123.014 38.1526 122.896C38.31 122.777 38.5072 122.725 38.7027 122.749C38.8981 122.773 39.0765 122.872 39.2002 123.026C39.324 123.179 39.3834 123.374 39.366 123.57C39.1667 125.364 37.3856 128.839 35.343 129.013C34.0352 129.125 32.441 127.456 31.5193 126.746C25.5907 122.125 19.9735 117.081 13.8954 112.759C13.0983 112.174 14.0324 110.978 14.8171 111.551ZM43.8996 125.065C42.0994 127.865 40.0528 130.5 37.7842 132.936C37.1116 133.646 35.9035 132.725 36.5387 132.015C38.8044 129.576 40.8508 126.941 42.6541 124.143C43.2395 123.309 44.4476 124.255 43.8996 125.065Z" fill="#FE4577"/>
<path d="M12.8617 102.683C10.1963 104.39 6.63416 108.687 7.08254 112.087C7.09698 112.17 7.12652 112.25 7.16972 112.323C7.19211 112.358 7.22186 112.388 7.25691 112.411C7.28218 112.458 7.31596 112.5 7.35655 112.535C16.6106 119.659 25.6654 127.008 34.9071 134.157C36.0031 135.004 37.3233 136.573 38.7183 136.648C38.7945 136.735 38.8922 136.8 39.0014 136.837C39.1107 136.874 39.2278 136.882 39.341 136.86C41.3542 136.723 43.3652 137.155 45.1451 138.105C46.3283 138.641 47.7108 139.799 48.9688 140.036C49.7534 140.185 49.8282 140.135 50.4136 139.55L50.6128 139.326C51.5903 140.281 52.6772 141.117 53.8512 141.817C54.3323 142.182 54.9364 142.345 55.5359 142.273C56.1354 142.201 56.6834 141.899 57.0645 141.431C57.5172 141.071 57.8451 140.578 58.0016 140.021C58.1581 139.464 58.1353 138.872 57.9364 138.33C57.5239 137.684 56.9809 137.133 56.3422 136.71C55.5326 136.075 54.6856 135.465 53.8512 134.892C53.9882 134.73 54.1376 134.568 54.2871 134.419C54.3849 134.347 54.4644 134.253 54.5193 134.145C54.5741 134.037 54.6027 133.917 54.6027 133.796C54.6027 133.675 54.5741 133.555 54.5193 133.447C54.4644 133.339 54.3849 133.245 54.2871 133.173C51.4366 130.907 49.2791 127.886 48.0596 124.455C48.0619 124.426 48.0619 124.396 48.0596 124.367C47.9886 124.241 47.8796 124.141 47.7482 124.081C39.3909 117.853 30.5727 112.024 21.8542 106.27C19.3632 104.751 15.826 100.79 12.8617 102.683ZM55.981 140.497C55.1465 141.294 54.5237 140.584 53.7391 140.011C52.9695 139.492 52.2483 138.904 51.5843 138.255C52.0452 137.595 52.4811 136.897 52.9419 136.225C53.9134 136.935 54.9098 137.607 55.8315 138.379C56.7532 139.152 56.8777 139.662 55.981 140.497ZM52.8298 133.97C51.7849 135.147 50.8235 136.396 49.9527 137.707C49.7434 137.976 49.552 138.259 49.3798 138.554C48.9989 138.367 48.6289 138.159 48.2713 137.931C46.075 136.601 43.6438 135.704 41.1097 135.29C42.1808 134.17 43.1772 132.638 43.8996 131.728C45.2085 130.175 46.3757 128.508 47.387 126.746C48.6574 129.52 50.5144 131.984 52.8298 133.97ZM45.6806 124.554C45.8959 124.796 46.1336 125.017 46.3906 125.214C46.4778 126.061 45.0579 127.543 44.5597 128.266C43.2844 130.098 41.8862 131.842 40.3748 133.484C39.9163 134.125 39.3762 134.703 38.7681 135.203L38.5439 135.104C35.9408 133.858 33.4125 131.155 31.183 129.412C23.6477 123.483 16.1498 117.492 8.56469 111.638C8.42768 109.521 10.3084 107.292 11.6286 105.834C12.0396 105.386 13.4595 103.667 14.2317 103.605C15.1908 103.53 16.3242 104.614 17.0715 105.087C21.1193 107.715 25.1423 110.418 29.1404 113.133C33.1384 115.848 37.4105 118.775 41.5207 121.652C42.9835 122.506 44.3747 123.476 45.6806 124.554Z" fill="#1D2228"/>
<path d="M36.6383 132.027C35.9658 132.737 37.1739 133.659 37.8838 132.949C40.1525 130.512 42.199 127.878 43.9992 125.077C44.5473 124.268 43.3391 123.334 42.7537 124.156C40.9504 126.954 38.9041 129.588 36.6383 132.027Z" fill="#1D2228"/>
<path d="M35.3928 128.951C37.4354 128.777 39.2165 125.302 39.4158 123.508C39.4422 123.305 39.3869 123.1 39.2619 122.937C39.1369 122.775 38.9526 122.669 38.7495 122.642C38.5463 122.616 38.341 122.671 38.1786 122.796C38.0163 122.921 37.9103 123.106 37.8838 123.309C37.7842 124.131 36.4017 127.319 35.1562 127.394C34.7701 127.394 33.7239 126.398 33.4623 126.149C31.5193 124.704 29.6386 123.172 27.7454 121.64C23.4858 118.215 19.2885 114.677 14.842 111.477C14.0574 110.904 13.1232 112.099 13.9204 112.722C19.9984 117.094 25.6156 122.088 31.5442 126.647C32.441 127.394 34.0352 129.063 35.3928 128.951Z" fill="#1D2228"/>
<path d="M122.703 140.559C126.792 141.888 130.755 143.576 134.547 145.603L135.93 146.363C137.848 140.31 139.666 134.531 140.227 128.154C140.513 125.027 140.227 123.358 137.449 121.465C135.099 120.031 132.54 118.972 129.864 118.327C123.487 116.334 115.23 112.809 111.692 120.942C109.5 125.924 108.168 131.741 106.71 137.134C107.769 137.134 108.828 137.32 109.812 137.457C114.196 138.087 118.512 139.125 122.703 140.559ZM132.978 140.908C132.602 140.724 132.267 140.465 131.994 140.148C131.892 140.012 131.844 139.843 131.862 139.674C131.879 139.505 131.96 139.349 132.087 139.237C132.215 139.125 132.381 139.065 132.55 139.07C132.72 139.075 132.882 139.144 133.003 139.263C133.2 139.486 133.442 139.664 133.713 139.787C134.485 140.16 133.788 141.269 132.978 140.908ZM134.099 137.657L132.941 137.283C132.81 137.204 132.71 137.084 132.657 136.941C132.604 136.798 132.601 136.641 132.649 136.496C132.697 136.352 132.793 136.227 132.92 136.144C133.048 136.061 133.2 136.023 133.352 136.038L134.51 136.411C134.64 136.49 134.74 136.611 134.793 136.754C134.846 136.897 134.849 137.053 134.801 137.198C134.754 137.343 134.658 137.467 134.53 137.55C134.403 137.634 134.251 137.671 134.099 137.657ZM135.531 128.627L137.287 129.337C138.072 129.661 137.661 130.931 136.864 130.582L135.108 129.872C134.311 129.536 134.722 128.291 135.531 128.627ZM135.12 132.015C135.578 132.161 136.002 132.398 136.366 132.712C137.013 133.26 136.291 134.381 135.631 133.833C135.367 133.593 135.058 133.406 134.722 133.285C134.585 133.21 134.479 133.09 134.421 132.946C134.363 132.801 134.357 132.641 134.404 132.492C134.451 132.344 134.548 132.216 134.679 132.131C134.809 132.047 134.965 132.01 135.12 132.027V132.015ZM121.42 124.542C121.392 124.398 121.41 124.249 121.473 124.117C121.536 123.985 121.639 123.876 121.768 123.807C123.4 123.159 125.081 122.648 126.75 122.15C126.888 122.108 127.036 122.108 127.174 122.15C127.222 122.17 127.268 122.195 127.311 122.225C127.921 122.611 128.432 123.906 128.731 124.405L130.412 127.269C130.488 127.43 130.499 127.614 130.443 127.783C130.388 127.952 130.27 128.094 130.113 128.178C128.585 129.056 126.964 129.762 125.281 130.283C125.146 130.344 124.995 130.361 124.85 130.332C124.705 130.303 124.572 130.229 124.471 130.121C123.137 128.456 122.1 126.572 121.407 124.554L121.42 124.542Z" fill="#FE4577"/>
<path d="M129.005 127.257L128.046 125.613L127.049 123.944C126.959 123.797 126.855 123.66 126.738 123.533C125.492 123.906 124.247 124.305 123.001 124.778C123.613 126.223 124.412 127.58 125.38 128.814C126.626 128.387 127.838 127.867 129.005 127.257Z" fill="#FFF250"/>
<path d="M110.322 115.836C107.968 119.061 106.86 122.985 105.639 126.721C104.419 130.458 103.31 133.883 102.139 137.458C103.169 137.167 104.233 137.021 105.303 137.022C106.548 132.799 107.918 128.639 109.139 124.43C109.949 121.602 110.82 118.551 113.062 116.483C117.82 112.099 125.069 115.425 130.275 117.044C134.435 118.289 141.36 120.145 141.721 125.488C142.232 132.812 139.23 140.285 137.125 147.11C138.127 147.706 139.017 148.473 139.753 149.377C141.584 143.76 143.029 138.018 144.574 132.326C145.719 128.154 146.429 123.508 143.328 119.996C143.091 119.734 142.842 119.472 142.581 119.223C142.498 119.187 142.429 119.126 142.381 119.049C140.081 117.144 137.469 115.652 134.659 114.64L132.467 113.805C132.37 113.812 132.272 113.799 132.18 113.767C132.088 113.735 132.004 113.684 131.932 113.619C124.67 110.991 115.317 108.923 110.322 115.836Z" fill="#039FED"/>
<path d="M139.131 150.884C138.134 148.804 135.195 147.447 133.289 146.438C129.748 144.611 126.066 143.07 122.279 141.829C118.302 140.432 114.209 139.39 110.048 138.716C107.395 138.33 104.157 137.881 101.616 139.015C101.616 139.152 101.529 139.276 101.492 139.401C101.454 139.525 101.355 139.886 101.292 140.123C106.947 139.737 113.199 141.892 118.468 143.523C125.131 145.578 132.268 147.995 138.01 152.105C138.481 151.799 138.866 151.379 139.131 150.884Z" fill="#FFF250"/>
<path d="M118.841 145.068C113.722 143.436 107.507 141.194 101.952 141.431C104.045 143.598 110.036 144.943 112.078 145.715L121.021 149.091C123.886 150.174 126.713 151.395 129.652 152.254C130.898 152.628 132.143 152.939 133.476 153.188C134.167 153.374 134.878 153.475 135.593 153.487C136.038 153.374 136.46 153.184 136.839 152.927C131.496 149.24 124.994 146.973 118.841 145.068Z" fill="#9BE9ED"/>
<path d="M126.439 110.355C126.657 109.234 126.932 108.124 127.261 107.03C127.448 106.228 127.815 105.479 128.332 104.838C129.129 104.128 131.197 104.663 132.143 104.937C135.88 106.046 134.435 109.919 133.302 112.672L134.859 113.27C135.843 111.177 137.586 108.213 136.428 106.096C135.569 104.514 133.152 103.704 131.546 103.231C129.378 102.608 127.049 102.222 126.128 104.701C125.519 106.487 125.101 108.332 124.882 110.206C125.393 110.293 125.891 110.405 126.402 110.517C126.408 110.462 126.42 110.408 126.439 110.355Z" fill="#FFF250"/>
<path d="M95.2392 126.609C95.3509 126.61 95.4599 126.643 95.5528 126.705C95.6458 126.767 95.7186 126.855 95.7623 126.958C96.7414 127.095 97.7077 127.312 98.6518 127.606C98.7153 127.438 98.7694 127.268 98.8138 127.095C99.0823 125.82 99.4573 124.57 99.9347 123.358C100.841 120.384 101.999 117.492 103.397 114.715C104.531 112.56 106.212 109.533 108.965 109.371C109.768 109.337 110.567 109.507 111.286 109.867C112.005 110.226 112.621 110.763 113.075 111.426C114.43 110.649 115.923 110.142 117.471 109.932C116.226 107.441 114.794 104.95 111.767 104.389C109.423 103.885 106.975 104.276 104.904 105.485C101.653 107.79 99.5735 112.485 98.1038 116.022C96.8763 118.885 95.8971 121.848 95.1769 124.878C95.015 125.613 95.1769 126.871 94.7659 126.422C94.8189 126.486 94.882 126.541 94.9527 126.584L95.2392 126.609Z" fill="#9BE9ED"/>
<path d="M148.796 145.728C146.84 151.146 144.262 159.902 137.711 160.674C137.612 160.692 137.511 160.692 137.412 160.674C137.2 161.284 136.988 162.081 136.727 162.891C140.849 163.601 144.412 159.565 146.367 156.389C148.322 153.213 148.983 149.726 150.39 146.425C149.867 146.201 149.331 145.977 148.796 145.728Z" fill="#FFF250"/>
<path d="M150.838 148.804C153.018 150.847 155.185 152.441 154.749 155.617C154.284 158.439 153.601 161.22 152.707 163.937C153.776 163.9 154.842 163.787 155.895 163.601C155.347 161.359 156.057 159.403 156.692 157.112C158.062 152.13 155.559 149.24 151.71 146.749C151.411 147.372 151.137 148.057 150.838 148.804Z" fill="#FFF250"/>
<path d="M138.134 154.446C134.111 156.016 126.14 152.416 123.425 151.395L107.893 145.528C105.789 144.731 102.326 144.021 100.744 142.016C100.358 143.374 99.9472 144.731 99.4988 146.076C98.9281 147.584 98.4742 149.133 98.1412 150.71C98.1779 150.832 98.1779 150.962 98.1412 151.083C98.1161 151.303 98.1161 151.524 98.1412 151.743C98.5273 154.67 103.783 157.61 106.075 159.055C109.132 160.961 112.439 162.432 115.902 163.426C119.754 164.531 123.684 165.339 127.66 165.843C129.814 166.141 133.352 166.278 134.56 164.273C136.176 161.168 137.377 157.864 138.134 154.446ZM124.608 156.377C124.135 157.809 123.662 159.254 123.201 160.686C123.141 160.853 123.02 160.99 122.863 161.071C122.706 161.152 122.524 161.17 122.354 161.122C120.199 160.45 118.044 159.777 115.902 159.067C113.518 158.493 111.204 157.657 109.002 156.576C108.881 156.493 108.789 156.373 108.74 156.234C108.69 156.096 108.686 155.945 108.728 155.804L110.123 151.669C110.173 151.515 110.28 151.385 110.422 151.308C110.567 151.256 110.725 151.256 110.87 151.308C115.292 152.74 119.763 154.035 124.122 155.629C124.283 155.678 124.42 155.783 124.509 155.925C124.598 156.067 124.633 156.236 124.608 156.402V156.377Z" fill="#FE4577"/>
<path d="M143.814 118.812C144.8 119.867 145.581 121.096 146.118 122.437C146.891 122.137 147.728 122.045 148.548 122.169C149.367 122.294 150.14 122.631 150.789 123.147C152.931 124.915 152.495 128.316 152.134 130.744C151.597 134.035 150.764 137.27 149.643 140.409C149.398 141.602 148.978 142.752 148.397 143.822C148.359 143.89 148.326 143.961 148.298 144.034C149.311 144.202 150.281 144.57 151.15 145.117C151.235 145.076 151.329 145.054 151.424 145.054C151.519 145.054 151.613 145.076 151.698 145.117L152.034 145.317C152.034 145.13 152.644 143.972 152.844 143.511C154.12 140.455 155.12 137.291 155.833 134.057C156.655 130.321 157.826 124.853 155.92 121.328C154.621 119.241 152.635 117.673 150.303 116.894C147.949 116.321 145.819 117.654 143.814 118.812Z" fill="#9BE9ED"/>
<path d="M94.3424 127.88C89.7465 127.606 85.9727 128.453 84.1791 133.298C83.3571 135.527 82.7593 137.532 81.0031 139.014C81.7419 139.79 82.537 140.511 83.382 141.169C84.2596 138.457 85.3465 135.817 86.6328 133.273C88.1398 130.42 90.855 130.42 93.8069 130.072C94.0062 129.262 94.193 128.54 94.3424 127.88Z" fill="#FFF250"/>
<path d="M97.7427 147.496C92.8977 142.988 95.6502 134.431 97.2569 128.814C96.6933 128.698 96.1362 128.553 95.588 128.378C94.7286 132.114 93.097 135.527 92.9226 139.388C92.7482 143.013 93.3834 148.107 96.9954 149.938C97.2071 149.078 97.5185 148.281 97.7427 147.496Z" fill="#FFF250"/>
<path d="M111.119 152.703C110.669 153.656 110.334 154.659 110.123 155.692C110.217 155.764 110.329 155.807 110.447 155.816C110.819 155.911 111.178 156.049 111.518 156.227L113.909 157.062C116.649 157.996 119.414 158.868 122.192 159.727C122.516 158.706 122.852 157.697 123.188 156.676C119.165 155.194 115.105 153.998 111.119 152.703Z" fill="#FFF250"/>
<path d="M110.92 151.233C110.775 151.182 110.617 151.182 110.472 151.233C110.33 151.311 110.223 151.44 110.173 151.594L108.828 155.717C108.786 155.858 108.79 156.009 108.839 156.147C108.889 156.286 108.98 156.406 109.102 156.489C111.303 157.57 113.617 158.406 116.002 158.98C118.144 159.69 120.299 160.362 122.453 161.035C122.624 161.083 122.806 161.065 122.963 160.984C123.12 160.903 123.241 160.766 123.3 160.599C123.761 159.167 124.234 157.722 124.708 156.29C124.756 156.12 124.738 155.937 124.657 155.78C124.576 155.623 124.438 155.502 124.272 155.443C119.813 153.961 115.342 152.665 110.92 151.233ZM122.13 159.665C119.352 158.806 116.587 157.934 113.847 157L111.456 156.165C111.116 155.986 110.757 155.848 110.385 155.754C110.294 155.753 110.204 155.732 110.123 155.692C110.359 154.678 110.714 153.695 111.182 152.765C115.18 154.01 119.228 155.256 123.188 156.676C122.79 157.635 122.453 158.644 122.13 159.665Z" fill="#1D2228"/>
<path d="M125.393 130.209C127.076 129.688 128.697 128.982 130.225 128.104C130.382 128.019 130.5 127.878 130.555 127.709C130.611 127.54 130.6 127.356 130.524 127.195L128.806 124.33C128.507 123.832 127.996 122.537 127.386 122.15C127.343 122.121 127.297 122.096 127.249 122.076C127.111 122.033 126.963 122.033 126.825 122.076C125.156 122.574 123.475 123.085 121.843 123.732C121.714 123.801 121.611 123.91 121.548 124.042C121.485 124.174 121.466 124.323 121.494 124.467C122.226 126.48 123.3 128.351 124.67 129.997C124.759 130.097 124.874 130.169 125.001 130.207C125.129 130.244 125.265 130.245 125.393 130.209ZM122.902 124.778C124.147 124.305 125.393 123.907 126.638 123.533C126.755 123.66 126.859 123.797 126.95 123.944L127.946 125.613L128.905 127.257C127.702 127.872 126.453 128.393 125.169 128.814C124.253 127.571 123.504 126.215 122.939 124.778H122.902Z" fill="#1D2228"/>
<path d="M149.979 115.475C147.488 115.014 144.997 116.633 142.855 117.841C140.848 116.132 138.576 114.761 136.129 113.781C137.25 111.29 139.081 108.151 137.661 105.486C136.553 103.406 133.601 102.347 131.433 101.749C129.64 101.313 127.099 100.89 125.742 102.459C124.185 104.29 123.911 107.516 123.599 109.932C122.024 109.706 120.43 109.643 118.841 109.745C117.745 107.491 116.35 104.763 114.046 103.605C112.001 102.829 109.779 102.639 107.632 103.057C102.65 103.829 99.9223 109.01 97.9419 113.133C95.9459 117.093 94.5202 121.316 93.7072 125.675C93.6634 125.952 93.6634 126.233 93.7072 126.51C91.0169 126.385 88.0776 126.584 85.9104 128.166C82.4603 130.657 83.2948 136.013 79.6829 138.329C79.5946 138.379 79.5182 138.448 79.4591 138.53C79.4 138.613 79.3595 138.707 79.3406 138.806C79.3216 138.906 79.3246 139.008 79.3493 139.107C79.374 139.205 79.4198 139.297 79.4836 139.376C80.6229 140.666 81.901 141.828 83.2948 142.838C83.3809 142.895 83.479 142.931 83.5814 142.944C83.6838 142.957 83.7877 142.946 83.8853 142.913C83.9828 142.879 84.0713 142.823 84.1438 142.75C84.2164 142.676 84.2711 142.587 84.3037 142.489C85.051 140.297 85.8979 138.143 86.7947 136.013C87.0981 135.045 87.5162 134.117 88.0402 133.248C89.2857 131.691 91.4653 131.591 93.3585 131.417C91.5276 138.379 89.1611 148.107 96.7213 151.258C96.7167 151.681 96.7841 152.102 96.9206 152.503C98.0665 155.742 102.525 158.407 105.241 160.126C108.545 162.182 112.127 163.755 115.877 164.796C120.054 166.109 124.366 166.945 128.731 167.287C130.425 167.362 133.526 167.287 134.871 166.117C135.432 165.527 135.858 164.821 136.117 164.049C143.889 165.793 147.613 156.663 150.178 150.05C151.548 151.295 153.267 152.64 153.404 154.471C153.335 155.551 153.13 156.618 152.794 157.647C152.271 159.902 151.685 162.143 151 164.348C150.97 164.446 150.962 164.549 150.977 164.651C150.993 164.752 151.03 164.848 151.088 164.933C151.145 165.018 151.221 165.089 151.309 165.141C151.397 165.193 151.496 165.224 151.598 165.232C153.324 165.227 155.044 165.039 156.73 164.672C156.828 164.647 156.919 164.6 156.997 164.536C157.075 164.471 157.138 164.39 157.18 164.298C157.223 164.207 157.245 164.107 157.245 164.005C157.245 163.904 157.222 163.804 157.178 163.713C155.683 159.752 159.47 155.941 158.187 151.881C157.39 149.327 155.123 147.422 152.881 145.939C153.041 145.784 153.179 145.608 153.292 145.416C155.37 141.268 156.758 136.809 157.402 132.214C158.224 127.568 158.859 122.038 155.148 118.514C153.725 117.06 151.941 116.011 149.979 115.475ZM147.264 145.093L147.6 145.205C145.856 150.075 143.552 158.208 137.923 159.266C138.67 157.149 139.38 155.019 140.027 152.864C140.247 152.447 140.399 151.997 140.476 151.532C141.721 147.882 142.743 144.196 143.714 140.472C144.773 136.386 146.392 132.276 146.853 128.017C147.016 126.566 146.919 125.099 146.566 123.682C148.298 122.437 150.564 124.754 151 126.173C151.206 127.289 151.206 128.433 151 129.549C150.709 131.913 150.208 134.247 149.506 136.524C148.756 139.13 147.87 141.695 146.853 144.208C146.787 144.375 146.789 144.561 146.859 144.727C146.929 144.892 147.061 145.024 147.226 145.093H147.264ZM118.468 143.536C113.199 141.904 106.947 139.799 101.292 140.135C101.292 139.899 101.429 139.662 101.492 139.413C101.554 139.164 101.566 139.164 101.616 139.027C104.107 137.894 107.395 138.342 110.048 138.728C114.209 139.402 118.302 140.444 122.279 141.842C126.066 143.082 129.748 144.623 133.289 146.45C135.195 147.459 138.134 148.817 139.131 150.897C138.87 151.401 138.484 151.83 138.01 152.142C132.268 148.007 125.131 145.591 118.468 143.536ZM136.839 152.927C136.46 153.185 136.038 153.374 135.593 153.487C134.878 153.475 134.167 153.374 133.476 153.188C132.231 152.939 130.91 152.628 129.652 152.254C126.713 151.395 123.886 150.174 121.021 149.091L112.116 145.728C110.073 144.956 104.082 143.61 101.99 141.443C107.545 141.207 113.76 143.449 118.879 145.08C124.994 146.973 131.496 149.24 136.839 152.927ZM100.159 138.99C100.159 139.176 100.059 139.351 100.009 139.538C99.9589 139.595 99.9207 139.662 99.8971 139.735C99.8736 139.808 99.8652 139.885 99.8725 139.961C99.3244 141.954 98.7266 143.934 98.1412 145.915C94.5417 141.63 97.1075 133.945 98.5149 129.038L98.8511 129.138C99.0213 129.189 99.2048 129.172 99.3628 129.091C99.5208 129.01 99.6411 128.87 99.6981 128.702C100.357 126.071 101.155 123.476 102.089 120.93C102.828 118.785 103.736 116.703 104.805 114.702C105.293 113.742 105.927 112.864 106.685 112.099C107.931 111.028 111.094 110.057 111.979 112.099C111.717 112.298 111.443 112.485 111.194 112.709C108.454 115.201 106.872 118.837 105.664 122.275C103.721 127.805 102.027 133.435 100.159 138.99ZM106.636 137.009C108.118 131.678 109.45 125.924 111.618 120.818C115.155 112.685 123.412 116.209 129.789 118.202C132.469 118.867 135.029 119.947 137.375 121.403C140.09 123.296 140.438 124.965 140.152 128.091C139.592 134.468 137.773 140.248 135.855 146.301L134.473 145.541C130.681 143.514 126.717 141.826 122.628 140.497C118.433 139.019 114.109 137.939 109.712 137.271C108.803 137.196 107.744 137.072 106.685 137.009H106.636ZM126.078 104.701C126.999 102.21 129.329 102.608 131.496 103.231C133.102 103.705 135.519 104.477 136.378 106.096C137.536 108.213 135.793 111.178 134.809 113.27L133.252 112.672C134.385 109.932 135.867 106.046 132.094 104.938C131.147 104.664 129.079 104.128 128.282 104.838C127.765 105.479 127.399 106.228 127.211 107.03C126.882 108.124 126.607 109.234 126.389 110.355C126.383 110.409 126.383 110.464 126.389 110.517C125.879 110.405 125.38 110.293 124.87 110.206C125.093 108.332 125.514 106.486 126.128 104.701H126.078ZM132.019 112.174C130.636 111.676 129.154 111.202 127.635 110.791C127.888 109.071 128.435 107.406 129.254 105.872C130.499 105.872 132.293 105.872 132.99 106.905C133.962 108.238 132.804 110.642 132.069 112.211L132.019 112.174ZM131.832 113.544C131.904 113.61 131.989 113.66 132.081 113.692C132.173 113.724 132.27 113.737 132.368 113.731L134.56 114.565C137.369 115.578 139.982 117.07 142.282 118.974C142.329 119.051 142.399 119.112 142.481 119.149C142.743 119.398 142.992 119.659 143.228 119.921C146.367 123.433 145.657 128.079 144.474 132.251C142.929 137.943 141.485 143.685 139.654 149.302C138.917 148.399 138.028 147.632 137.026 147.036C139.181 140.21 142.132 132.737 141.622 125.414C141.261 120.07 134.336 118.264 130.176 116.969C124.969 115.35 117.721 111.987 112.963 116.409C110.721 118.476 109.849 121.528 109.039 124.355C107.794 128.565 106.411 132.725 105.203 136.947C104.134 136.946 103.069 137.093 102.04 137.383C103.21 133.808 104.369 130.234 105.539 126.647C106.71 123.06 107.869 118.987 110.223 115.761C115.317 108.923 124.67 110.991 131.882 113.581L131.832 113.544ZM95.1769 124.878C95.8836 121.841 96.8504 118.869 98.0665 115.998C99.5362 112.46 101.616 107.765 104.867 105.461C106.937 104.251 109.385 103.86 111.73 104.365C114.756 104.875 116.176 107.354 117.434 109.907C115.886 110.117 114.393 110.625 113.037 111.402C112.583 110.738 111.968 110.201 111.248 109.842C110.529 109.482 109.731 109.312 108.927 109.347C106.175 109.509 104.493 112.535 103.36 114.69C101.976 117.461 100.83 120.344 99.9347 123.309C99.4573 124.521 99.0823 125.771 98.8138 127.045C98.7694 127.218 98.7153 127.389 98.6519 127.556C97.7078 127.262 96.7414 127.046 95.7623 126.908C95.7186 126.805 95.6458 126.718 95.5529 126.656C95.4599 126.594 95.3509 126.56 95.2392 126.559H94.9901C94.9194 126.516 94.8563 126.461 94.8033 126.398C95.1769 126.871 95.0524 125.613 95.1769 124.878ZM86.6328 133.273C85.3453 135.825 84.2584 138.473 83.382 141.194C82.537 140.536 81.7419 139.815 81.0031 139.039C82.7593 137.557 83.3571 135.552 84.1791 133.323C85.9727 128.478 89.7465 127.631 94.3424 127.905C94.193 128.565 94.0062 129.287 93.8069 130.072C90.855 130.396 88.1398 130.396 86.6328 133.273ZM92.935 139.363C93.1218 135.502 94.741 132.052 95.6004 128.353C96.1486 128.528 96.7057 128.673 97.2694 128.789C95.6627 134.406 92.9101 142.963 97.7551 147.471C97.5309 148.256 97.2195 149.053 97.0203 149.863C93.3959 148.032 92.7606 142.963 92.935 139.338V139.363ZM134.547 164.273C133.302 166.279 129.802 166.142 127.647 165.843C123.672 165.339 119.741 164.531 115.89 163.426C112.427 162.432 109.12 160.961 106.063 159.055C103.771 157.61 98.5149 154.67 98.1288 151.744C98.1037 151.524 98.1037 151.303 98.1288 151.083C98.1655 150.962 98.1655 150.832 98.1288 150.71C98.4787 149.136 98.9492 147.591 99.5362 146.089C99.9347 144.744 100.346 143.386 100.782 142.029C102.363 144.034 105.764 144.744 107.931 145.541L123.462 151.407C126.177 152.429 134.149 156.028 138.172 154.459C137.399 157.879 136.18 161.183 134.547 164.286V164.273ZM146.367 156.339C144.412 159.515 140.849 163.551 136.727 162.841C136.988 162.031 137.2 161.234 137.412 160.624C137.511 160.643 137.612 160.643 137.711 160.624C144.262 159.877 146.84 151.121 148.796 145.678C149.331 145.915 149.867 146.139 150.39 146.313C148.983 149.688 148.285 153.201 146.367 156.352V156.339ZM156.692 157.099C156.057 159.391 155.347 161.346 155.895 163.588C154.841 163.775 153.776 163.887 152.707 163.925C153.601 161.208 154.284 158.426 154.749 155.605C155.185 152.429 153.018 150.834 150.838 148.792C151.137 148.044 151.411 147.359 151.673 146.737C155.559 149.24 158.062 152.13 156.692 157.112V157.099ZM155.833 134.107C155.12 137.341 154.12 140.505 152.844 143.561C152.644 144.021 152.059 145.18 152.034 145.367L151.698 145.167C151.613 145.125 151.519 145.104 151.424 145.104C151.329 145.104 151.235 145.125 151.15 145.167C150.281 144.62 149.311 144.252 148.298 144.084C148.326 144.011 148.359 143.94 148.397 143.872C148.978 142.802 149.398 141.652 149.643 140.459C150.764 137.32 151.597 134.085 152.134 130.794C152.495 128.303 152.931 124.965 150.789 123.197C150.14 122.681 149.367 122.344 148.548 122.219C147.728 122.095 146.891 122.187 146.118 122.487C145.581 121.146 144.8 119.917 143.814 118.862C145.819 117.704 147.949 116.371 150.303 117.006C152.635 117.785 154.621 119.353 155.92 121.44C157.826 124.915 156.655 130.433 155.833 134.12V134.107Z" fill="#1D2228"/>
<path d="M136.864 130.607C137.661 130.931 138.109 129.661 137.287 129.362L135.531 128.652C134.722 128.328 134.286 129.598 135.108 129.897L136.864 130.607Z" fill="#1D2228"/>
<path d="M135.618 133.833C136.279 134.381 137.001 133.26 136.353 132.712C135.989 132.398 135.566 132.161 135.108 132.015C134.956 132 134.804 132.038 134.676 132.121C134.549 132.205 134.453 132.329 134.405 132.474C134.358 132.618 134.36 132.775 134.413 132.918C134.466 133.061 134.566 133.182 134.697 133.26C135.039 133.388 135.353 133.582 135.618 133.833Z" fill="#1D2228"/>
<path d="M133.352 136.013C133.2 135.998 133.048 136.036 132.92 136.119C132.792 136.203 132.697 136.327 132.649 136.472C132.601 136.616 132.604 136.773 132.657 136.916C132.71 137.059 132.81 137.18 132.941 137.258L134.099 137.632C134.251 137.646 134.403 137.609 134.53 137.525C134.658 137.442 134.753 137.318 134.801 137.173C134.849 137.028 134.846 136.872 134.793 136.729C134.74 136.586 134.64 136.465 134.51 136.386L133.352 136.013Z" fill="#1D2228"/>
<path d="M133.003 139.263C132.882 139.144 132.72 139.075 132.55 139.07C132.381 139.065 132.215 139.125 132.087 139.237C131.96 139.349 131.879 139.505 131.862 139.674C131.844 139.843 131.892 140.012 131.994 140.148C132.267 140.465 132.602 140.724 132.978 140.908C133.738 141.269 134.485 140.16 133.713 139.787C133.442 139.664 133.2 139.486 133.003 139.263Z" fill="#1D2228"/>
<path d="M84.3 100.729C83.62 100.729 83.14 100.629 82.86 100.429C82.58 100.229 82.44 99.7893 82.44 99.1093C82.44 98.6693 82.54 98.3693 82.74 98.2093C82.94 98.0493 83.36 97.9693 84 97.9693C84.88 97.9693 85.32 97.6293 85.32 96.9493C85.32 92.9893 85.02 87.1493 84.42 79.4293C83.82 71.6693 83.52 65.9093 83.52 62.1493C83.52 61.7893 83.54 61.4493 83.58 61.1293V59.9893C83.58 58.1093 82.9 57.1693 81.54 57.1693H80.88L80.16 57.2293C79 57.2293 78.42 56.7893 78.42 55.9093C78.42 54.8693 80.04 54.3493 83.28 54.3493C85 54.3493 86.02 54.6893 86.34 55.3693C86.1 56.4493 85.98 57.2893 85.98 57.8893C85.98 58.9693 86.14 60.7893 86.46 63.3493C86.74 65.6293 86.88 67.4693 86.88 68.8693C86.88 71.7093 87.1 76.4293 87.54 83.0293C87.98 88.8693 88.2 93.6293 88.2 97.3093V97.6693C88.36 97.6693 88.58 97.6493 88.86 97.6093C89.14 97.5693 89.42 97.5493 89.7 97.5493C89.86 97.5093 90.1 97.4893 90.42 97.4893C92.1 97.4893 92.94 97.9893 92.94 98.9893C92.94 100.149 90.66 100.729 86.1 100.729H85.14H84.3Z" fill="black"/>
<path d="M31.184 71.8982C32.1037 72.5375 33.4271 71.8982 34.1449 71.1805C33.4047 70.7992 32.1261 70.1823 30.7803 69.4197C30.5693 69.8206 30.4946 70.2793 30.5674 70.7265C30.6403 71.1737 30.8567 71.585 31.184 71.8982Z" fill="#E36451"/>
<path d="M42.3432 52.4513C41.2217 51.8008 39.775 50.9709 39.3039 49.6699C39.2523 49.5158 39.2111 49.3584 39.1805 49.1989C35.4122 50.0849 34.4141 52.8887 32.7093 56.1747C31.7673 57.9692 30.9373 59.5393 29.1541 60.515C28.0326 61.1767 25.1054 62.13 25.7895 63.7338C26.0811 64.4404 27.3372 65.1918 27.9092 65.6292C29.823 67.0951 31.8521 68.4041 33.9767 69.5433C36.0566 70.8293 38.3281 71.7758 40.7058 72.3471C44.9003 73.0761 42.0292 68.4442 42.3208 66.3245C42.5339 64.7432 44.1825 62.8254 44.8891 61.4123C46.134 58.9449 47.5247 55.5915 46.0106 52.9672C45.3986 53.1532 44.7534 53.2033 44.12 53.1142C43.4865 53.0251 42.8802 52.7989 42.3432 52.4513ZM39.7077 68.018C36.13 67.2778 32.8439 65.8647 30.5785 62.9039C30.0513 62.2197 31.2177 61.5581 31.7 62.231C33.7299 64.889 36.8141 66.0666 39.9993 66.7171C40.8853 66.8965 40.5488 68.1975 39.7077 68.018ZM39.4048 64.4516L39.3039 64.2497C38.8329 63.5319 39.988 62.859 40.4254 63.5768L40.5376 63.7338C41.0423 64.4964 39.8871 65.1694 39.4048 64.4516ZM41.5021 62.0067L41.0871 61.8721C40.2796 61.6029 40.6049 60.3019 41.4124 60.5711L41.8273 60.7057C42.6348 60.9412 42.3432 62.2422 41.5021 62.0067ZM42.5563 59.629L41.8946 59.4384C41.7236 59.3952 41.5767 59.2859 41.4863 59.1345C41.3958 58.9831 41.3692 58.8019 41.4124 58.6309C41.4555 58.4598 41.5648 58.3129 41.7162 58.2225C41.8677 58.1321 42.0488 58.1055 42.2199 58.1486L42.8816 58.3281C43.015 58.3988 43.1208 58.5125 43.1818 58.6506C43.2429 58.7888 43.2556 58.9435 43.2181 59.0898C43.1805 59.2361 43.0948 59.3656 42.9748 59.4573C42.8548 59.549 42.7074 59.5976 42.5563 59.5954V59.629ZM43.947 56.6682C43.3184 56.5777 42.7109 56.3764 42.1526 56.0738C42.0476 55.9682 41.9807 55.8308 41.9622 55.6831C41.9436 55.5354 41.9746 55.3857 42.0503 55.2575C42.1259 55.1293 42.242 55.0297 42.3802 54.9745C42.5185 54.9193 42.6711 54.9115 42.8143 54.9523C43.2679 55.1938 43.7622 55.3497 44.2723 55.4121C45.1246 55.4457 44.7882 56.7467 43.947 56.6346V56.6682Z" fill="#EFCA0F"/>
<path d="M50.6874 34.1816C50.93 34.2516 51.1663 34.3416 51.3939 34.4508C51.7601 34.6321 52.1092 34.8461 52.437 35.09C52.5239 34.8062 52.573 34.512 52.5828 34.2153C52.5828 33.9237 52.5828 33.161 52.1678 33.0937C51.7528 33.0264 51.0799 33.6208 50.6874 34.1816Z" fill="#9BE9ED"/>
<path d="M40.8516 48.0325C39.517 49.2437 41.8386 50.612 42.7919 51.1727C43.2478 51.4839 43.7573 51.7082 44.2947 51.8344C44.8138 51.9061 45.3426 51.8444 45.8312 51.655L45.9433 51.5765C46.0145 51.5379 46.0758 51.4834 46.1224 51.4172C46.1691 51.3511 46.1999 51.2751 46.2125 51.1952C44.3263 50.3191 42.5307 49.2597 40.8516 48.0325Z" fill="#9BE9ED"/>
<path d="M44.8442 42.3238C44.1544 44.0908 43.1429 45.7145 41.861 47.1127C43.3106 48.1392 44.8409 49.0468 46.4368 49.8268C48.0069 45.8454 55.9249 38.2975 50.7434 35.6171C47.1097 33.9684 45.7751 40.1705 44.8442 42.3238Z" fill="#E36451"/>
<path d="M52.5155 31.7814C51.2481 31.4337 49.8126 32.802 49.2518 34.0244C48.3852 34.0668 47.5655 34.4307 46.9527 35.045C43.6554 38.1741 43.8685 43.5686 40.3918 46.7537C39.9689 47.0396 39.6224 47.4247 39.3824 47.8753C35.4122 48.5257 33.9094 50.6791 32.2159 54.1446C31.3747 55.8829 30.5448 58.0138 28.9522 59.1914C27.6513 60.156 26.0026 60.4139 24.9484 61.7822C23.0755 64.1598 26.3054 66.8066 29.5579 68.7356C28.9522 70.216 29.0756 72.1899 30.5448 73.0759C32.014 73.9619 34.2795 73.1656 35.3786 71.7749C38.945 73.4909 45.2929 75.8349 44.4517 69.7674C44.2835 68.6459 43.5545 67.3786 43.7676 66.2795C44.0355 65.585 44.3938 64.9289 44.833 64.328C45.6697 62.8287 46.4186 61.2822 47.0761 59.6961C48.0182 57.3409 48.4443 54.4698 47.0761 52.2268C47.2598 52.0403 47.3972 51.8132 47.4771 51.5638C47.5569 51.3144 47.5771 51.0498 47.5359 50.7912C48.3658 46.8098 56.1492 40.2713 53.4239 36.1441C54.108 34.7534 54.2763 32.2636 52.5155 31.7814ZM31.2065 71.8983C30.8718 71.5905 30.6469 71.1818 30.5659 70.7344C30.4849 70.287 30.5523 69.8253 30.7579 69.4197C32.1486 70.1824 33.4271 70.7992 34.1225 71.1805C33.371 71.9544 32.1037 72.5376 31.1841 71.8983H31.2065ZM44.8891 61.4121C44.1825 62.8252 42.5339 64.7766 42.3208 66.3243C42.0292 68.444 44.9003 73.0535 40.7058 72.3469C38.3281 71.7756 36.0566 70.8291 33.9767 69.5431C31.8521 68.4039 29.823 67.0949 27.9092 65.629C27.3372 65.1916 26.0811 64.4402 25.7895 63.7336C25.1278 62.1298 28.0326 61.1765 29.1541 60.5148C30.9373 59.5279 31.7673 57.969 32.7094 56.1745C34.4141 52.8885 35.4122 50.0847 39.1805 49.1987C39.2111 49.3582 39.2523 49.5156 39.3039 49.6697C39.775 50.9707 41.1993 51.8006 42.3432 52.4511C42.883 52.802 43.4932 53.0301 44.1308 53.1192C44.7684 53.2084 45.4178 53.1564 46.0331 52.967C47.5023 55.5914 46.1116 58.9447 44.8667 61.4121H44.8891ZM46.0106 51.5763L45.8985 51.6548C45.4099 51.8442 44.8811 51.9059 44.362 51.8342C43.8246 51.708 43.3151 51.4837 42.8591 51.1725C41.9058 50.6118 39.5843 49.2435 40.9189 48.0323C42.598 49.2595 44.3936 50.3189 46.2798 51.195C46.2604 51.2818 46.2194 51.3622 46.1606 51.4289C46.1018 51.4956 46.027 51.5463 45.9433 51.5763H46.0106ZM46.5041 49.8267C44.9082 49.0467 43.378 48.1391 41.9283 47.1126C43.2102 45.7145 44.2217 44.0907 44.9115 42.3237C45.8424 40.1704 47.1546 33.9571 50.8108 35.5946C55.9249 38.2974 48.0069 45.8453 46.4368 49.8267H46.5041ZM52.5715 34.2263C52.5644 34.5188 52.5192 34.8091 52.437 35.0899C52.1132 34.8426 51.7679 34.6249 51.4052 34.4394C51.1775 34.3302 50.9412 34.2402 50.6986 34.1702C51.0911 33.6095 51.7416 32.9253 52.1678 33.0487C52.594 33.1721 52.5715 33.9684 52.5715 34.2263Z" fill="#1D2228"/>
<path d="M40.0329 66.717C36.8478 66.0665 33.7636 64.8889 31.7336 62.2309C31.2177 61.558 30.0514 62.2309 30.6121 62.9038C32.8552 65.8646 36.2197 67.2777 39.7413 68.0179C40.5488 68.1974 40.8853 66.8964 40.0329 66.717Z" fill="#1D2228"/>
<path d="M44.2722 55.3334C43.7621 55.271 43.2679 55.1151 42.8143 54.8735C42.6711 54.8327 42.5184 54.8406 42.3802 54.8958C42.2419 54.951 42.1259 55.0505 42.0503 55.1788C41.9746 55.307 41.9436 55.4567 41.9621 55.6044C41.9806 55.7521 42.0476 55.8895 42.1526 55.9951C42.7109 56.2977 43.3184 56.499 43.947 56.5895C44.7881 56.7465 45.1246 55.4455 44.2722 55.3334Z" fill="#1D2228"/>
<path d="M42.8816 58.2942L42.2199 58.1148C42.0489 58.0717 41.8677 58.0982 41.7163 58.1887C41.5648 58.2791 41.4555 58.426 41.4124 58.597C41.3693 58.7681 41.3959 58.9492 41.4863 59.1007C41.5767 59.2521 41.7236 59.3614 41.8947 59.4045L42.5564 59.5952C42.7228 59.6221 42.8933 59.5856 43.0341 59.4928C43.1749 59.4 43.2757 59.2577 43.3166 59.0941C43.3575 58.9305 43.3355 58.7576 43.2549 58.6094C43.1744 58.4613 43.0411 58.3488 42.8816 58.2942Z" fill="#1D2228"/>
<path d="M41.4123 60.5373C40.6049 60.2681 40.2908 61.5691 41.0871 61.8383L41.5021 61.9729C42.3096 62.242 42.6236 60.9411 41.8273 60.6719L41.4123 60.5373Z" fill="#1D2228"/>
<path d="M40.4591 63.6214C39.988 62.9037 38.8329 63.6214 39.3376 64.2944L39.4385 64.4514C39.9208 65.1692 41.0759 64.4514 40.56 63.7785L40.4591 63.6214Z" fill="#1D2228"/>
</svg>
