<svg width="60" height="60" viewBox="0 0 60 60" fill="none" xmlns="http://www.w3.org/2000/svg">
<g filter="url(#filter0_d)">
<path d="M30 46C29.8863 46 29.7829 45.9647 29.7001 45.8942L27.1151 43.6009C26.96 43.4598 26.96 43.2393 27.1254 43.0982C27.2908 42.9658 27.5494 42.9658 27.7148 43.107L30 45.1356L32.2852 43.107C32.4403 42.9658 32.7092 42.9658 32.8746 43.0982C33.04 43.2305 33.04 43.4598 32.8849 43.6009L30.2999 45.8942C30.2172 45.9647 30.1137 46 30 46Z" fill="white"/>
<path d="M30 17C25.5887 17 22 20.8503 22 25.5828V32.4175C22 37.1499 25.5887 41 30 41C34.411 41 38 37.1616 38 32.4437V25.5828C38 20.8503 34.411 17 30 17ZM36.4953 32.4437C36.4953 36.2853 33.5817 39.4106 30 39.4106C26.4186 39.4106 23.5047 36.2734 23.5047 32.4172V25.5828C23.5047 21.7266 26.4186 18.5894 30 18.5894C33.5817 18.5894 36.4953 21.7266 36.4953 25.5828V32.4437Z" fill="white"/>
<path d="M30 23.3644C29.601 23.3644 29.2775 23.7091 29.2775 24.1344V26.829C29.2775 27.2543 29.601 27.5989 30 27.5989C30.399 27.5989 30.7225 27.2543 30.7225 26.829V24.1344C30.7225 23.7091 30.399 23.3644 30 23.3644Z" fill="white"/>
</g>
<defs>
<filter id="filter0_d" x="18" y="17" width="24" height="37" filterUnits="userSpaceOnUse" color-interpolation-filters="sRGB">
<feFlood flood-opacity="0" result="BackgroundImageFix"/>
<feColorMatrix in="SourceAlpha" type="matrix" values="0 0 0 0 0 0 0 0 0 0 0 0 0 0 0 0 0 0 127 0"/>
<feOffset dy="4"/>
<feGaussianBlur stdDeviation="2"/>
<feColorMatrix type="matrix" values="0 0 0 0 0 0 0 0 0 0 0 0 0 0 0 0 0 0 0.25 0"/>
<feBlend mode="normal" in2="BackgroundImageFix" result="effect1_dropShadow"/>
<feBlend mode="normal" in="SourceGraphic" in2="effect1_dropShadow" result="shape"/>
</filter>
</defs>
</svg>
