<svg width="184" height="175" viewBox="0 0 184 175" fill="none" xmlns="http://www.w3.org/2000/svg">
<path d="M17.9097 84.3407L24.5253 84.101L11.8694 133.946C11.7261 134.377 11.6978 134.838 11.7875 135.284C11.8771 135.73 12.0815 136.145 12.3805 136.487C12.6795 136.83 13.0627 137.088 13.4922 137.237C13.9217 137.386 14.3827 137.421 14.8297 137.337C18.2398 136.327 21.4056 134.626 24.1298 132.34L19.7913 161.498C19.276 164.902 22.4519 167.491 25.2084 165.933C31.709 162.065 37.4052 156.983 41.987 150.964L43.4012 165.585C43.7608 169.336 47.7996 171.05 50.2925 168.497L63.0682 155.458C64.0294 154.726 65.1927 154.308 66.3999 154.26C72.8837 154.26 70.9541 166.484 77.5098 165.969C78.6926 165.829 79.79 165.283 80.6138 164.423L104.463 141.064C103.777 149.884 102.577 158.656 100.868 167.335C100.125 171.122 104.116 173.843 106.753 171.326C110.708 167.576 114.446 163.603 117.946 159.425C116.532 163.272 120.271 167.563 123.939 167.491C127.606 167.419 130.746 164.531 133.287 161.498C135.827 158.466 138.2 155.075 141.568 153.397C141.568 155.985 141.76 158.574 142.024 161.139C142.287 163.704 145.152 165.01 146.913 163.2C158.335 151.423 168.061 138.112 175.809 123.651C173.28 124.502 172.477 119.899 173.088 116.999L178.517 91.1001L171.087 91.5555C173.396 81.7058 176.347 72.0175 179.919 62.5525C180.818 60.1555 178.996 57.5069 176.707 57.9743C174.122 58.4966 171.674 59.5495 169.517 61.0664L174.694 37.0011C175.389 33.7532 172.297 31.1525 169.672 32.8424L150.736 45.2945L152.966 21.6846C153.258 20.1495 153.096 18.5624 152.498 17.1184C151.072 14.5656 147.704 15.1409 145.2 16.1956C136.639 19.8774 128.978 25.3682 122.74 32.2911L123.136 21.5048C123.232 19.1079 121.038 17.5379 119.229 18.6285C112.445 22.7033 105.89 31.4042 100.796 36.8453C100.556 35.5149 100.425 29.4507 100.233 25.7594C100.244 25.4863 100.182 25.2151 100.053 24.9743C99.9233 24.7335 99.7314 24.5321 99.4972 24.3911C99.263 24.2501 98.9952 24.1747 98.7219 24.173C98.4485 24.1712 98.1797 24.2431 97.9437 24.3811C91.3888 29.0311 85.7424 34.844 81.285 41.5313L82.2557 25.1002C82.4715 21.4449 79.2955 18.7243 76.1915 19.8869C69.5433 22.4318 63.6359 26.5967 59.0054 32.0034C58.8601 26.9821 59.6067 21.9748 61.2105 17.2143C61.2105 14.0024 45.6304 25.1362 44.7795 26.1908C46.5293 6.36809 36.546 20.8576 31.9558 30.2776C24.5133 45.5462 19.3359 63.1637 14.9016 80.0142C14.7465 80.4996 14.7052 81.0141 14.781 81.5179C14.8567 82.0217 15.0473 82.5014 15.3382 82.9197C15.629 83.338 16.0123 83.6837 16.4582 83.9302C16.9041 84.1766 17.4008 84.3171 17.9097 84.3407Z" fill="#F2643E" fill-opacity="0.1"/>
<path d="M79.6191 145.223C83.8018 141.832 87.9006 138.332 92.1192 134.976C90.3814 132.723 88.5238 130.53 86.6182 128.445C82.5075 131.908 78.2289 135.24 74.1901 138.739C76.0477 140.861 77.7735 143.102 79.6191 145.223ZM77.6896 138.26C80.4621 135.975 83.2106 133.678 85.9351 131.369C86.6781 130.734 87.6489 131.908 86.9059 132.567C84.1733 134.876 81.4248 137.173 78.6604 139.459C78.5014 139.587 78.2979 139.648 78.0945 139.626C77.8911 139.605 77.7045 139.504 77.5757 139.345C77.447 139.186 77.3867 138.982 77.408 138.779C77.4294 138.575 77.5307 138.389 77.6896 138.26ZM88.1403 133.466C88.2992 133.339 88.5021 133.28 88.7044 133.303C88.8046 133.314 88.9016 133.345 88.9898 133.393C89.0781 133.442 89.156 133.507 89.2189 133.586C89.2819 133.665 89.3287 133.755 89.3568 133.852C89.3848 133.949 89.3935 134.05 89.3824 134.15C89.3712 134.25 89.3405 134.347 89.2919 134.436C89.2433 134.524 89.1778 134.602 89.0991 134.665C86.2826 137.062 83.5501 139.542 80.542 141.688C79.763 142.251 78.7922 141.088 79.5832 140.489C82.5674 138.392 85.2999 135.899 88.1163 133.514L88.1403 133.466Z" fill="#9BE9ED"/>
<path d="M81.0213 117.502L59.5927 135.276L61.4623 137.373C61.9177 136.966 62.3851 136.558 62.8645 136.175C63.0234 136.048 63.2263 135.989 63.4286 136.011C63.6309 136.034 63.816 136.136 63.9431 136.294C64.0702 136.453 64.129 136.656 64.1066 136.859C64.0841 137.061 63.9822 137.246 63.8233 137.373C63.3678 137.757 62.9124 138.156 62.457 138.572C63.1281 139.327 63.7873 140.082 64.4465 140.849C64.8779 140.465 65.3094 140.082 65.7648 139.65C65.9237 139.523 66.1266 139.464 66.3289 139.487C66.5312 139.509 66.7163 139.611 66.8434 139.77C66.9706 139.929 67.0294 140.132 67.0069 140.334C66.9844 140.536 66.8825 140.722 66.7236 140.849L65.4412 141.951L67.4187 144.24C67.8262 143.881 68.2336 143.521 68.6171 143.174C68.7761 143.045 68.9796 142.985 69.183 143.006C69.3864 143.027 69.573 143.129 69.7018 143.288C69.8305 143.447 69.8908 143.65 69.8695 143.853C69.8481 144.057 69.7468 144.243 69.5879 144.372L68.3894 145.427L70.3549 147.74C70.7504 147.392 71.1459 147.045 71.5534 146.709C71.7123 146.582 71.9153 146.523 72.1175 146.546C72.3198 146.568 72.5049 146.67 72.632 146.829C72.7592 146.988 72.818 147.191 72.7955 147.393C72.773 147.595 72.6711 147.781 72.5122 147.908L71.3137 148.926L73.2552 151.251C73.6507 150.904 74.0342 150.568 74.4537 150.233C74.6126 150.106 74.8156 150.047 75.0178 150.069C75.118 150.08 75.215 150.111 75.3033 150.16C75.3915 150.208 75.4694 150.274 75.5323 150.353C75.5953 150.431 75.6421 150.522 75.6702 150.618C75.6982 150.715 75.7069 150.817 75.6958 150.917C75.6847 151.017 75.6539 151.114 75.6053 151.202C75.5567 151.29 75.4912 151.368 75.4125 151.431C75.017 151.767 74.6215 152.102 74.214 152.45C74.8612 153.217 75.5084 153.996 76.1436 154.775C76.5391 154.427 76.9226 154.092 77.342 153.768C77.501 153.639 77.7045 153.579 77.9079 153.601C78.1113 153.622 78.2979 153.723 78.4267 153.882C78.5554 154.041 78.6157 154.245 78.5944 154.448C78.573 154.651 78.4717 154.838 78.3128 154.967C77.9173 155.29 77.5218 155.638 77.1143 155.973L79.0678 158.131C79.4513 157.783 79.8468 157.448 80.2663 157.112C80.4252 156.983 80.6288 156.923 80.8322 156.944C81.0356 156.966 81.2222 157.067 81.3509 157.226C81.4797 157.385 81.54 157.588 81.5186 157.792C81.4973 157.995 81.396 158.182 81.2371 158.31C80.8296 158.646 80.4461 158.994 80.0386 159.329L81.9562 161.726L83.1546 160.707C83.3136 160.58 83.5165 160.521 83.7188 160.544C83.8189 160.555 83.9159 160.586 84.0042 160.634C84.0925 160.683 84.1703 160.749 84.2332 160.827C84.2962 160.906 84.343 160.996 84.3711 161.093C84.3991 161.19 84.4078 161.291 84.3967 161.391C84.3856 161.492 84.3548 161.589 84.3062 161.677C84.2576 161.765 84.1921 161.843 84.1134 161.906C83.7059 162.241 83.3104 162.589 82.9149 162.937L84.8325 165.333L86.031 164.291C86.1899 164.162 86.3934 164.102 86.5968 164.123C86.8003 164.144 86.9868 164.246 87.1156 164.405C87.2443 164.564 87.3046 164.767 87.2833 164.971C87.2619 165.174 87.1606 165.361 87.0017 165.489L85.8032 166.52L87.7208 168.857L88.9193 167.814C89.0782 167.686 89.2818 167.625 89.4852 167.647C89.6886 167.668 89.8752 167.769 90.0039 167.928C90.1326 168.087 90.193 168.291 90.1716 168.494C90.1502 168.697 90.049 168.884 89.89 169.013C89.4706 169.36 89.0631 169.708 88.6916 170.067L90.729 172.536C99.2261 165.693 107.687 158.754 115.897 151.635C106.988 140.897 98.0516 130.19 89.0871 119.516C87.8886 118.054 86.6901 116.388 85.3598 115.07C85.1441 114.854 84.7845 114.135 84.4969 114.051C85.204 114.003 81.5247 117.083 81.0213 117.502ZM110.983 151.647C109.245 152.929 107.723 154.487 105.998 155.77C105.219 156.357 104.248 155.194 105.027 154.571C106.765 153.289 108.287 151.731 110.012 150.436C110.803 149.897 111.774 151.06 110.995 151.647H110.983ZM108.394 148.543C107.196 149.633 105.998 150.772 104.799 151.887C104.092 152.558 103.133 151.383 103.84 150.688C105.039 149.574 106.237 148.435 107.436 147.344C108.155 146.697 109.126 147.86 108.394 148.543ZM105.998 145.631C105.032 146.657 103.945 147.562 102.762 148.327C101.947 148.843 100.976 147.68 101.791 147.129C102.977 146.367 104.064 145.461 105.027 144.432C105.686 143.749 106.645 144.947 105.986 145.595L105.998 145.631ZM87.0137 126.743H87.0856C87.1616 126.808 87.2264 126.884 87.2774 126.97C89.5762 129.413 91.7368 131.981 93.7491 134.665C93.8109 134.749 93.8594 134.842 93.8929 134.94C93.8873 134.964 93.8873 134.988 93.8929 135.012C93.9288 135.143 93.924 135.282 93.879 135.411C93.8341 135.539 93.7512 135.651 93.6413 135.731C89.0271 139.327 84.5688 143.21 80.0026 146.913C79.9092 146.991 79.797 147.043 79.6771 147.064C79.5572 147.085 79.4339 147.074 79.3195 147.033C79.1736 146.999 79.0405 146.924 78.936 146.817C76.7188 144.336 74.7413 141.664 72.5242 139.183C72.4312 139.086 72.3708 138.962 72.3515 138.829C72.3321 138.695 72.3548 138.559 72.4163 138.44C72.4547 138.313 72.5298 138.2 72.632 138.116C77.0784 134.281 81.7045 130.662 86.1987 126.875C86.3012 126.777 86.4322 126.715 86.5724 126.698C86.7127 126.681 86.8548 126.709 86.9778 126.779L87.0137 126.743Z" fill="#FC7A7A"/>
<path d="M84.5449 112.589L58.0227 134.605C57.9091 134.696 57.8291 134.822 57.795 134.964C57.7476 135.082 57.7349 135.212 57.7582 135.337C57.7815 135.462 57.84 135.578 57.9268 135.671C58.7298 136.558 59.5088 137.457 60.3238 138.356C59.9802 138.644 59.6207 138.919 59.2452 139.183C58.4422 139.734 59.4129 140.897 60.2039 140.381C60.5945 140.114 60.9706 139.826 61.3305 139.518L63.308 141.772C62.9245 142.083 62.541 142.395 62.1095 142.682C61.3065 143.234 62.2773 144.396 63.0803 143.881C63.4997 143.593 63.8952 143.27 64.2787 142.946L66.2562 145.235C65.8487 145.587 65.4492 145.91 65.0577 146.206C64.2548 146.757 65.2255 147.92 66.0285 147.404C66.46 147.105 66.8794 146.769 67.2869 146.434L69.2524 148.735C68.8329 149.082 68.4015 149.43 67.9581 149.741C67.1551 150.293 68.1258 151.455 68.9168 150.94C69.3704 150.624 69.8065 150.284 70.2232 149.921L72.1167 152.138C71.6983 152.504 71.258 152.844 70.7984 153.157C69.9955 153.708 70.9662 154.871 71.7692 154.356C72.2246 154.044 72.6561 153.696 73.0875 153.337L75.029 155.662C74.5976 156.021 74.1542 156.369 73.6987 156.693C72.8958 157.244 73.8665 158.406 74.6695 157.891C75.1249 157.579 75.5564 157.22 75.9878 156.872C76.635 157.639 77.2702 158.418 77.9174 159.197C77.4859 159.557 77.0545 159.904 76.599 160.216C75.7961 160.767 76.7668 161.93 77.5578 161.415C78.0252 161.091 78.4567 160.743 78.8761 160.396L80.8057 162.733C80.3742 163.08 79.9428 163.428 79.4874 163.74C78.6964 164.291 79.6551 165.453 80.4581 164.938C80.9135 164.626 81.345 164.279 81.7645 163.931L83.682 166.328C83.2625 166.676 82.8431 167.023 82.3877 167.335C81.5847 167.886 82.5554 169.049 83.3584 168.533C83.8019 168.222 84.2213 167.886 84.6408 167.539L86.5703 169.936C86.1509 170.271 85.7314 170.619 85.288 170.918C84.485 171.47 85.4558 172.632 86.2467 172.117C86.6902 171.817 87.1096 171.482 87.5291 171.134L90.0339 174.166C90.1527 174.314 90.325 174.409 90.5133 174.43H90.6451C90.8069 174.433 90.9644 174.378 91.0886 174.274C99.9932 167.083 108.838 159.892 117.455 152.402C117.575 152.299 117.659 152.16 117.695 152.006C117.731 151.893 117.738 151.771 117.715 151.654C117.692 151.537 117.64 151.427 117.563 151.335C106.96 138.288 96.3099 125.416 85.6116 112.721C85.4865 112.563 85.3047 112.461 85.1052 112.437C84.9057 112.412 84.7045 112.467 84.5449 112.589ZM85.4078 114.794C86.7621 116.112 87.9126 117.778 89.1351 119.24C98.0837 129.915 107.02 140.621 115.945 151.359C107.675 158.478 99.1663 165.417 90.777 172.261L88.7396 169.792C89.1351 169.432 89.5425 169.085 89.938 168.737C90.097 168.608 90.1982 168.422 90.2196 168.218C90.241 168.015 90.1806 167.811 90.0519 167.653C89.9232 167.494 89.7366 167.392 89.5332 167.371C89.3298 167.35 89.1262 167.41 88.9673 167.539L87.7688 168.581L85.8512 166.244L87.0497 165.214C87.2087 165.085 87.3099 164.898 87.3313 164.695C87.3526 164.492 87.2923 164.288 87.1636 164.129C87.0348 163.97 86.8483 163.869 86.6448 163.847C86.4414 163.826 86.2379 163.886 86.079 164.015L84.8805 165.058L82.9629 162.661C83.3464 162.313 83.7419 161.966 84.1614 161.63C84.3203 161.503 84.4222 161.318 84.4447 161.116C84.4672 160.913 84.4084 160.711 84.2812 160.552C84.1541 160.393 83.969 160.291 83.7668 160.268C83.5645 160.246 83.3615 160.305 83.2026 160.432L82.0042 161.45L80.0866 159.329C80.4821 158.994 80.8656 158.646 81.2851 158.31C81.444 158.182 81.5453 157.995 81.5666 157.792C81.588 157.588 81.5277 157.385 81.3989 157.226C81.2702 157.067 81.0836 156.966 80.8802 156.944C80.6768 156.923 80.4732 156.983 80.3143 157.112C79.9188 157.448 79.5233 157.783 79.1158 158.131L77.1863 155.794C77.5698 155.458 77.9653 155.111 78.3848 154.787C78.5437 154.658 78.645 154.472 78.6663 154.268C78.6877 154.065 78.6273 153.861 78.4986 153.702C78.3699 153.543 78.1833 153.442 77.9799 153.421C77.7765 153.399 77.5729 153.46 77.414 153.588C77.0185 153.912 76.635 154.248 76.2155 154.595C75.5803 153.816 74.9332 153.037 74.286 152.27C74.6695 151.923 75.065 151.587 75.4845 151.251C75.6434 151.124 75.7453 150.939 75.7678 150.737C75.7902 150.535 75.7314 150.332 75.6043 150.173C75.5413 150.094 75.4635 150.029 75.3752 149.98C75.287 149.931 75.19 149.901 75.0898 149.89C74.8875 149.867 74.6846 149.926 74.5257 150.053C74.1182 150.389 73.7347 150.724 73.3272 151.072L71.3857 148.747L72.5842 147.728C72.7431 147.601 72.845 147.416 72.8675 147.213C72.8899 147.011 72.8311 146.808 72.704 146.649C72.641 146.571 72.5632 146.505 72.4749 146.456C72.3867 146.408 72.2897 146.377 72.1895 146.366C71.9872 146.344 71.7843 146.402 71.6254 146.529C71.2179 146.865 70.8224 147.213 70.4269 147.56L68.4614 145.247L69.6599 144.192C69.7386 144.129 69.8039 144.05 69.8523 143.961C69.9006 143.872 69.9309 143.774 69.9414 143.674C69.952 143.573 69.9426 143.471 69.9139 143.374C69.8851 143.277 69.8375 143.187 69.7737 143.108C69.71 143.029 69.6314 142.964 69.5424 142.915C69.4534 142.867 69.3557 142.837 69.255 142.826C69.1543 142.816 69.0525 142.825 68.9554 142.854C68.8583 142.883 68.7678 142.93 68.6891 142.994C68.2697 143.342 67.8622 143.701 67.4906 144.061L65.5132 141.772L66.7955 140.669C66.8742 140.606 66.9397 140.528 66.9884 140.44C67.037 140.352 67.0677 140.255 67.0788 140.154C67.09 140.054 67.0813 139.953 67.0532 139.856C67.0252 139.759 66.9783 139.669 66.9154 139.59C66.8524 139.512 66.7746 139.446 66.6863 139.397C66.598 139.349 66.501 139.318 66.4009 139.307C66.3007 139.296 66.1994 139.305 66.1026 139.333C66.0058 139.361 65.9154 139.408 65.8368 139.47C65.3813 139.842 64.9499 140.226 64.5184 140.669C63.8593 139.902 63.2001 139.147 62.529 138.392C62.9844 137.984 63.4398 137.585 63.8952 137.193C63.9739 137.13 64.0394 137.053 64.0881 136.964C64.1367 136.876 64.1674 136.779 64.1785 136.679C64.1897 136.579 64.181 136.477 64.1529 136.381C64.1249 136.284 64.078 136.193 64.0151 136.115C63.9521 136.036 63.8743 135.971 63.786 135.922C63.6977 135.873 63.6007 135.843 63.5006 135.831C63.4004 135.82 63.2991 135.829 63.2023 135.857C63.1055 135.885 63.0151 135.932 62.9364 135.995C62.4571 136.39 61.9897 136.798 61.5342 137.193L59.6646 135.096L81.0214 117.502C81.5248 117.083 85.2041 114.003 84.5449 113.811C84.8805 113.895 85.1921 114.614 85.4078 114.83V114.794Z" fill="#1D2228"/>
<path d="M72.644 138.068C72.5417 138.152 72.4666 138.265 72.4282 138.392C72.3667 138.511 72.3441 138.647 72.3634 138.78C72.3827 138.913 72.4431 139.037 72.5361 139.135C74.7533 141.615 76.7308 144.288 78.9479 146.769C79.0524 146.876 79.1855 146.951 79.3314 146.985C79.4458 147.026 79.5691 147.037 79.689 147.016C79.8089 146.995 79.9212 146.943 80.0146 146.865C84.5808 143.161 89.0391 139.326 93.6532 135.683C93.7631 135.603 93.846 135.491 93.891 135.363C93.9359 135.234 93.9408 135.095 93.9049 134.964C93.8993 134.94 93.8993 134.916 93.9049 134.892C93.8713 134.793 93.8228 134.7 93.7611 134.616C91.7435 131.949 89.5789 129.396 87.2773 126.97C87.2193 126.918 87.1549 126.874 87.0856 126.838H87.0137C86.8907 126.769 86.7486 126.74 86.6083 126.758C86.4681 126.775 86.3371 126.837 86.2347 126.934C81.7164 130.566 77.0903 134.233 72.644 138.068ZM92.0712 134.976C87.8526 138.332 83.7538 141.831 79.5711 145.223C77.7255 143.102 75.9757 140.86 74.1421 138.739C78.2408 135.24 82.4595 131.908 86.5702 128.444C88.5717 130.566 90.3814 132.723 92.0712 134.976Z" fill="#1D2228"/>
<path d="M78.6363 139.422C81.3928 137.145 84.1413 134.848 86.8818 132.531C87.6248 131.908 86.6541 130.733 85.911 131.333C83.1785 133.642 80.43 135.939 77.6655 138.224C77.5066 138.353 77.4053 138.539 77.384 138.743C77.3626 138.946 77.4229 139.15 77.5517 139.309C77.6804 139.467 77.867 139.569 78.0704 139.59C78.2738 139.611 78.4774 139.551 78.6363 139.422Z" fill="#1D2228"/>
<path d="M80.518 141.7C83.5261 139.554 86.2587 137.074 89.0751 134.677C89.234 134.549 89.3359 134.364 89.3584 134.162C89.3809 133.96 89.3221 133.757 89.1949 133.598C89.0678 133.439 88.8827 133.337 88.6804 133.315C88.4781 133.292 88.2752 133.351 88.1163 133.478C85.2999 135.875 82.5674 138.356 79.5592 140.501C78.7682 141.1 79.739 142.263 80.518 141.7Z" fill="#1D2228"/>
<path d="M105.015 144.432C104.052 145.461 102.965 146.367 101.779 147.129C100.964 147.644 101.935 148.806 102.75 148.327C103.933 147.562 105.02 146.657 105.985 145.631C106.645 144.947 105.686 143.749 105.015 144.432Z" fill="#1D2228"/>
<path d="M107.436 147.345C106.237 148.435 105.039 149.574 103.84 150.688C103.133 151.348 104.092 152.522 104.799 151.887C105.997 150.772 107.196 149.634 108.394 148.543C109.126 147.86 108.155 146.697 107.436 147.345Z" fill="#1D2228"/>
<path d="M105.039 154.607C104.26 155.194 105.23 156.357 106.009 155.806C107.735 154.523 109.257 152.965 110.995 151.683C111.774 151.096 110.803 149.933 110.024 150.484C108.299 151.767 106.777 153.337 105.039 154.607Z" fill="#1D2228"/>
<path d="M44.7536 28.4558C36.64 30.637 28.6941 33.7171 20.7123 36.3777L24.0201 46.4689C32.0978 43.9521 40.0317 41.0158 48.1214 38.5589C47.1746 35.1433 45.7124 31.8715 44.7536 28.4558ZM42.8241 37.1687C37.8265 38.7986 32.8049 40.3806 27.8312 42.0824C27.6268 42.1241 27.4143 42.0892 27.234 41.9844C27.0536 41.8796 26.9181 41.7123 26.853 41.5141C26.7879 41.3159 26.7979 41.1008 26.881 40.9095C26.9641 40.7182 27.1146 40.5641 27.3039 40.4765C32.2775 38.7627 37.2991 37.1927 42.2968 35.5628C42.5011 35.5211 42.7137 35.556 42.894 35.6608C43.0744 35.7656 43.2099 35.9329 43.275 36.1311C43.3401 36.3293 43.3301 36.5444 43.247 36.7357C43.1638 36.927 43.0134 37.0811 42.8241 37.1687ZM41.6256 33.6572C36.628 35.2991 31.6064 36.8691 26.6327 38.5709C26.4284 38.6125 26.2158 38.5776 26.0355 38.4729C25.8552 38.3681 25.7196 38.2007 25.6545 38.0026C25.5895 37.8044 25.5994 37.5893 25.6826 37.398C25.7657 37.2067 25.9162 37.0526 26.1054 36.965C31.0791 35.2631 36.1007 33.6812 41.0983 32.0512C41.2038 32.0135 41.3156 31.9968 41.4275 32.0023C41.5394 32.0077 41.6491 32.0352 41.7503 32.083C41.8516 32.1309 41.9425 32.1982 42.0177 32.2812C42.093 32.3641 42.1511 32.4611 42.1889 32.5666C42.2267 32.672 42.2433 32.7839 42.2379 32.8958C42.2324 33.0076 42.205 33.1173 42.1571 33.2186C42.1093 33.3199 42.0419 33.4107 41.959 33.486C41.876 33.5612 41.779 33.6194 41.6736 33.6572H41.6256Z" fill="#FFFEFC"/>
<path d="M24.14 79.4988H24.0681C18.2914 81.2246 20.964 89.3143 26.465 88.2356C25.7502 87.9225 25.1126 87.4565 24.597 86.8706C24.0815 86.2846 23.7005 85.5929 23.4808 84.844C23.166 83.9634 23.0616 83.0213 23.1761 82.0932C23.2905 81.165 23.6206 80.2765 24.14 79.4988Z" fill="#FFFEFC"/>
<path d="M4.46098 22.4634C3.61719 22.9069 2.92477 23.5919 2.4722 24.4308C2.01963 25.2698 1.82745 26.2247 1.92022 27.1734C7.08564 45.3662 13.2338 63.4511 19.5498 81.2245C20.1968 79.8597 21.3354 78.7896 22.7377 78.2283C16.3378 59.7479 10.4653 41.0637 4.46098 22.4634Z" fill="#07D8E5"/>
<path d="M25.0268 84.3405C25.9257 86.9172 27.6874 87.2168 30.0724 87.0491C42.153 82.8904 54.4613 79.3788 66.5539 75.2081C65.2485 74.5281 64.2316 73.4007 63.6895 72.0322C63.3746 71.0809 63.2778 70.0709 63.4064 69.0771C63.5351 68.0833 63.8858 67.1313 64.4326 66.2915L28.1069 78.1923C25.7818 79.3908 24.1399 81.6559 25.0268 84.3405ZM33.1045 78.2523C42.0331 75.5917 50.8539 72.6075 59.7346 69.791C59.9483 69.7243 60.1797 69.7444 60.3786 69.8471C60.5775 69.9497 60.728 70.1267 60.7974 70.3395C60.8668 70.5524 60.8495 70.784 60.7492 70.9842C60.649 71.1844 60.4739 71.337 60.2619 71.409C51.3812 74.2374 42.5605 77.1976 33.6318 79.8702C32.5892 80.2297 32.0618 78.5639 33.1045 78.2523ZM57.841 74.2374C58.0547 74.1706 58.2861 74.1907 58.485 74.2934C58.684 74.3961 58.8344 74.573 58.9038 74.7859C58.9732 74.9987 58.9559 75.2304 58.8556 75.4305C58.7554 75.6307 58.5803 75.7833 58.3683 75.8553C49.0921 78.7796 39.8639 81.8477 30.5398 84.6521C30.3261 84.7189 30.0947 84.6988 29.8957 84.5961C29.6968 84.4934 29.5463 84.3165 29.4769 84.1036C29.4076 83.8907 29.4249 83.6591 29.5251 83.4589C29.6254 83.2588 29.8004 83.1061 30.0124 83.0342C39.3366 80.2297 48.5648 77.1497 57.841 74.2374Z" fill="white"/>
<path d="M47.2824 8.32153C33.5239 12.8038 19.7175 17.1663 6.04297 21.8283C12.0353 40.4526 17.9198 59.1368 24.3317 77.6292C38.0821 73.1389 51.8286 68.6327 65.5711 64.1104C59.6267 45.4742 53.2268 26.9937 47.2824 8.32153ZM47.4262 18.904C47.6044 19.0177 47.7339 19.1935 47.7896 19.3973C47.8452 19.6012 47.823 19.8184 47.7273 20.0068C47.6317 20.1952 47.4693 20.3413 47.2719 20.4166C47.0744 20.4918 46.856 20.491 46.6592 20.4141L46.5154 20.3422C46.3372 20.2286 46.2077 20.0528 46.1521 19.8489C46.0964 19.6451 46.1186 19.4278 46.2143 19.2394C46.31 19.051 46.4723 18.905 46.6698 18.8297C46.8672 18.7544 47.0856 18.7553 47.2824 18.8321L47.4262 18.904ZM54.9407 47.8711H55.5519C56.6305 47.967 56.259 49.6209 55.1923 49.537H54.5931C53.5025 49.4052 53.874 47.7513 54.9407 47.8711ZM44.9334 15.8H45.5326C46.6233 15.8959 46.2517 17.5498 45.1851 17.4539H44.5739C43.4952 17.358 43.8548 15.7041 44.9334 15.8ZM56.0552 51.143L56.9781 51.0711C57.1875 51.0833 57.3851 51.1725 57.5328 51.3215C57.6805 51.4705 57.7679 51.6688 57.7783 51.8783C57.7887 52.0879 57.7213 52.2939 57.5891 52.4568C57.4569 52.6197 57.2692 52.728 57.062 52.7609L56.1391 52.8328C55.9297 52.8206 55.7321 52.7314 55.5844 52.5824C55.4367 52.4334 55.3493 52.2351 55.3389 52.0255C55.3285 51.816 55.3958 51.61 55.5281 51.4471C55.6603 51.2842 55.848 51.1759 56.0552 51.143ZM41.35 13.463L44.3342 12.4802C44.5385 12.4386 44.7511 12.4735 44.9314 12.5783C45.1117 12.6831 45.2473 12.8504 45.3124 13.0486C45.3775 13.2467 45.3675 13.4619 45.2844 13.6532C45.2012 13.8445 45.0508 13.9985 44.8615 14.0862L41.8773 15.0689C41.6729 15.1105 41.4604 15.0757 41.2801 14.9709C41.0997 14.8661 40.9642 14.6987 40.8991 14.5006C40.834 14.3024 40.844 14.0873 40.9271 13.896C41.0102 13.7047 41.1607 13.5506 41.35 13.463ZM23.7444 48.3385C23.5738 48.3989 23.3877 48.3989 23.2171 48.3385C23.0897 48.3078 22.9728 48.244 22.8781 48.1535C22.7834 48.063 22.7143 47.949 22.6778 47.8232C21.3914 43.9322 20.113 40.0331 18.8427 36.1261C18.7685 35.9374 18.7685 35.7276 18.8427 35.5389V35.4669C18.9406 35.2961 19.0987 35.1679 19.2861 35.1074C27.8192 32.303 36.2804 28.9592 44.9694 26.7181H45.2091C45.3012 26.699 45.3962 26.6984 45.4886 26.7165C45.581 26.7346 45.6688 26.7709 45.7469 26.8234C45.8251 26.8758 45.8919 26.9434 45.9436 27.022C45.9953 27.1007 46.0308 27.1888 46.048 27.2814C47.0187 31.2603 48.9004 34.9876 49.8711 38.9665C49.8831 39.0459 49.8831 39.1267 49.8711 39.2062C49.9008 39.3896 49.8606 39.5775 49.7586 39.7328C49.6565 39.8881 49.5 39.9995 49.3198 40.0451C40.7987 42.502 32.3614 45.6779 23.7444 48.3385ZM59.0754 61.7734L58.3923 61.8813C57.3256 62.0491 57.2537 60.3472 58.3203 60.1914L58.9915 60.0836C60.0941 59.9158 60.0941 61.6176 59.0754 61.7734ZM58.9555 56.9795C58.1285 56.8891 57.2919 56.9501 56.4867 57.1593C55.444 57.435 54.9047 55.829 55.9594 55.5533C57.0541 55.2701 58.1912 55.1889 59.3151 55.3137C60.3937 55.4095 60.0941 57.0634 58.9555 56.9556V56.9795Z" fill="#07D8E5"/>
<path d="M48.6367 7.01531C48.6052 6.91503 48.554 6.82204 48.486 6.74179C48.4181 6.66153 48.3349 6.59562 48.2412 6.5479C48.2412 6.5479 48.1813 6.5479 48.1454 6.5479C47.9646 6.47524 47.7628 6.47524 47.5821 6.5479C33.2723 11.1381 18.9386 15.6563 4.71271 20.5221C1.53675 21.6007 0.20645 24.0456 0.230419 27.3294C0.224789 27.3892 0.224789 27.4494 0.230419 27.5092V27.5811C0.230419 27.5811 0.230419 27.5811 0.230419 27.653C5.82729 47.1162 12.4548 66.3517 19.2262 85.3834C19.2262 85.4673 19.2262 85.5392 19.2262 85.6111C19.7438 87.2426 20.8877 88.6019 22.4067 89.3906C23.9258 90.1793 25.6957 90.333 27.3279 89.8178C41.4699 84.7722 55.9834 80.8292 70.1253 75.7837H70.1973L70.3171 75.6998C70.3832 75.6652 70.4406 75.616 70.4849 75.556C70.5473 75.4831 70.5923 75.3971 70.6167 75.3043C70.6345 75.2213 70.6345 75.1356 70.6167 75.0526C70.6228 74.9094 70.5904 74.7672 70.523 74.6408C70.4555 74.5144 70.3555 74.4083 70.2332 74.3335H70.0894H69.8497C68.8289 74.4606 67.796 74.2239 66.9324 73.665C66.0688 73.1061 65.4298 72.2607 65.1277 71.2774C64.5525 69.3239 65.9427 66.867 67.249 65.5008C67.2851 65.4557 67.3172 65.4076 67.3449 65.357C67.3852 65.2664 67.406 65.1684 67.406 65.0693C67.406 64.9702 67.3852 64.8722 67.3449 64.7817C61.2926 45.2226 54.737 26.2029 48.6367 7.01531ZM1.8963 27.1736C1.80567 26.2223 2.00142 25.2657 2.45841 24.4264C2.9154 23.5872 3.61278 22.9037 4.46103 22.4636C10.4534 41.0639 16.3379 59.7481 22.7377 78.2286C21.3355 78.7898 20.1969 79.8599 19.5498 81.2247C13.2338 63.4514 7.08568 45.3664 1.92027 27.1736H1.8963ZM24.0441 79.5229H24.116C23.5849 80.2995 23.2441 81.1903 23.1213 82.1231C22.9985 83.0558 23.097 84.0044 23.4089 84.8921C23.6285 85.641 24.0095 86.3327 24.5251 86.9187C25.0406 87.5046 25.6782 87.9706 26.3931 88.2837C20.94 89.3384 18.2674 81.2487 24.0441 79.5229ZM63.6895 72.0325C64.2435 73.409 65.2784 74.5375 66.6018 75.2084C54.4853 79.3791 42.177 82.8906 30.1323 87.0493C27.7354 87.2171 25.9856 86.9175 25.0867 84.3408C24.1879 81.764 25.8418 79.3911 28.1668 78.1926L64.4086 66.2918C63.8658 67.1334 63.5193 68.0864 63.3949 69.0802C63.2704 70.0739 63.3711 71.0829 63.6895 72.0325ZM65.5951 64.1345C51.8367 68.6328 38.0822 73.139 24.3317 77.6533C17.9199 59.1609 12.0474 40.5006 6.04301 21.8524C19.7296 17.1903 33.524 12.8279 47.2825 8.32164C53.2269 26.9938 59.6267 45.4743 65.5712 64.1345H65.5951Z" fill="#1D2228"/>
<path d="M30.5399 84.628C39.864 81.8476 49.0922 78.7555 58.3684 75.8313C58.5468 75.7375 58.6862 75.5835 58.7617 75.3966C58.8372 75.2097 58.8438 75.0021 58.7805 74.8107C58.7172 74.6193 58.588 74.4567 58.416 74.3517C58.2439 74.2466 58.0402 74.2061 57.8411 74.2373C48.5649 77.1735 39.3367 80.2296 30.0125 83.0341C29.8341 83.1278 29.6947 83.2819 29.6193 83.4688C29.5438 83.6556 29.5371 83.8633 29.6004 84.0546C29.6637 84.246 29.7929 84.4087 29.965 84.5137C30.137 84.6187 30.3407 84.6592 30.5399 84.628Z" fill="#1D2228"/>
<path d="M33.6319 79.8703C42.5606 77.1977 51.3813 74.2135 60.262 71.4091C60.474 71.3371 60.6491 71.1845 60.7493 70.9843C60.8496 70.7842 60.8669 70.5525 60.7975 70.3397C60.7281 70.1268 60.5776 69.9499 60.3787 69.8472C60.1798 69.7445 59.9484 69.7244 59.7347 69.7912C50.854 72.6076 42.0332 75.5918 33.1046 78.2524C32.0619 78.564 32.5893 80.2299 33.6319 79.8703Z" fill="#1D2228"/>
<path d="M41.1464 32.0513C36.1488 33.6812 31.1272 35.2632 26.1535 36.965C25.9643 37.0527 25.8138 37.2068 25.7307 37.398C25.6475 37.5893 25.6376 37.8045 25.7026 38.0026C25.7677 38.2008 25.9033 38.3681 26.0836 38.4729C26.2639 38.5777 26.4765 38.6126 26.6808 38.571C31.6545 36.8692 36.6761 35.2992 41.6737 33.6572C41.863 33.5696 42.0135 33.4155 42.0966 33.2242C42.1797 33.0329 42.1897 32.8178 42.1246 32.6196C42.0596 32.4215 41.924 32.2541 41.7436 32.1493C41.5633 32.0446 41.3508 32.0097 41.1464 32.0513Z" fill="#1D2228"/>
<path d="M42.2968 35.5628C37.2992 37.1927 32.2776 38.7627 27.3039 40.4765C27.1146 40.5641 26.9642 40.7182 26.881 40.9095C26.7979 41.1008 26.7879 41.316 26.853 41.5141C26.9181 41.7123 27.0537 41.8796 27.234 41.9844C27.4143 42.0892 27.6269 42.1241 27.8312 42.0825C32.8049 40.3806 37.8265 38.7986 42.8241 37.1687C43.0134 37.0811 43.1639 36.927 43.247 36.7357C43.3301 36.5444 43.3401 36.3293 43.275 36.1311C43.2099 35.933 43.0744 35.7656 42.894 35.6608C42.7137 35.556 42.5012 35.5212 42.2968 35.5628Z" fill="#1D2228"/>
<path d="M41.8774 15.0689L44.8616 14.0862C45.0508 13.9986 45.2013 13.8445 45.2844 13.6532C45.3675 13.4619 45.3775 13.2467 45.3125 13.0486C45.2474 12.8504 45.1118 12.6831 44.9315 12.5783C44.7511 12.4735 44.5386 12.4386 44.3342 12.4802L41.35 13.463C41.1608 13.5506 41.0103 13.7047 40.9272 13.896C40.8441 14.0873 40.8341 14.3024 40.8992 14.5006C40.9642 14.6988 41.0998 14.8661 41.2801 14.9709C41.4605 15.0757 41.673 15.1106 41.8774 15.0689Z" fill="#1D2228"/>
<path d="M45.1851 17.5139C46.2517 17.6097 46.6233 15.9558 45.5327 15.86H44.9334C43.8548 15.7641 43.4953 17.418 44.5739 17.5258L45.1851 17.5139Z" fill="#1D2228"/>
<path d="M46.5154 20.3662L46.6593 20.4381C46.8561 20.515 47.0745 20.5158 47.2719 20.4405C47.4693 20.3653 47.6317 20.2192 47.7274 20.0308C47.8231 19.8424 47.8453 19.6252 47.7896 19.4213C47.7339 19.2175 47.6044 19.0417 47.4263 18.928L47.2825 18.8561C47.0856 18.7793 46.8673 18.7784 46.6698 18.8537C46.4724 18.929 46.31 19.075 46.2143 19.2634C46.1186 19.4518 46.0965 19.6691 46.1521 19.8729C46.2078 20.0767 46.3373 20.2526 46.5154 20.3662Z" fill="#1D2228"/>
<path d="M54.5933 49.4892H55.1925C56.2591 49.5731 56.6307 47.9192 55.552 47.8233H54.9408C53.8742 47.7514 53.5027 49.4053 54.5933 49.4892Z" fill="#1D2228"/>
<path d="M56.1391 52.8328L57.0619 52.7609C57.2691 52.728 57.4569 52.6197 57.5891 52.4568C57.7213 52.2939 57.7887 52.0879 57.7783 51.8783C57.7679 51.6688 57.6804 51.4705 57.5327 51.3215C57.385 51.1725 57.1875 51.0833 56.978 51.071L56.0552 51.143C55.848 51.1759 55.6602 51.2842 55.528 51.4471C55.3958 51.61 55.3284 51.816 55.3388 52.0255C55.3492 52.2351 55.4367 52.4334 55.5844 52.5824C55.7321 52.7314 55.9296 52.8206 56.1391 52.8328Z" fill="#1D2228"/>
<path d="M59.3151 55.2897C58.1912 55.1649 57.054 55.2462 55.9593 55.5294C54.9047 55.805 55.444 57.411 56.4867 57.1353C57.2919 56.9261 58.1285 56.8652 58.9555 56.9556C60.0941 57.0634 60.3937 55.4095 59.3151 55.2897Z" fill="#1D2228"/>
<path d="M58.9915 60.0836L58.3204 60.1915C57.2537 60.3473 57.3256 62.0491 58.3923 61.8814L59.0754 61.7735C60.0941 61.6177 60.0941 59.9159 58.9915 60.0836Z" fill="#1D2228"/>
<path d="M128.253 57.0037C131.705 58.334 135.144 59.6643 138.596 60.9586C141.628 62.0852 145.703 64.4941 148.975 64.7098C149.43 64.7098 149.574 64.8417 149.622 64.9376C149.723 64.7534 149.843 64.5806 149.981 64.4222C150.264 63.9612 150.485 63.4657 150.641 62.9481C150.964 62.217 151.276 61.474 151.587 60.7309L148.675 59.5324C147.692 59.113 148.292 57.5669 149.274 57.9864L152.235 59.1849L152.402 58.7894C152.546 58.4538 152.678 58.1063 152.822 57.7587C152.259 57.555 151.695 57.3512 151.144 57.0876C150.185 56.6321 150.772 55.0861 151.743 55.5415C152.298 55.799 152.866 56.0271 153.445 56.2247C153.649 55.7213 153.853 55.206 154.068 54.6906C153.517 54.4869 152.966 54.2831 152.438 54.0315C151.48 53.576 152.067 52.03 153.026 52.4854C153.568 52.7389 154.125 52.9629 154.691 53.1566L155.351 51.5027L152.259 50.2682C151.276 49.8488 151.875 48.3028 152.858 48.7222L155.974 50.0405C156.166 49.5611 156.369 49.0937 156.561 48.6144C155.938 48.3866 155.363 48.1589 154.727 47.8713C153.769 47.4159 154.356 45.8699 155.327 46.3253C155.926 46.6129 156.525 46.8526 157.172 47.0803L157.784 45.5343C157.184 45.3186 156.585 45.1028 156.01 44.8272C155.051 44.3598 155.65 42.8137 156.609 43.2812C157.196 43.5568 157.808 43.7845 158.395 44.0002L159.054 42.3463L155.842 40.9801C154.859 40.5726 155.447 39.0266 156.429 39.4341L159.665 40.8003C159.857 40.3209 160.049 39.8415 160.228 39.3741C159.581 39.1344 158.934 38.8947 158.311 38.5951C157.352 38.1397 157.939 36.5937 158.898 37.0491C159.531 37.3437 160.179 37.6037 160.84 37.8281L161.451 36.2941C160.828 36.0663 160.252 35.8267 159.593 35.539C158.634 35.0836 159.234 33.5376 160.192 33.993C160.804 34.2806 161.391 34.5203 162.062 34.748L162.709 33.0941L159.413 31.7039C158.431 31.2844 159.03 29.7384 160.013 30.1579L163.309 31.5481C163.5 31.0687 163.692 30.5893 163.872 30.1099C163.201 29.8702 162.541 29.6186 161.882 29.307C160.924 28.8515 161.523 27.3055 162.482 27.7609C163.13 28.0635 163.794 28.3315 164.471 28.5639L165.07 27.0179C164.425 26.7996 163.792 26.5434 163.177 26.2509C162.218 25.7954 162.805 24.2494 163.776 24.7048C164.388 24.9953 165.017 25.2514 165.658 25.4718C165.873 24.9205 166.089 24.3693 166.293 23.806L162.997 22.4157C162.014 21.9963 162.613 20.4502 163.596 20.8697L166.88 22.2599L167.419 20.8098C166.752 20.5866 166.1 20.3224 165.466 20.0188C164.507 19.5634 165.106 18.0173 166.065 18.4728C166.7 18.7724 167.347 19.0241 168.007 19.2638L168.582 17.7057C167.96 17.4954 167.352 17.2473 166.76 16.9627C165.801 16.5073 166.389 14.9612 167.359 15.4286C167.941 15.7001 168.537 15.9401 169.145 16.1477L169.744 14.5058L166.568 13.1156C165.586 12.6961 166.185 11.1501 167.168 11.5696L170.308 12.8999C171.498 9.56811 172.645 6.22438 173.747 2.86865C151.851 18.4488 129.488 33.3578 108.011 49.4653C114.842 51.8502 121.53 54.4269 128.253 57.0037ZM122.824 46.517C134.473 37.7322 146.35 29.247 158.215 20.7619C158.303 20.6663 158.415 20.5959 158.539 20.558C158.664 20.5201 158.796 20.516 158.922 20.5461H159.006L159.162 20.606C159.21 20.6268 159.254 20.6551 159.294 20.6899L159.401 20.7738C159.444 20.8235 159.484 20.8755 159.521 20.9296V20.9896C159.589 21.1017 159.625 21.2301 159.625 21.3611C159.625 21.492 159.589 21.6205 159.521 21.7326C155.926 33.3423 151.546 44.6941 146.41 55.7093C146.325 55.9113 146.166 56.0732 145.966 56.1623C145.765 56.2513 145.538 56.2608 145.331 56.1887C137.829 53.588 130.494 50.5199 122.992 47.9073C122.86 47.8516 122.744 47.7629 122.656 47.6496C122.567 47.5364 122.51 47.4025 122.488 47.2606C122.466 47.1187 122.482 46.9736 122.532 46.8392C122.582 46.7048 122.667 46.5857 122.776 46.4931L122.824 46.517Z" fill="#FFF250"/>
<path d="M175.88 0.195915L175.785 0.112022L175.653 0.0281292H175.497H175.413C175.302 -0.00481158 175.184 -0.00889378 175.071 0.0162673C174.958 0.0414285 174.853 0.0950043 174.766 0.171946C151.767 16.5191 128.253 32.1352 105.758 49.0696C105.647 49.1422 105.56 49.2454 105.507 49.3667C105.453 49.488 105.437 49.6221 105.458 49.7528C105.444 49.9173 105.487 50.0817 105.582 50.2174C105.676 50.3532 105.814 50.4516 105.974 50.4958C120.727 55.5773 135.096 61.6776 149.862 66.7471C150.065 66.8224 150.29 66.8158 150.489 66.7286C150.688 66.6415 150.846 66.4805 150.928 66.2797C155.722 56.4402 159.437 45.9057 163.38 35.6827C167.791 24.2612 172.369 12.8158 176.048 1.13072C176.119 1.01956 176.156 0.890727 176.156 0.759198C176.156 0.627668 176.119 0.498837 176.048 0.387671V0.327747C175.998 0.276742 175.942 0.232429 175.88 0.195915ZM170.308 12.8997L167.168 11.5694C166.185 11.15 165.586 12.696 166.568 13.1155L169.744 14.4577L169.145 16.0996C168.537 15.892 167.941 15.652 167.359 15.3806C166.389 14.9132 165.801 16.4592 166.76 16.9146C167.352 17.1992 167.96 17.4473 168.582 17.6577L168.006 19.2157C167.347 18.976 166.7 18.7243 166.065 18.4247C165.106 17.9693 164.507 19.5153 165.466 19.9707C166.1 20.2743 166.752 20.5385 167.419 20.7617L166.88 22.2119L163.596 20.8216C162.613 20.4022 162.014 21.9482 162.997 22.3677L166.293 23.7579C166.089 24.3212 165.873 24.8725 165.657 25.4238C165.016 25.2033 164.388 24.9472 163.776 24.6567C162.805 24.2013 162.218 25.7474 163.177 26.2028C163.792 26.4954 164.425 26.7515 165.07 26.9698L164.471 28.5158C163.794 28.2834 163.13 28.0154 162.481 27.7128C161.523 27.2574 160.923 28.8035 161.882 29.2589C162.541 29.5705 163.201 29.8222 163.872 30.0619C163.692 30.5412 163.5 31.0206 163.308 31.5L160.013 30.1098C159.03 29.6903 158.431 31.2364 159.413 31.6558L162.709 33.0461L162.062 34.688C161.427 34.4603 160.804 34.2206 160.192 33.9329C159.234 33.4775 158.634 35.0235 159.593 35.479C160.204 35.7666 160.792 36.0063 161.451 36.234L160.84 37.768C160.179 37.5437 159.531 37.2836 158.898 36.989C157.939 36.5336 157.352 38.0796 158.311 38.5351C158.934 38.8347 159.581 39.0744 160.228 39.3141C160.049 39.7815 159.857 40.2609 159.665 40.7402L156.429 39.374C155.446 38.9665 154.859 40.5125 155.842 40.92L159.054 42.2863L158.395 43.9402C157.795 43.7244 157.196 43.4967 156.609 43.2211C155.65 42.7537 155.051 44.2997 156.01 44.7671C156.597 45.0428 157.208 45.2585 157.783 45.4742L157.172 47.0202C156.549 46.7925 155.974 46.5528 155.327 46.2652C154.356 45.8098 153.769 47.3558 154.727 47.8112C155.327 48.0989 155.926 48.3266 156.561 48.5543C156.369 49.0337 156.166 49.5011 155.974 49.9805L152.858 48.6622C151.875 48.2427 151.276 49.7887 152.259 50.2082L155.351 51.5145L154.691 53.1684C154.124 52.9748 153.568 52.7508 153.026 52.4973C152.067 52.0418 151.48 53.5879 152.438 54.0433C152.966 54.295 153.517 54.4987 154.068 54.7025C153.853 55.2178 153.649 55.7331 153.445 56.2365C152.866 56.0389 152.298 55.8109 151.743 55.5534C150.772 55.0979 150.185 56.644 151.144 57.0994C151.695 57.3631 152.259 57.5668 152.822 57.7705C152.678 58.1181 152.546 58.4657 152.402 58.8012L152.235 59.1967L149.274 57.9983C148.292 57.5788 147.692 59.1248 148.675 59.5443L151.587 60.7428C151.276 61.4858 150.964 62.2289 150.641 62.9599C150.485 63.4776 150.264 63.973 149.981 64.4341C149.843 64.5924 149.723 64.7652 149.622 64.9494C149.622 64.8535 149.43 64.7576 148.975 64.7217C145.703 64.506 141.628 62.097 138.596 60.9705C135.144 59.6761 131.705 58.3458 128.253 57.0155C121.53 54.4268 114.842 51.8501 108.011 49.4651C129.488 33.3577 151.851 18.4127 173.747 2.86851C172.645 6.22423 171.498 9.56797 170.308 12.8997Z" fill="#1D2228"/>
<path d="M123.04 47.931C130.542 50.5436 137.877 53.6117 145.379 56.2124C145.586 56.2845 145.813 56.275 146.013 56.186C146.214 56.097 146.373 55.935 146.458 55.733C151.594 44.7178 155.974 33.366 159.569 21.7563C159.637 21.6442 159.673 21.5158 159.673 21.3848C159.673 21.2539 159.637 21.1254 159.569 21.0133V20.9534C159.532 20.8992 159.492 20.8472 159.449 20.7976L159.342 20.7137C159.302 20.6788 159.258 20.6505 159.21 20.6298L159.054 20.5698H158.97C158.844 20.5397 158.711 20.5438 158.587 20.5817C158.463 20.6197 158.351 20.69 158.263 20.7856C146.398 29.2708 134.521 37.7559 122.872 46.5408C122.762 46.6334 122.678 46.7525 122.628 46.8869C122.577 47.0213 122.562 47.1664 122.584 47.3083C122.606 47.4501 122.663 47.5841 122.751 47.6973C122.84 47.8106 122.955 47.8993 123.088 47.9549L123.04 47.931ZM157.208 23.5181C154.715 30.9247 151.803 38.2833 148.927 45.4741C148.22 47.2718 147.501 49.0695 146.758 50.8672C146.482 51.5264 145.715 54.5346 145.044 54.8462C145.307 54.7263 141.976 53.2402 141.448 53.0365C139.435 52.3054 137.433 51.5264 135.456 50.7594C132.016 49.4411 128.565 48.1347 125.089 46.9003C135.66 38.9544 146.434 31.2123 157.208 23.5181Z" fill="#1D2228"/>
<path d="M126.084 137.96C125.593 138.476 125.017 138.991 124.466 139.518C125.03 141.398 126.223 143.027 127.846 144.132C128.518 144.663 129.3 145.035 130.135 145.223L134.737 140.597C137.793 137.517 140.849 134.413 143.857 131.273L138.057 125.568C134.018 129.679 130.099 133.849 126.084 137.96ZM139.135 132.315C136.451 135.276 133.491 137.984 130.746 140.849C130.58 140.961 130.38 141.012 130.18 140.993C129.98 140.974 129.793 140.886 129.652 140.744C129.51 140.603 129.422 140.416 129.403 140.216C129.384 140.016 129.435 139.816 129.548 139.65C132.328 136.786 135.288 134.065 137.937 131.105C138.656 130.266 139.89 131.488 139.135 132.315Z" fill="#FE4577"/>
<path d="M140.801 125.832L143.57 128.564C145.655 126.407 147.812 124.322 149.898 122.152C148.913 121.31 147.999 120.388 147.165 119.396C145.02 121.529 142.922 123.687 140.801 125.832Z" fill="#FFFEFC"/>
<path d="M123.148 140.861C121.662 142.538 120.056 143.533 122.74 146.601C123.939 148.027 125.425 149.094 127.043 148.315C127.755 147.872 128.38 147.304 128.888 146.637C128.224 146.378 127.589 146.049 126.995 145.654C125.252 144.488 123.909 142.815 123.148 140.861Z" fill="#FFFEFC"/>
<path d="M174.131 90.8964C172.184 89.3218 169.947 88.1466 167.545 87.4382C165.144 86.7298 162.627 86.5021 160.137 86.7682C157.648 87.0343 155.236 87.7889 153.039 88.9888C150.841 90.1887 148.902 91.8103 147.333 93.7608C139.914 102.773 143.558 116.759 153.325 122.656C161.091 127.354 171.794 126.251 177.966 119.372C185.804 110.599 182.28 97.8116 174.131 90.8964ZM174.766 116.783C172.063 119.595 168.412 121.303 164.521 121.575C160.63 121.847 156.777 120.665 153.709 118.258C146.794 112.733 145.08 102.414 151.132 95.7382C156.801 89.4822 165.514 89.2066 172.069 94.1682C178.469 99.7292 181.01 109.904 174.766 116.783Z" fill="#FFF250"/>
<path d="M170.799 95.4024C168.108 93.2315 164.68 92.1862 161.236 92.4856C157.791 92.785 154.595 94.4057 152.319 97.0083C146.698 103.276 148.927 113.403 155.914 117.778C161.367 121.194 169.097 120.522 173.472 115.621C179.116 109.317 176.528 100.34 170.799 95.4024ZM156.681 108.993L156.286 101.119C156.286 100.005 157.963 99.9925 158.023 101.119L158.419 108.993C158.467 110.048 156.789 110.06 156.681 108.993ZM162.673 107.004C162.41 105.577 162.158 104.151 161.894 102.725C161.703 101.634 163.369 101.179 163.572 102.27C163.836 103.696 164.088 105.122 164.351 106.548C164.579 107.591 162.913 108.058 162.709 106.956L162.673 107.004ZM169.744 107.351C169.601 108.466 167.923 108.022 168.055 106.92C168.209 105.637 168.128 104.338 167.815 103.085C167.785 102.975 167.777 102.861 167.791 102.748C167.805 102.636 167.842 102.527 167.898 102.429C167.954 102.33 168.029 102.244 168.119 102.174C168.208 102.105 168.311 102.054 168.42 102.024C168.529 101.994 168.644 101.986 168.756 102C168.869 102.014 168.977 102.051 169.076 102.107C169.174 102.163 169.261 102.238 169.33 102.328C169.4 102.417 169.451 102.52 169.481 102.629C169.861 104.156 169.963 105.74 169.78 107.303L169.744 107.351Z" fill="#9BE9ED"/>
<path d="M175.353 89.6617C168.702 84.4963 160.049 83.178 152.474 87.2648C144.588 91.5074 139.686 100.628 142.023 109.46C142.844 112.537 144.221 115.437 146.086 118.018C143.905 120.199 141.748 122.404 139.579 124.609L138.668 123.71C138.598 123.638 138.514 123.58 138.421 123.541C138.329 123.502 138.229 123.482 138.128 123.483H137.985C137.779 123.492 137.585 123.582 137.445 123.734C134.437 126.778 131.453 129.87 128.517 132.963C126.983 134.557 125.449 136.15 123.903 137.756C122.776 138.955 120.163 140.693 119.564 142.119C118.306 145.115 122.033 149.31 124.67 150.209C127.582 151.239 129.284 148.782 131.093 146.805C131.209 146.73 131.304 146.627 131.369 146.505L131.621 146.146C136.343 141.424 141.065 136.69 145.679 131.848C145.805 131.712 145.885 131.54 145.907 131.357C145.935 131.225 145.929 131.089 145.889 130.961C145.849 130.833 145.777 130.717 145.679 130.626L144.792 129.763C146.925 127.545 149.13 125.424 151.252 123.219C154.441 125.579 158.218 127.014 162.17 127.366C169.421 128.013 177.846 123.77 181.345 117.394C186.751 107.711 183.479 96.5529 175.353 89.6617ZM127.043 148.315C125.425 149.094 123.986 148.027 122.74 146.601C120.055 143.533 121.661 142.538 123.148 140.86C123.909 142.814 125.252 144.488 126.995 145.654C127.589 146.048 128.224 146.378 128.888 146.637C128.38 147.304 127.754 147.872 127.043 148.315ZM134.737 140.597L130.135 145.223C129.3 145.035 128.517 144.663 127.846 144.132C126.21 143.033 125.003 141.404 124.43 139.518C124.981 138.991 125.556 138.476 126.048 137.96C130.063 133.849 134.006 129.679 138.033 125.568L143.833 131.273C140.849 134.413 137.793 137.517 134.737 140.597ZM143.57 128.612L140.801 125.88C142.922 123.734 145.02 121.577 147.165 119.444C147.999 120.436 148.913 121.358 149.897 122.2C147.812 124.322 145.655 126.407 143.605 128.564L143.57 128.612ZM177.942 119.42C171.77 126.311 161.067 127.402 153.301 122.704C143.558 116.807 139.914 102.821 147.309 93.8084C148.878 91.858 150.817 90.2364 153.014 89.0365C155.212 87.8366 157.624 87.082 160.113 86.8159C162.603 86.5498 165.12 86.7775 167.521 87.4859C169.922 88.1943 172.16 89.3694 174.107 90.9441C182.28 97.8113 185.804 110.599 177.942 119.372V119.42Z" fill="#1D2228"/>
<path d="M172.021 94.1679C165.502 89.2063 156.753 89.4819 151.084 95.7379C145.092 102.413 146.746 112.732 153.661 118.257C156.733 120.678 160.596 121.869 164.498 121.596C168.4 121.324 172.06 119.608 174.766 116.783C181.01 109.904 178.469 99.7288 172.021 94.1679ZM173.483 115.561C169.085 120.462 161.379 121.134 155.926 117.718C148.927 113.343 146.698 103.216 152.33 96.9484C154.615 94.3546 157.815 92.7452 161.26 92.457C164.704 92.1689 168.127 93.2243 170.811 95.4024C176.528 100.34 179.116 109.317 173.483 115.561Z" fill="#1D2228"/>
<path d="M156.285 101.071L156.681 108.945C156.681 110.06 158.467 110.048 158.419 108.945L157.987 101.059C157.987 99.9446 156.226 99.9566 156.285 101.071Z" fill="#1D2228"/>
<path d="M161.93 102.677C162.194 104.103 162.446 105.53 162.709 106.956C162.913 108.058 164.579 107.591 164.387 106.5C164.123 105.074 163.872 103.648 163.608 102.222C163.404 101.131 161.738 101.587 161.93 102.677Z" fill="#1D2228"/>
<path d="M167.851 103.001C168.163 104.254 168.245 105.554 168.09 106.836C167.958 107.938 169.636 108.382 169.78 107.267C169.98 105.69 169.891 104.09 169.517 102.545C169.456 102.324 169.31 102.137 169.112 102.023C168.913 101.91 168.677 101.88 168.456 101.94C168.235 102.001 168.047 102.146 167.934 102.345C167.82 102.544 167.79 102.78 167.851 103.001Z" fill="#1D2228"/>
<path d="M129.476 139.638C129.363 139.804 129.312 140.004 129.331 140.204C129.35 140.404 129.438 140.591 129.58 140.733C129.722 140.875 129.908 140.963 130.108 140.982C130.308 141.001 130.508 140.949 130.674 140.837C133.455 137.972 136.415 135.264 139.063 132.304C139.818 131.477 138.584 130.254 137.865 131.105C135.216 134.053 132.256 136.774 129.476 139.638Z" fill="#1D2228"/>
<path d="M29.6068 129.367C29.6068 130.829 29.7386 132.28 29.8225 133.742C30.3728 133.545 30.9741 133.545 31.5244 133.742C32.111 133.949 32.621 134.329 32.9865 134.832C33.9932 133.826 35.0119 132.843 36.0666 131.908C34.9999 130.254 31.4045 128.397 29.6068 129.367Z" fill="#FFF250"/>
<path d="M29.9064 135.048L30.0861 137.793L32.0516 135.779C31.9664 135.584 31.8413 135.408 31.6844 135.264C31.5275 135.119 31.3422 135.009 31.1403 134.94C30.9384 134.871 30.7244 134.846 30.512 134.864C30.2995 134.883 30.0933 134.945 29.9064 135.048Z" fill="#1D2228"/>
<path d="M44.1324 91.016C42.8021 94.4556 41.4718 97.8833 40.1534 101.323C36.7258 110.192 33.3461 118.976 30.0383 127.893C31.2917 127.817 32.546 128.027 33.7065 128.507C34.8671 128.986 35.9035 129.723 36.7378 130.661C41.8073 118.497 46.5293 106.177 51.2513 93.8923C51.2513 93.8923 51.2513 93.8923 51.2513 93.8085C50.8678 91.7471 45.9061 89.8175 44.1324 91.016ZM34.197 125.987C34.1231 126.128 33.9998 126.237 33.8506 126.293C33.7015 126.349 33.537 126.348 33.3887 126.29C33.2403 126.232 33.1185 126.122 33.0465 125.98C32.9746 125.837 32.9575 125.674 32.9986 125.52C37.0973 114.806 40.8965 103.995 45.3308 93.413C45.4048 93.2719 45.5281 93.1631 45.6772 93.1073C45.8264 93.0515 45.9908 93.0526 46.1392 93.1105C46.2875 93.1683 46.4094 93.2789 46.4813 93.4209C46.5533 93.5629 46.5704 93.7265 46.5293 93.8804C42.095 104.463 38.2838 115.261 34.1731 125.94L34.197 125.987ZM49.142 94.923C44.8874 105.542 40.8845 116.268 36.7498 126.97C36.6894 127.129 36.5683 127.258 36.4132 127.327C36.2582 127.397 36.0818 127.402 35.9228 127.342C35.7639 127.281 35.6355 127.16 35.5658 127.005C35.4961 126.85 35.4909 126.674 35.5513 126.515C39.6741 115.836 43.677 105.11 47.9435 94.5036C48.0029 94.3496 48.1198 94.2248 48.2696 94.1555C48.4194 94.0863 48.5903 94.078 48.746 94.1325C48.9018 94.187 49.0302 94.3 49.1041 94.4476C49.178 94.5951 49.1916 94.7656 49.142 94.923Z" fill="#FE4577"/>
<path d="M45.4386 87.5047C45.1003 88.105 44.8501 88.7507 44.6956 89.4222C46.0362 89.2712 47.3934 89.4524 48.6474 89.9498C49.9015 90.4473 51.0138 91.2457 51.8864 92.2746L52.6774 90.2372C52.8691 87.0493 47.3921 84.868 45.4386 87.5047Z" fill="#9BE9ED"/>
<path d="M44.8154 86.2221C43.0536 88.0678 42.4184 91.795 41.5076 94.0961C37.0732 105.589 32.579 117.059 28.3843 128.636C28.3504 128.741 28.3504 128.854 28.3843 128.96V129.044C28.3843 130.913 28.5401 132.771 28.66 134.628C28.6477 134.704 28.6477 134.781 28.66 134.856C28.7558 136.342 28.8637 137.84 28.9596 139.326C28.978 139.436 29.0246 139.54 29.0947 139.626C29.1649 139.713 29.2562 139.78 29.3599 139.821C29.4636 139.862 29.5761 139.876 29.6865 139.86C29.797 139.845 29.9016 139.802 29.9903 139.734C32.3872 137.337 34.7842 134.76 37.3129 132.543L37.4208 132.399C37.4208 132.399 37.4208 132.399 37.4208 132.339C43.2214 118.581 48.4827 104.583 53.8639 90.6804V90.5846C53.8695 90.5609 53.8695 90.5363 53.8639 90.5127V90.4168C53.8639 90.4168 53.8639 90.4168 53.8639 90.3449C54.1395 86.2221 47.7277 83.166 44.8154 86.2221ZM32.0516 135.767L30.0862 137.756L29.9064 135.012C30.0948 134.91 30.3024 134.848 30.516 134.831C30.7296 134.815 30.9444 134.843 31.1465 134.914C31.3486 134.985 31.5335 135.098 31.6894 135.244C31.8453 135.391 31.9687 135.569 32.0516 135.767ZM32.9865 134.832C32.6209 134.329 32.111 133.948 31.5243 133.742C30.9741 133.545 30.3727 133.545 29.8225 133.742C29.7386 132.279 29.6547 130.829 29.6068 129.367C31.4045 128.432 34.9999 130.29 36.0665 131.944C35.0119 132.843 33.9932 133.825 32.9865 134.832ZM51.2272 93.8085C51.2272 93.8085 51.2272 93.8085 51.2272 93.8923C46.5292 106.177 41.8072 118.497 36.7377 130.661C35.9034 129.723 34.867 128.986 33.7064 128.507C32.5459 128.027 31.2916 127.817 30.0382 127.893C33.346 118.976 36.7257 110.192 40.1294 101.275C41.4477 97.8353 42.778 94.4077 44.1083 90.9681C45.906 89.8175 50.8677 91.7471 51.2272 93.8085ZM52.6654 90.213L51.8744 92.2504C51.0018 91.2215 49.8895 90.4231 48.6354 89.9257C47.3814 89.4282 46.0242 89.247 44.6836 89.3981C44.8381 88.7266 45.0883 88.0808 45.4266 87.4805C47.3921 84.8678 52.8691 87.0491 52.6654 90.237V90.213Z" fill="#1D2228"/>
<path d="M46.5294 93.8924C46.5787 93.7367 46.5672 93.5681 46.4974 93.4204C46.4275 93.2728 46.3044 93.157 46.1527 93.0963C46.0011 93.0357 45.8321 93.0346 45.6797 93.0933C45.5273 93.1521 45.4027 93.2663 45.331 93.413C40.9445 103.984 37.1454 114.794 33.0226 125.46C32.9816 125.614 32.9986 125.778 33.0706 125.92C33.1426 126.062 33.2644 126.172 33.4128 126.23C33.5611 126.288 33.7256 126.289 33.8747 126.233C34.0239 126.177 34.1472 126.069 34.2211 125.928C38.2839 115.261 42.0951 104.463 46.5294 93.8924Z" fill="#1D2228"/>
<path d="M47.9555 94.4675C43.6889 105.074 39.686 115.8 35.5633 126.479C35.5029 126.638 35.5081 126.814 35.5778 126.969C35.6475 127.124 35.7759 127.245 35.9348 127.306C36.0937 127.366 36.2702 127.361 36.4252 127.291C36.5803 127.222 36.7014 127.093 36.7618 126.934C40.8965 116.268 44.8994 105.541 49.154 94.923C49.2144 94.764 49.2092 94.5876 49.1395 94.4325C49.0698 94.2775 48.9414 94.1564 48.7824 94.096C48.6235 94.0356 48.4471 94.0408 48.292 94.1105C48.1369 94.1802 48.0159 94.3086 47.9555 94.4675Z" fill="#1D2228"/>
<path d="M80.44 110.523C78.28 110.523 77.2 109.963 77.2 108.843C77.2 108.403 77.38 108.063 77.74 107.823C78.1 107.583 78.52 107.463 79 107.463C79.64 107.463 80.16 107.643 80.56 108.003C81.44 107.683 82.18 106.643 82.78 104.883C83.38 103.083 83.68 101.403 83.68 99.8434C83.68 97.8434 83.66 96.1434 83.62 94.7434C83.5 92.9434 83.3 91.3234 83.02 89.8834C82.86 89.0434 82.68 88.3434 82.48 87.7834C82.28 87.2234 81.98 86.6034 81.58 85.9234C81.02 84.9234 80.1 84.1634 78.82 83.6434C78.14 83.4434 77.48 83.3434 76.84 83.3434C75.92 83.3434 75.3 82.9634 74.98 82.2034C74.78 81.6034 74.68 80.8434 74.68 79.9234C74.68 79.6034 74.74 79.0834 74.86 78.3634L74.98 76.8634C74.98 75.0234 74.88 73.3234 74.68 71.7634L73.9 66.7834L73.54 64.3234L74.56 63.2434H79.42C81.1 63.2434 81.94 63.7634 81.94 64.8034V65.1034L80.8 66.0034H79.3V65.8234H76.78C76.82 67.8234 77.2 72.5834 77.92 80.1034L79.12 80.2234C80 80.3034 80.84 80.4434 81.64 80.6434C82.08 80.7634 82.46 80.9434 82.78 81.1834C83.62 81.7834 84.36 83.1234 85 85.2034C85.64 87.2434 86.06 89.3634 86.26 91.5634C86.46 93.6834 86.56 95.4034 86.56 96.7234C86.56 98.5634 86.52 100.083 86.44 101.283C86.4 102.123 86.32 102.803 86.2 103.323C86.08 103.803 85.88 104.463 85.6 105.303C85.36 105.983 85.06 106.583 84.7 107.103C84.38 107.623 83.94 108.183 83.38 108.783C82.82 109.343 82.18 109.923 81.46 110.523H81.04H80.44ZM96.5847 90.2434C96.0647 90.2434 95.6047 90.0834 95.2047 89.7634C94.8047 89.4034 94.6047 88.9834 94.6047 88.5034C94.6047 88.0234 95.0847 87.6034 96.0447 87.2434C97.4047 86.7234 99.7647 86.3634 103.125 86.1634C104.405 86.0834 105.225 86.0434 105.585 86.0434C106.105 86.0434 106.565 86.2234 106.965 86.5834C107.365 86.9034 107.565 87.3034 107.565 87.7834C107.565 88.2634 107.085 88.6834 106.125 89.0434C104.765 89.5634 102.405 89.9234 99.0447 90.1234C97.7647 90.2034 96.9447 90.2434 96.5847 90.2434ZM116.802 108.723C116.802 108.003 117.022 106.943 117.462 105.543L117.882 104.103C119.482 98.1834 120.742 91.8634 121.662 85.1434C122.622 78.3834 123.162 71.9034 123.282 65.7034C122.882 65.6234 122.422 65.5834 121.902 65.5834C121.502 65.5834 120.222 65.7034 118.062 65.9434L116.022 66.1234C115.622 65.9234 115.282 65.6834 115.002 65.4034C114.762 65.0834 114.642 64.7434 114.642 64.3834C114.642 63.5434 117.162 63.1234 122.202 63.1234H123.282C123.922 63.1234 124.382 63.1634 124.662 63.2434C124.982 63.2834 125.302 63.4234 125.622 63.6634C125.862 63.8234 126.102 64.2034 126.342 64.8034C125.702 67.9234 124.842 74.8834 123.762 85.6834C123.402 89.5634 122.902 93.4034 122.262 97.2034C121.662 100.963 121.002 103.883 120.282 105.963V106.503C120.282 107.303 120.042 108.043 119.562 108.723C119.122 109.403 118.582 109.743 117.942 109.743L116.802 108.723Z" fill="black"/>
</svg>
